<svg width="152" height="59" viewBox="0 0 152 59" fill="none" xmlns="http://www.w3.org/2000/svg">
<g clip-path="url(#clip0_1000_1396)">
<mask id="mask0_1000_1396" style="mask-type:luminance" maskUnits="userSpaceOnUse" x="0" y="0" width="152" height="59">
<path d="M152 57.2218V1.77818C152 0.796118 151.205 0 150.224 0L1.77562 0C0.794983 0 1.52588e-05 0.796118 1.52588e-05 1.77818V57.2218C1.52588e-05 58.2039 0.794983 59 1.77562 59L150.224 59C151.205 59 152 58.2039 152 57.2218Z" fill="white"/>
</mask>
<g mask="url(#mask0_1000_1396)">
<path d="M152 58.1109V0.88909C152 0.398059 151.603 0 151.112 0L0.887817 0C0.397507 0 1.52588e-05 0.398059 1.52588e-05 0.88909V58.1109C1.52588e-05 58.6019 0.397507 59 0.887817 59L151.112 59C151.603 59 152 58.6019 152 58.1109Z" fill="white"/>
<path d="M129.93 33.6876C128.944 33.0919 127.781 32.7896 126.45 32.7896C125.118 32.7896 123.964 33.1275 122.961 33.7854C121.966 34.4433 121.185 35.3324 120.643 36.4349C120.102 37.5285 119.835 38.7554 119.835 40.0535C119.835 41.3515 120.128 42.6496 120.706 43.7432C121.283 44.8368 122.099 45.7081 123.129 46.3304C124.159 46.9528 125.34 47.264 126.636 47.264C128.056 47.264 129.282 46.935 130.285 46.2949C131.288 45.6547 132.087 44.7745 132.673 43.6721L132.78 43.4676L130.516 42.3651L130.409 42.5429C129.53 44.0722 128.323 44.8101 126.698 44.8101C126.015 44.8101 125.349 44.6412 124.718 44.3211C124.097 44.001 123.573 43.5031 123.165 42.8452C122.792 42.2495 122.561 41.5116 122.49 40.6581H132.842L132.886 40.4891C132.939 40.2846 132.975 40.0357 132.975 39.7601C132.975 38.4176 132.709 37.2084 132.185 36.1593C131.661 35.1101 130.897 34.2744 129.912 33.6698L129.93 33.6876ZM126.423 35.2346C127.275 35.2346 127.985 35.4124 128.536 35.7681C129.095 36.1237 129.504 36.5594 129.761 37.075C129.983 37.5196 130.125 37.9641 130.178 38.4087H122.668C122.898 37.5018 123.333 36.7461 123.946 36.177C124.612 35.5547 125.446 35.2435 126.414 35.2435L126.423 35.2346Z" fill="#5F6368"/>
<path d="M112.724 32.7896C111.792 32.7896 110.904 33.0297 110.079 33.5098C109.457 33.8743 108.96 34.2922 108.587 34.7812V33.2075H106.039V46.8639H108.694V39.2088C108.694 38.542 108.845 37.8841 109.137 37.2706C109.43 36.666 109.839 36.1682 110.372 35.7947C110.886 35.4302 111.481 35.2435 112.138 35.2435C113.088 35.2435 113.852 35.5013 114.384 36.0081C114.917 36.5149 115.192 37.3595 115.192 38.5065V46.8639H117.847V38.1686C117.847 36.5327 117.403 35.2079 116.533 34.2477C115.654 33.2786 114.375 32.7896 112.733 32.7896H112.724Z" fill="#5F6368"/>
<path d="M102.381 44.7746C101.822 44.7746 101.413 44.6145 101.138 44.2767C100.898 43.9655 100.774 43.4676 100.774 42.7741V35.6436H103.979V33.1986H100.774V29.4733H98.1285V33.1986H95.8291V35.6436H98.1285V43.2987C98.1285 43.9566 98.2173 44.5256 98.4037 44.9879C98.5901 45.4592 98.8654 45.877 99.2294 46.2238C99.5579 46.5439 99.9751 46.8017 100.455 46.9884C100.934 47.1751 101.467 47.264 102.026 47.264C102.461 47.264 102.816 47.2373 103.091 47.184C103.375 47.1306 103.651 47.0417 103.935 46.9084L104.068 46.8461V44.1433L103.722 44.3656C103.295 44.6323 102.852 44.7746 102.39 44.7746H102.381Z" fill="#5F6368"/>
<path d="M142.962 33.0919C142.501 32.8874 141.95 32.7896 141.32 32.7896C140.468 32.7896 139.642 33.0474 138.87 33.5542C138.337 33.901 137.92 34.3188 137.618 34.7901V33.2075H135.07V46.8639H137.724V39.2444C137.724 38.5776 137.875 37.9374 138.177 37.3684C138.47 36.7905 138.878 36.3282 139.385 35.9814C139.873 35.6436 140.423 35.4747 141.018 35.4747C141.666 35.4747 142.261 35.608 142.776 35.8659L143.104 36.0259V33.1541L142.971 33.0919H142.962Z" fill="#5F6368"/>
<path d="M93.3609 33.0475C92.4464 33.0475 91.5941 33.2786 90.8129 33.7232C90.2536 34.0521 89.8008 34.4789 89.4723 34.9946V33.4031H86.9243V47.0595H89.5788V39.5023C89.5788 38.382 89.9073 37.4574 90.5643 36.755C91.2213 36.0526 92.0647 35.7147 93.13 35.7147C93.6094 35.7147 93.9912 35.7503 94.2664 35.8125L94.5416 35.8748V33.1542L94.3641 33.1186C94.0888 33.0652 93.7515 33.0386 93.3609 33.0386V33.0475Z" fill="#5F6368"/>
<path d="M68.2009 28.5931C67.2953 28.113 66.2921 27.8641 65.2268 27.8641H58.7725V46.855H61.4004V39.2978H65.2356C66.3099 39.2978 67.3042 39.0577 68.2098 38.5687C69.1242 38.0886 69.8611 37.404 70.4026 36.5327C70.9531 35.6614 71.2283 34.6656 71.2283 33.572C71.2283 32.4784 70.9531 31.4827 70.4026 30.6203C69.8611 29.7578 69.1242 29.0732 68.2098 28.5842L68.2009 28.5931ZM66.9757 36.2926C66.4874 36.5949 65.9192 36.755 65.2711 36.755H61.3826V30.4247H65.2711C65.9104 30.4247 66.4874 30.5758 66.9757 30.8781C67.464 31.1893 67.8546 31.5894 68.1299 32.0695C68.4051 32.5496 68.5382 33.0652 68.5382 33.5898C68.5382 34.1144 68.3962 34.63 68.1299 35.1102C67.8546 35.5903 67.4729 35.9904 66.9757 36.2926Z" fill="#5F6368"/>
<path d="M78.6948 32.7896C77.5584 32.7896 76.5108 33.0208 75.5786 33.4831C74.6375 33.9454 73.8918 34.6034 73.3591 35.4302L73.2437 35.608L75.2679 37.1284L75.4011 36.9239C75.7384 36.3904 76.2089 35.9637 76.786 35.6703C77.372 35.368 78.0201 35.2168 78.7214 35.2168C79.7158 35.2168 80.5414 35.5013 81.1806 36.0526C81.8287 36.6127 82.1394 37.324 82.1394 38.2486V38.6754C81.8021 38.5153 81.3759 38.3731 80.8521 38.2397C80.1508 38.0619 79.3961 37.973 78.5882 37.973C76.9458 37.973 75.5609 38.382 74.4689 39.1911C73.3591 40.0179 72.7998 41.1826 72.7998 42.6496C72.7998 43.5387 73.0218 44.3389 73.4568 45.0324C73.8918 45.7348 74.5133 46.286 75.3034 46.6772C76.0847 47.0684 76.9902 47.2729 77.9934 47.2729C78.9966 47.2729 79.8756 47.0328 80.6657 46.5705C81.2694 46.2149 81.7577 45.797 82.1306 45.3169V46.855H84.6785V38.2664C84.6785 36.586 84.137 35.2346 83.0628 34.2566C81.9974 33.2786 80.5236 32.7896 78.6859 32.7896H78.6948ZM78.2065 44.8812C77.4164 44.8812 76.7683 44.6678 76.2533 44.2589C75.7562 43.8499 75.5076 43.3342 75.5076 42.6763C75.5076 41.9472 75.7828 41.3693 76.3421 40.907C76.9103 40.4447 77.7715 40.2046 78.9256 40.2046C79.5737 40.2046 80.1952 40.2846 80.7811 40.4536C81.3138 40.6047 81.7666 40.8003 82.1394 41.0315C82.1217 41.6983 81.9441 42.3207 81.6068 42.8897C81.2516 43.4943 80.7634 43.9833 80.1597 44.3389C79.556 44.6945 78.899 44.8723 78.2065 44.8723V44.8812Z" fill="#5F6368"/>
<path d="M46.3343 28.6021C46.3343 27.2417 46.1213 25.9437 45.8993 24.6901H28.1167V32.0695H38.0956C37.6517 34.4523 36.5242 36.4794 34.5 37.8486V42.6586H40.6702C44.2658 39.3334 46.3343 34.4078 46.3343 28.5932V28.6021Z" fill="#4284F4"/>
<path d="M28.0726 47.2729C33.2041 47.2729 37.5277 45.5748 40.6794 42.6586L34.5092 37.8486C32.8135 38.9955 30.6295 39.6712 28.0726 39.6712C23.1187 39.6712 18.9194 36.3194 17.419 31.7939H11.0713V36.7372C14.2052 42.9786 20.6329 47.264 28.0726 47.264V47.2729Z" fill="#34A853"/>
<path d="M17.4188 31.8028C17.0371 30.6558 16.824 29.4289 16.824 28.1664C16.824 26.9039 17.0371 25.6769 17.4188 24.53V19.5867H11.0711C9.77487 22.165 9.04688 25.0812 9.04688 28.1664C9.04688 31.2515 9.78375 34.1677 11.0711 36.7461L17.4188 31.8028Z" fill="#FBBC04"/>
<path d="M28.0726 16.6527C30.8692 16.6527 33.3728 17.6218 35.3526 19.5067L40.8037 14.0299C37.5099 10.9447 33.2041 9.05096 28.0726 9.05096C20.6418 9.05096 14.2052 13.3364 11.0713 19.5778L17.419 24.5211C18.9194 19.9957 23.1187 16.6438 28.0726 16.6438V16.6527Z" fill="#EA4335"/>
<path d="M65.5197 15.1146V16.9372H69.8699C69.7368 17.9596 69.3994 18.7065 68.8756 19.231C68.2364 19.8712 67.2509 20.5647 65.5197 20.5647C62.8475 20.5647 60.7523 18.4042 60.7523 15.7191C60.7523 13.0341 62.8475 10.8736 65.5197 10.8736C66.958 10.8736 68.0144 11.4426 68.7957 12.1806L70.0741 10.9003C68.991 9.85115 67.5439 9.05096 65.5197 9.05096C61.8531 9.05096 58.7725 12.0383 58.7725 15.7102C58.7725 19.3822 61.8531 22.3695 65.5197 22.3695C67.4995 22.3695 68.991 21.7205 70.1629 20.5024C71.3614 19.3022 71.7343 17.604 71.7343 16.2437C71.7343 15.8258 71.7077 15.4257 71.6367 15.1057H65.5197V15.1146Z" fill="#4284F4"/>
<path d="M77.1676 13.6387C74.7972 13.6387 72.8618 15.4435 72.8618 17.9419C72.8618 20.4402 74.7972 22.2451 77.1676 22.2451C79.5381 22.2451 81.4735 20.4224 81.4735 17.9419C81.4735 15.4613 79.5381 13.6387 77.1676 13.6387ZM77.1676 20.5469C75.8626 20.5469 74.744 19.4711 74.744 17.9419C74.744 16.4126 75.8715 15.3368 77.1676 15.3368C78.4638 15.3368 79.5913 16.3949 79.5913 17.9419C79.5913 19.4889 78.4638 20.5469 77.1676 20.5469Z" fill="#4284F4"/>
<path d="M98.2974 14.5989H98.2352C97.818 14.0921 97.0012 13.6387 95.9713 13.6387C93.8317 13.6387 91.9585 15.5147 91.9585 17.9419C91.9585 20.3691 93.8317 22.2451 95.9713 22.2451C97.0012 22.2451 97.8091 21.7827 98.2352 21.2671H98.2974V21.8628C98.2974 23.5076 97.4185 24.3878 96.0069 24.3878C94.8527 24.3878 94.1336 23.5609 93.8406 22.8585L92.1982 23.5431C92.6687 24.6812 93.9205 26.0859 96.0069 26.0859C98.2175 26.0859 100.091 24.779 100.091 21.6049V13.8698H98.2974V14.6078V14.5989ZM96.1311 20.5469C94.8261 20.5469 93.8406 19.4355 93.8406 17.9419C93.8406 16.4482 94.835 15.3368 96.1311 15.3368C97.4273 15.3368 98.4217 16.4482 98.4217 17.9596C98.4217 19.4622 97.4185 20.5469 96.1311 20.5469Z" fill="#4284F4"/>
<path d="M86.7736 13.6387C84.4032 13.6387 82.4678 15.4435 82.4678 17.9419C82.4678 20.4402 84.4032 22.2451 86.7736 22.2451C89.144 22.2451 91.0794 20.4224 91.0794 17.9419C91.0794 15.4435 89.144 13.6387 86.7736 13.6387ZM86.7736 20.5469C85.4685 20.5469 84.3499 19.4711 84.3499 17.9419C84.3499 16.4126 85.4774 15.3368 86.7736 15.3368C88.0698 15.3368 89.1973 16.3949 89.1973 17.9419C89.1973 19.4889 88.0698 20.5469 86.7736 20.5469Z" fill="#4284F4"/>
<path d="M101.564 9.22876H103.42V22.2361H101.564V9.22876Z" fill="#4284F4"/>
<path d="M109.146 20.5469C108.187 20.5469 107.504 20.1112 107.06 19.2399L112.804 16.8661L112.609 16.3771C112.253 15.4169 111.161 13.6387 108.933 13.6387C106.705 13.6387 104.885 15.3813 104.885 17.9419C104.885 20.3513 106.705 22.2451 109.146 22.2451C111.108 22.2451 112.253 21.0359 112.724 20.3424L111.259 19.3644C110.771 20.0757 110.105 20.5469 109.146 20.5469ZM109.013 15.2568C109.777 15.2568 110.425 15.648 110.638 16.2081L106.758 17.8174C106.758 16.0125 108.036 15.2657 109.013 15.2657V15.2568Z" fill="#4284F4"/>
<path d="M75.9956 57.1863H0V59H75.9956V57.1863Z" fill="#34A853"/>
<path d="M151.991 57.1863H75.9956V59H151.991V57.1863Z" fill="#4284F4"/>
</g>
</g>
<defs>
<clipPath id="clip0_1000_1396">
<rect width="152" height="59" rx="5" fill="white"/>
</clipPath>
</defs>
</svg>
