<svg width="176" height="9" viewBox="0 0 176 9" fill="none" xmlns="http://www.w3.org/2000/svg">
<path d="M13.6776 8.02841C13.7855 8.01738 14.2217 7.99593 14.4101 7.98137C14.2002 8.03428 13.2885 8.06796 13.6776 8.02841ZM32.6973 2.9044C32.5418 2.9331 32.3864 2.96185 32.2309 2.99063C32.6763 2.95299 33.2735 2.8831 33.6875 2.85417C33.7552 2.8495 33.583 2.90394 33.7429 2.88973C33.903 2.87554 33.868 2.8279 34.1001 2.79949C34.3604 2.76734 35.5563 2.68744 35.9699 2.64819C37.5162 2.4992 39.0755 2.33091 40.6279 2.22366C39.0295 2.39675 40.6457 2.29974 41.0932 2.2468C41.1925 2.23533 41.1691 2.13706 42.7791 2.035C43.474 1.99172 43.2654 2.07598 43.5937 2.07138C43.7485 2.06931 44.0227 2.04751 44.5675 1.98434C43.25 1.98566 44.5393 1.89466 45.5672 1.81616C45.7442 1.80231 47.1778 1.71324 47.8092 1.66497C48.0254 1.64826 48.3517 1.57431 48.6386 1.55315C48.8361 1.53863 48.9872 1.55618 49.2804 1.53473C50.6475 1.43518 51.993 1.34504 53.3636 1.26883C52.5704 1.44959 53.9952 1.28515 54.0599 1.28777C54.3883 1.3029 52.9124 1.40472 53.4976 1.39056C54.3133 1.33561 55.1293 1.28207 55.9455 1.22997C55.2747 1.25335 56.8263 1.06809 57.1151 1.09484C56.9826 0.984799 60.8416 0.989188 61.425 0.924004C61.5466 0.910044 60.7453 0.892604 62.5991 0.826555C62.7999 0.819613 62.7255 0.857834 62.8306 0.849486C62.8935 0.844459 63.2702 0.716329 63.6793 0.757665C63.8288 0.773097 62.8822 0.888391 64.9664 0.763133C64.1311 0.68815 67.8556 0.574839 68.5418 0.578206C68.4044 0.568799 68.267 0.559427 68.1296 0.550087C68.8083 0.562913 68.9291 0.520781 69.0818 0.516836C69.6968 0.501041 70.5433 0.507291 71.1159 0.483426C71.786 0.455659 71.786 0.387135 72.5684 0.387407C72.3825 0.378533 72.1966 0.369724 72.0107 0.360982C72.5505 0.346169 73.0904 0.332047 73.6303 0.318621C72.383 0.448897 73.9 0.314092 74.0001 0.309415C74.1597 0.301201 73.9313 0.345155 74.1982 0.332331C74.2258 0.330752 74.1849 0.297146 74.5964 0.280859C75.4563 0.247327 75.3215 0.295147 75.6826 0.284294C75.7157 0.283189 75.5989 0.255043 76.2225 0.230519C78.2043 0.1545 76.2132 0.254204 76.1373 0.261034C76.0376 0.269779 76.7204 0.379767 75.0357 0.382291C75.6014 0.380414 75.6598 0.43662 75.7235 0.436187C75.7798 0.435553 76.7589 0.400329 76.8129 0.397104C77.2939 0.364793 76.8693 0.336774 76.9629 0.327245C77.0396 0.319336 78.2207 0.340309 78.4948 0.216434C79.0619 0.311774 78.172 0.321999 77.2257 0.363471C77.0881 0.389272 78.1282 0.384417 78.1829 0.383227C79.524 0.350776 78.7796 0.279565 79.0717 0.215669C79.2251 0.182323 79.7729 0.231071 79.2667 0.162354C80.4841 0.127457 79.7466 0.189769 79.8254 0.194855C79.9443 0.202312 80.3698 0.170603 80.4232 0.172601C80.5016 0.175504 80.23 0.208631 80.5388 0.212044C80.5901 0.212384 81.0865 0.155056 80.4449 0.145225C81.3017 0.134831 81.2305 0.0962841 81.5224 0.172067C82.1099 0.00761393 81.952 0.255116 82.1845 0.2595C82.8026 0.271321 82.6215 0.154238 82.6541 0.147768C82.8784 0.105832 84.5896 0.121709 85.0129 0.0998646C84.8468 0.187741 83.6569 0.119018 83.3913 0.14013C82.5058 0.209533 84.641 0.164616 83.9988 0.282775C84.2682 0.248998 84.5376 0.215483 84.8071 0.182233C85.3026 0.245559 84.6012 0.284077 85.9321 0.24282C86.1492 0.18032 84.991 0.263504 85.223 0.213559C85.3597 0.18397 86.1317 0.16922 86.1467 0.154609C86.1617 0.136803 85.4642 0.165499 85.5739 0.137261C85.8133 0.0751252 88.3594 0.106863 86.4219 0.156968C86.9623 0.150564 87.2418 0.263427 87.7101 0.223535C88.0131 0.198343 86.3067 0.0506442 88.8652 0.0625487C88.92 0.116196 87.8425 0.0851247 87.8146 0.0896939C87.7753 0.0960293 87.971 0.217214 88.0048 0.222993C88.1243 0.24045 90.7355 0.161166 91.2875 0.222857C91.069 0.152391 93.2614 0.209006 93.5001 0.189442C93.5637 0.183742 93.3262 0.140656 93.3941 0.136298C93.8182 0.110215 94.9642 0.190455 95.496 0.195757C96.0913 0.201597 96.0162 0.164963 96.0494 0.165208C96.3114 0.169118 96.1019 0.192253 96.2621 0.193347C96.5041 0.194315 98.1662 0.214995 98.2496 0.211443C98.274 0.210143 98.0032 0.165901 98.3656 0.162208C98.4283 0.161782 98.3881 0.209177 99.4611 0.202203C100.754 0.194943 98.5646 0.129618 99.1021 0.0861045C99.9312 0.169741 99.9053 0.0980937 100.13 0.107062C100.208 0.110331 100.788 0.179777 101.418 0.186931C100.966 0.188847 100.513 0.191417 100.061 0.194637C100.505 0.211629 101.369 0.21269 101.735 0.231383C101.913 0.240426 101.765 0.287244 102.153 0.292986C102.236 0.294063 102.565 0.179221 101.547 0.214964C101.466 0.17035 101.95 0.207061 102.174 0.199188C102.208 0.197923 102.343 0.128627 102.629 0.178949C102.698 0.191763 101.945 0.384076 103.879 0.273778C103.942 0.270302 103.726 0.239486 103.787 0.235425C103.828 0.23263 104.321 0.254301 104.376 0.251938C104.432 0.249278 104.194 0.215392 104.261 0.211344C104.602 0.190583 105.046 0.313405 104.344 0.288483C104.578 0.307768 104.813 0.327164 105.047 0.346673C104.798 0.256107 105.416 0.331799 105.74 0.337579C107.819 0.376403 106.428 0.284944 106.787 0.266335C107.363 0.237666 106.92 0.367713 107.774 0.349921C107.853 0.34871 106.823 0.255521 108.836 0.352634C108.539 0.345391 108.241 0.338439 107.944 0.331762C108.113 0.417122 109.018 0.359723 109.087 0.361201C109.878 0.376679 109.343 0.386652 110.518 0.386985C110.624 0.387078 110.851 0.414842 111.076 0.41338C112.007 0.40759 109.85 0.344115 109.792 0.310893C109.765 0.292846 112.083 0.38252 112.162 0.394388C112.499 0.440215 111.111 0.368182 111.374 0.419393C111.47 0.434852 114.776 0.540314 115.437 0.589731C116.201 0.643215 116.541 0.763672 116.551 0.647441C116.761 0.772052 116.955 0.703398 117.053 0.709055C118.235 0.77847 118.237 0.779919 119.251 0.823196C119.475 0.832948 119.662 0.877258 119.742 0.875856C119.788 0.874938 119.704 0.833845 119.93 0.835172C120.245 0.836331 122.125 0.9834 122.265 1.01237C122.404 1.04035 121.468 0.973409 121.634 1.016C122.312 1.05907 122.961 1.09064 123.643 1.13707C123.925 1.1565 123.779 1.16971 123.901 1.17791C123.953 1.18119 124.931 1.22494 124.89 1.21428C124.795 1.18637 121.776 1.01115 122.573 1.02122C122.727 1.02291 123.265 1.10851 123.183 1.04006C125.878 1.22328 128.572 1.42986 131.263 1.66076C129.712 1.57998 127.976 1.40961 126.352 1.30119C126.129 1.2861 125.379 1.22913 125.468 1.26674C126.847 1.36693 128.563 1.4751 129.883 1.59744C129.926 1.60135 129.768 1.61654 129.927 1.63304C130.222 1.66345 131.191 1.69638 131.353 1.72098C131.38 1.7257 130.828 1.71729 130.994 1.75315C131.418 1.84483 131.537 1.72597 131.905 1.75772C132.191 1.78154 134.1 2.00356 134.579 2.00863C135.089 2.01248 133.171 1.8622 133.315 1.84178C134.615 1.91935 135.927 2.07392 137.152 2.18583C137.174 2.18779 136.989 2.14474 137.262 2.16723C137.739 2.20658 137.86 2.25436 138.091 2.2824C138.231 2.29941 138.572 2.33253 138.864 2.363C139.09 2.38657 139.287 2.40816 139.338 2.41879C139.353 2.42193 139.171 2.43911 139.144 2.43744C139.028 2.43038 138.934 2.42008 138.86 2.40902C138.688 2.38356 138.617 2.35421 138.592 2.35141C138.461 2.3368 138.33 2.34162 138.211 2.32896C138.013 2.30811 137.906 2.28142 137.646 2.25499C137.466 2.23674 137.637 2.2845 137.464 2.26657C137.4 2.25987 136.72 2.12333 136.649 2.19082C136.64 2.2 137.652 2.30437 138.858 2.43084C140.481 2.60152 142.462 2.7945 142.784 2.8146C142.306 2.76106 141.827 2.70704 141.348 2.65253C142.32 2.76646 143.494 2.82178 143.57 2.91011C147.18 3.25359 150.792 3.5745 154.406 3.86102C155.051 3.91683 154.694 3.93496 155.757 4.00183C155.484 3.9672 155.21 3.93221 154.937 3.89684C155.48 3.95036 157.892 4.14608 158.283 4.16324C158.334 4.16558 158.406 4.13223 159.009 4.17113C159.545 4.20546 159.629 4.23948 159.914 4.26419C160.154 4.28482 160.425 4.29538 160.496 4.30164C160.55 4.30649 160.571 4.32497 160.703 4.33654C161.118 4.37272 160.784 4.30334 161.193 4.38456C161.092 4.38019 160.992 4.37581 160.891 4.3714C161.392 4.41193 162.076 4.47895 161.337 4.44487C161.21 4.43896 161.32 4.42957 161.225 4.4236C157.514 4.18423 160.475 4.41321 161.777 4.46765C162.11 4.51331 163.983 4.60914 164.045 4.61644C164.131 4.62786 163.81 4.62826 164.229 4.66763C164.317 4.67755 166.822 4.79668 165.919 4.77894C165.732 4.77589 164.532 4.7056 164.242 4.68998C164.921 4.77645 166.521 4.78997 166.701 4.80063C167.425 4.84376 165.307 4.77184 166.939 4.85787C168.194 4.92199 167.017 4.83516 167.5 4.84527C167.771 4.85194 169.191 4.94882 169.154 4.9046C169.641 4.92158 169.355 4.93112 169.415 4.93536C169.474 4.93949 170.433 4.96761 170.744 4.98829C170.782 4.99085 170.662 5.00723 170.701 5.0105C170.777 5.01672 171.702 5.04769 171.739 5.04707C171.763 5.04676 171.543 5.02044 171.634 5.01944C171.74 5.01864 172.629 5.05508 172.679 5.05149C172.748 5.04663 171.65 5.01169 171.833 4.9981C172.339 5.02247 173.165 5.03808 173.5 5.03372C173.417 5.03546 172.927 5.01915 172.756 5.01135C172.837 4.98564 173.891 5.02283 173.53 5.03276C173.76 5.02847 173.604 5.0168 173.733 5.00986C173.767 5.00818 174.092 5.01854 174.155 5.01574C174.163 5.01511 173.828 4.99319 173.895 4.98973C174.017 4.98392 175.004 5.01865 175.085 5.02343C175.312 5.03799 174.507 5.02182 174.44 5.03121C174.43 5.03294 175.114 5.07688 175.124 5.07893C175.164 5.10164 174.402 5.06308 174.489 5.08515C174.677 5.09507 174.866 5.10479 175.054 5.11431C174.327 5.11368 172.983 5.05916 172.635 5.07004C173.713 5.10078 174.84 5.13442 174.837 5.18424C174.836 5.20537 174.37 5.20508 174.388 5.21099C174.456 5.23247 175.103 5.22856 175.126 5.23014C175.146 5.23181 175.155 5.23317 175.155 5.23427C175.155 5.23427 175.155 5.23427 175.155 5.23427C175.155 5.23427 175.155 5.23427 175.155 5.23428C175.155 5.23428 175.155 5.23428 175.155 5.23428C175.154 5.24564 174.234 5.22941 174.188 5.23313C174.11 5.2404 174.519 5.28947 174.518 5.29768C174.504 5.29909 173.848 5.29098 174.069 5.31158C174.292 5.3325 174.866 5.34651 174.886 5.34843C174.995 5.35993 173.992 5.34385 173.961 5.34811C173.946 5.35053 174.484 5.38004 174.5 5.38491C174.513 5.38993 174.103 5.39053 173.941 5.40159C173.821 5.40988 174.171 5.42667 174.109 5.42693C174.065 5.42737 173.117 5.40393 173.07 5.40442C173 5.4056 173.222 5.42485 173.19 5.42739C173.144 5.43116 172.838 5.4184 172.877 5.42446C172.907 5.42978 174.094 5.50402 174.086 5.51525C174.072 5.536 172.814 5.46067 173.983 5.56833C173.991 5.56905 174.276 5.56879 174.284 5.56942C174.46 5.58761 173.546 5.59424 174.663 5.61032C172.584 5.59814 174.404 5.63725 174.095 5.66642C173.976 5.67803 173.17 5.6689 173.166 5.67071C173.244 5.68971 173.501 5.68095 173.588 5.691C173.636 5.69666 172.915 5.70182 173.076 5.71684C173.16 5.72481 173.926 5.7356 173.957 5.7371C174.26 5.75295 173.888 5.75921 173.955 5.76818C173.999 5.77425 174.461 5.78119 174.473 5.78223C174.492 5.7845 173.864 5.7971 173.733 5.80269C173.634 5.80711 174.007 5.82158 173.937 5.8231C173.519 5.83279 172.631 5.77953 173.486 5.84759C173.538 5.85173 173.862 5.85479 173.872 5.85555C174.072 5.87354 173.475 5.86705 173.368 5.8782C173.184 5.89776 174.042 5.89676 173.329 5.90282C173.863 5.92418 174.161 5.92682 174.787 5.92876C173.054 5.92156 172.44 5.97161 174.365 5.98967C173.753 5.98326 173.82 6.01533 173.637 6.01419C173.523 6.01374 172.637 5.97123 173.042 6.04805C173.092 6.05769 173.632 6.05149 173.463 6.06812C172.168 6.05056 173.435 6.07983 173.436 6.08191C173.418 6.12709 170.255 6.05267 169.712 6.04305C169.081 6.03708 168.519 6.06174 168.382 6.05892C167.931 6.04909 168.306 6.0384 168.205 6.02924C168.103 6.02039 166.819 6.02596 166.755 6.02197C166.507 6.0073 166.76 5.99079 166.734 5.98898C166.427 5.96756 164.704 5.93541 164.222 5.91316C164.236 5.92963 165.205 5.96096 164.599 5.96717C163.893 5.97457 163.857 5.90336 163.839 5.89972C160.614 5.79187 157.392 5.64656 154.172 5.47175C154.209 5.51815 156.317 5.59539 156.364 5.60247C156.643 5.65129 153.086 5.46544 152.651 5.42167C152.982 5.45005 153.312 5.478 153.643 5.50552C153.073 5.52534 151.826 5.38892 151.006 5.36246C150.741 5.35423 151.247 5.40428 151.236 5.40495C150.938 5.40775 150.462 5.36381 150.821 5.35788C150.093 5.34057 150.201 5.3181 149.645 5.28174C149.616 5.27989 149.854 5.31588 149.413 5.29767C149.206 5.28936 148.106 5.22023 147.957 5.22966C147.895 5.23402 148.447 5.35312 148.522 5.28512C149.716 5.39433 148.907 5.27622 149.372 5.30665C149.443 5.31124 149.276 5.34179 150.448 5.39319C150.22 5.45131 148.875 5.31662 148.643 5.31036C148.165 5.29955 150.127 5.45629 150.492 5.42134C150.319 5.46667 150.631 5.43708 151.068 5.46477C151.548 5.49487 151.338 5.49907 151.597 5.51393C152.307 5.55427 152.015 5.49976 152.598 5.56641C152.035 5.42893 153.6 5.60827 154.057 5.65807C153.311 5.62459 152.565 5.58967 151.819 5.55342C151.861 5.56142 151.904 5.5694 151.946 5.57737C151.749 5.56569 151.553 5.5539 151.357 5.54199C151.389 5.53835 151.421 5.53472 151.453 5.53109C150.438 5.50898 150.194 5.45395 150.111 5.44867C149.049 5.3814 147.822 5.30572 146.749 5.2362C146.588 5.22554 146.695 5.2711 145.524 5.16425C145.15 5.12991 145.506 5.12398 145.081 5.09993C144.544 5.14486 144.559 5.08113 144.401 5.07023C143.949 5.03936 143.67 5.04042 143.628 5.03778C143.068 5.00246 142.249 4.94154 141.635 4.90061C141.623 4.90012 141.941 4.94859 141.542 4.91254C141.402 4.90035 140.155 4.69843 139.054 4.65177C139.339 4.68086 139.624 4.70974 139.909 4.73842C139.755 4.72222 139.177 4.68258 138.651 4.65092C138.032 4.61376 137.485 4.59049 137.794 4.62961C137.992 4.65466 138.355 4.66228 138.648 4.67871C138.874 4.69136 139.059 4.7087 139.097 4.74204C138.999 4.73204 138.843 4.71865 138.646 4.70271C137.292 4.58946 133.96 4.38848 133.669 4.35753C133.623 4.35208 133.91 4.34654 133.846 4.33938C133.797 4.33358 132.809 4.2766 132.678 4.25946C132.601 4.24904 133.039 4.26158 133.004 4.25073C132.973 4.24225 131.74 4.15545 131.667 4.18217C131.971 4.18798 132.822 4.25136 132.373 4.24934C132.316 4.24898 132.019 4.21118 131.949 4.21101C131.299 4.20893 133.235 4.31772 133.534 4.33818C132.317 4.29873 130.437 4.14113 129.027 4.09115C128.46 4.03411 129.874 4.09763 129.232 4.04077C127.898 3.92319 128.873 4.05748 128.832 4.05841C128.498 4.0668 127.377 3.86557 127.369 3.97422C126.885 3.93331 127.043 3.9272 126.358 3.90767C126.447 3.91967 126.537 3.93168 126.626 3.9437C125.862 3.96922 124.266 3.73429 124.387 3.72722C124.713 3.70876 125.546 3.80006 125.618 3.80232C125.723 3.80558 126.024 3.70786 127.176 3.86624C127.656 3.81615 125.343 3.72318 126.398 3.72548C125.686 3.69574 122.77 3.50811 122.346 3.52584C122.296 3.52819 122.525 3.61438 121.805 3.5454C121.463 3.51258 122.29 3.54595 122.134 3.52201C121.655 3.43783 115.088 3.24007 113.839 3.2223C113.758 3.22027 113.789 3.19584 113.709 3.19399C113.465 3.18806 112.572 3.20364 112.135 3.18211C113.04 3.25011 111.28 3.21317 110.832 3.19961C110.153 3.17796 110.196 3.13369 109.903 3.11834C108.771 3.0584 107.015 3.14137 106.138 3.02845C106.184 3.13091 104.618 2.96031 103.903 2.95338C103.344 2.94748 102.532 3.01085 103.286 3.05786C102.321 3.04605 101.304 3.06085 100.398 3.06536C100.248 3.06611 100.455 3.03546 100.199 3.03775C100.176 3.03819 100.144 3.06856 99.9243 3.07144C98.1138 3.09702 98.9954 3.03279 98.6569 3.01347C98.4675 3.00284 98.3276 2.99764 98.225 2.99599C99.2802 2.98843 100.498 2.97948 100.824 2.97987C100.547 2.91085 98.4841 2.98831 97.8806 2.97228C97.8597 2.97164 97.933 2.93406 97.9117 2.93382C97.9113 2.93382 97.9108 2.93382 97.9104 2.93383C97.6841 2.93077 96.2427 2.94923 96.539 2.99333C96.6186 3.00504 97.282 3.00223 98.0687 2.99707C97.8557 3.00578 98.0142 3.0475 97.9766 3.04934C97.5209 3.0707 96.405 3.03359 96.009 3.03019C95.9185 3.02942 95.9248 3.05652 95.9099 3.05666C95.5498 3.05247 95.698 2.97401 95.328 3.05624C94.6764 2.96318 96.5506 3.03507 96.4189 2.97361C96.3174 2.92246 92.154 2.97957 92.1663 3.06021C92.1519 3.05211 92.0946 3.0425 91.9772 3.03217C91.7167 3.00892 90.5577 3.03168 90.3579 3.04909C90.3241 3.05238 90.3379 3.12763 90.296 3.12892C90.1914 3.13191 88.775 3.0941 88.2462 3.14866C88.532 3.15432 88.8177 3.16014 89.1033 3.16611C87.3784 3.19581 87.6451 3.21504 88.22 3.22709C88.2488 3.22679 88.2767 3.22918 88.3042 3.229C88.7497 3.23786 89.3208 3.24467 89.3295 3.25052C89.3623 3.27118 86.4363 3.33849 86.9985 3.25749C87.0769 3.24596 88.4311 3.25233 87.7604 3.21432C87.643 3.20749 86.7735 3.23869 86.7277 3.23418C86.4217 3.20264 88.3205 3.11773 88.0881 3.07004C87.6274 3.12799 87.0356 3.11274 86.5071 3.13627C86.2666 3.14694 86.2079 3.18656 86.1783 3.18789C85.735 3.20715 85.9834 3.16172 85.8354 3.16582C85.7559 3.16798 84.8831 3.27315 85.0469 3.15108C82.1686 3.30615 84.2517 3.25441 86.0175 3.21042C85.46 3.26493 84.3657 3.26909 83.8749 3.29126C83.6988 3.29921 83.8037 3.3363 83.5063 3.35166C82.894 3.38174 79.9699 3.41777 79.2079 3.43229C79.6754 3.40357 79.5377 3.36405 79.1767 3.37825C78.8157 3.39258 79.1203 3.44157 79.0499 3.45006C78.9746 3.45849 77.28 3.48622 76.9984 3.50407C78.2731 3.43961 77.9845 3.4054 76.9019 3.43751C77.0581 3.41949 77.2143 3.40153 77.3704 3.38363C76.7364 3.42241 75.4007 3.40273 75.0344 3.43651C74.977 3.44185 75.1847 3.47134 75.1524 3.47434C74.8311 3.5017 73.7357 3.5055 73.6851 3.52034C73.6423 3.53256 74.1099 3.54573 73.9372 3.56776C73.9011 3.57239 73.4496 3.53944 73.0067 3.56946C72.8424 3.58057 72.9425 3.61188 72.9011 3.61558C72.5564 3.64644 72.7583 3.57869 72.1276 3.61399C71.6656 3.64006 71.3232 3.71262 70.6837 3.7208C72.7836 3.70617 71.0194 3.74894 70.1433 3.81026C70.0029 3.82011 70.1256 3.87883 69.2849 3.88522C71.0676 3.68906 68.7733 3.84585 68.3034 3.86713C68.2776 3.86793 68.2672 3.82573 68.0368 3.83578C68.0173 3.83673 68.0464 3.86419 67.8324 3.87644C65.8025 3.99398 67.0997 3.89964 66.7128 3.8896C66.548 3.88525 65.5623 3.97468 65.2964 3.98924C65.2353 3.99243 65.2622 3.96094 65.0256 3.97407C64.6072 3.99739 64.2334 4.04878 63.9572 4.0657C63.925 4.06756 63.9216 4.01998 63.3986 4.06293C63.2515 4.075 63.0869 4.10066 63.2966 4.10325C63.9921 4.11123 65.3045 3.96615 66.0902 3.97253C66.8065 3.97765 64.5531 4.09375 64.4357 4.10086C64.3927 4.10321 64.8319 4.05702 64.3844 4.07535C64.0023 4.09107 63.3079 4.20971 62.7381 4.22248C62.6947 4.22346 62.2368 4.17833 62.2576 4.17314C62.2765 4.16906 62.9741 4.11641 62.8718 4.10172C62.8596 4.10004 62.4158 4.12434 62.3572 4.11248C62.2854 4.09804 62.0859 3.9289 61.9909 3.92953C61.7471 3.93162 61.9073 3.96397 61.7498 3.96969C61.4121 3.98186 60.2395 3.99399 60.2043 4.05869C60.3978 4.05146 60.5913 4.0443 60.7848 4.03721C59.7094 4.10399 60.1692 4.10495 60.0174 4.1252C59.8539 4.14721 59.8974 4.0897 59.5344 4.10532C59.4554 4.10835 57.9389 4.20852 57.9678 4.23026C58.8047 4.14397 58.4972 4.23033 58.536 4.22922C58.6832 4.225 58.8689 4.17598 59.0662 4.1653C60.4537 4.0913 59.0577 4.23187 59.3859 4.22846C59.4989 4.22714 59.7219 4.18179 59.7698 4.18073C59.9254 4.17722 59.9301 4.21957 60.0336 4.21022C60.2751 4.18849 59.9897 4.14444 60.0087 4.14022C60.2232 4.0902 61.0724 4.08952 60.5483 4.18447C60.8659 4.19024 60.8992 4.10877 61.1517 4.12657C61.6536 4.16177 60.9053 4.187 60.7034 4.2089C59.9787 4.28756 59.7615 4.26912 58.7336 4.3396C58.3635 4.36496 57.9268 4.42977 57.7552 4.4422C57.6471 4.44989 56.6182 4.37699 56.5994 4.58998C56.2015 4.59389 55.5704 4.49349 55.1614 4.52564C54.7943 4.55461 54.9153 4.62202 54.8812 4.62707C54.8289 4.63491 54.3843 4.65729 54.2347 4.67753C54.0593 4.70132 54.1488 4.7242 53.8702 4.75385C53.1768 4.82775 53.1907 4.75041 53.1189 4.75007C52.2863 4.74714 52.6558 4.83203 52.4723 4.85287C52.3022 4.8714 49.8982 4.99217 49.395 5.05589C49.5996 5.02621 49.8043 4.99661 50.0089 4.96709C49.638 4.94477 49.2529 5.04989 49.2406 4.96479C49.1747 5.10811 48.4096 5.06921 48.1818 5.08909C48.092 5.09696 48.1006 5.12001 47.9882 5.12905C47.5494 5.16436 46.5566 5.21754 46.3191 5.24707C45.2913 5.37387 47.9339 5.26685 48.1411 5.25822C47.7263 5.28544 45.3773 5.4884 46.4622 5.4758C46.6299 5.47383 46.9217 5.39043 47.0154 5.38122C47.6493 5.31934 47.1535 5.4109 47.2037 5.41257C47.2889 5.41493 47.7031 5.33126 47.8137 5.32978C47.8506 5.32922 47.6171 5.39626 48.2222 5.35414C47.9281 5.42353 46.2237 5.50729 46.0013 5.53557C45.9221 5.54566 46.4273 5.61227 44.9648 5.6196C44.9824 5.62799 44.9999 5.63639 45.0174 5.64478C44.6278 5.67582 44.2383 5.7071 43.8489 5.73862C43.4285 5.77264 43.008 5.80665 42.5871 5.84068C42.6737 5.81177 43.1258 5.73251 42.553 5.78555C42.2233 5.81612 42.4711 5.84707 42.4411 5.8508C42.1455 5.88714 36.9033 6.26773 35.8876 6.34942C35.5422 6.3773 34.5825 6.48839 34.5092 6.49453C34.0699 6.53132 32.5118 6.62276 32.2021 6.65131C32.0086 6.66921 32.1961 6.69499 32.0229 6.70601C31.8618 6.71619 32.0253 6.66566 31.9774 6.66762C31.5809 6.68387 28.5771 6.95602 27.8597 6.97363C28.2967 6.95236 30.4705 6.71568 30.4237 6.69197C30.414 6.68899 29.8822 6.70037 29.774 6.72251C29.5906 6.70391 28.9793 6.84858 28.6406 6.85439C28.6023 6.8551 28.7476 6.78909 28.1453 6.82457C27.9378 6.83695 27.3991 6.91956 26.8491 6.91372C26.0626 6.9948 21.8967 7.24107 21.6182 7.31563C21.61 7.319 22.1967 7.29411 21.8035 7.34525C21.2808 7.41299 21.7437 7.28024 21.1296 7.31781C21.0369 7.3236 19.3319 7.46075 19.2768 7.47051C18.7653 7.56087 20.2577 7.47307 20.2375 7.48098C20.187 7.5006 18.9495 7.59952 18.8989 7.59946C18.8506 7.59946 19.8536 7.45617 18.6429 7.57126C18.7826 7.56931 18.9224 7.56742 19.0622 7.56559C18.4931 7.62301 18.4342 7.57951 18.2957 7.58681C17.865 7.60969 17.4084 7.71277 16.7099 7.67742C16.5254 7.66824 16.8255 7.62067 16.8023 7.6189C16.5804 7.60498 16.309 7.70661 15.9739 7.67107C15.9487 7.66864 16.711 7.5746 15.3724 7.67595C15.4651 7.67462 15.5578 7.67334 15.6505 7.67209C15.4629 7.69918 14.1088 7.80766 13.9264 7.81829C13.3934 7.84965 13.8535 7.77614 13.3192 7.82118C13.6681 7.84848 12.0404 7.97537 12.1293 7.92492C11.9073 7.99673 10.5193 8.05696 9.86946 8.10463C9.45915 8.13462 8.62595 8.21763 8.49465 8.22461C8.3353 8.23326 8.3801 8.19682 8.09226 8.21112C8.0102 8.2156 7.15807 8.30167 6.40528 8.32615C6.25936 8.33078 5.94897 8.30389 6.21744 8.27021C6.67684 8.21179 7.55568 8.18563 7.54117 8.15494C7.52433 8.12193 6.34924 8.23598 6.03218 8.25668C4.56832 8.3542 5.40895 8.25486 5.37018 8.24738C5.27004 8.23118 4.47209 8.29893 4.43862 8.29961C4.29964 8.30212 4.86299 8.23598 4.86995 8.22067C4.87817 8.20061 4.1056 8.23515 4.27966 8.2138C4.52911 8.18251 5.23861 8.148 5.28339 8.14293C5.86474 8.07266 5.06021 8.09904 4.83775 8.09877C4.77027 8.09845 5.03511 8.06299 4.97954 8.06618C4.13142 8.11617 4.80831 8.14309 4.24515 8.18829C3.74184 8.22884 4.38575 8.14252 4.36617 8.14253C4.34134 8.14311 3.74009 8.1972 3.64507 8.19659C3.59881 8.19712 5.15234 7.99567 5.08405 7.9757C4.5878 8.02949 4.09094 8.08309 3.59324 8.13647C3.55079 8.11003 4.26974 8.06241 4.34345 8.05221C4.49175 8.0311 4.07429 8.0559 4.091 8.04445C4.09991 8.03745 4.58553 7.9658 4.14356 8.00097C3.99169 8.01334 3.67592 8.06634 3.12196 8.10097C5.03899 7.87771 3.70638 7.99518 3.64866 7.99125C3.59208 7.98667 4.5056 7.86359 3.39384 7.98643C3.33919 7.9334 3.41575 7.96542 3.73062 7.92104C4.11609 7.86633 3.22023 7.94341 4.63526 7.80502C4.55255 7.78414 3.41533 7.91194 3.35506 7.91645C3.30288 7.92028 3.55405 7.87873 3.46346 7.88419C2.39237 7.95213 3.12671 7.89346 2.8146 7.89586C2.78675 7.89582 1.77956 8.00187 2.54483 7.90749C3.93931 7.7343 4.52816 7.70938 4.752 7.59293C3.7171 7.67782 2.47103 7.8834 2.15795 7.92039C1.67817 7.97908 2.17357 7.90396 2.11394 7.9066C2.09323 7.90766 1.67991 7.95902 1.67424 7.9585C1.37282 7.9372 3.51488 7.733 4.18786 7.64355C4.00625 7.6553 3.8247 7.66737 3.64323 7.67978C3.88786 7.64957 4.13309 7.61937 4.37733 7.58935C3.20902 7.71136 4.33645 7.58749 4.61961 7.49687C4.68337 7.47638 3.9215 7.59304 4.78951 7.44987C4.14568 7.52267 4.34976 7.48631 3.76795 7.57499C3.78146 7.55245 5.08878 7.36057 5.60435 7.28265C3.77598 7.49243 4.82692 7.43713 3.2417 7.5998C2.95142 7.66265 3.70526 7.56084 3.64424 7.57304C3.42511 7.61598 2.90515 7.65998 2.28689 7.78922C2.1862 7.81003 2.61885 7.78132 1.98262 7.85953C1.91222 7.868 1.50477 7.8985 1.51025 7.89646C1.56215 7.87373 1.9637 7.82857 1.9795 7.81966C1.99429 7.81117 1.5475 7.87232 1.54578 7.87078C1.52978 7.85258 1.91802 7.81507 1.86113 7.81599C1.73809 7.81657 0.125524 7.98719 2.22549 7.72247C0.484817 7.97465 2.00448 7.77416 2.68301 7.67705C2.85602 7.6522 2.89845 7.63355 3.14489 7.59669C3.46187 7.54918 3.83456 7.50722 3.99878 7.48341C4.17505 7.45744 3.1677 7.55624 4.62049 7.37602C3.87878 7.43951 2.57523 7.6469 1.84809 7.72377C0.380764 7.88362 2.86242 7.53425 3.1214 7.49447C3.19024 7.48383 2.95703 7.49787 3.00289 7.4905C3.0775 7.47798 4.49047 7.29351 4.62651 7.2591C4.76317 7.22422 4.11104 7.33024 4.06516 7.32017C4.03535 7.31349 5.73122 7.05854 4.8109 7.17798C4.17793 7.26132 3.01022 7.46709 2.80894 7.45104C3.74197 7.31462 4.67453 7.17955 5.6062 7.04595C5.0935 7.09748 4.58206 7.15087 4.06951 7.20648C5.11489 7.04956 6.02145 6.94454 7.01353 6.77638C4.61654 7.05026 7.78366 6.61309 7.81831 6.60051C7.82931 6.59323 6.88228 6.67345 6.73007 6.68666C7.56187 6.54397 10.0926 6.16771 8.6044 6.31099C8.87462 6.28772 9.52112 6.15279 9.51223 6.15076C9.42604 6.13005 8.00957 6.36132 8.23766 6.2992C8.50329 6.2263 8.88278 6.21436 9.29523 6.15011C11.4116 5.82166 10.812 5.72607 12.9415 5.44193C12.8986 5.44136 12.8557 5.44082 12.8128 5.44032C15.122 5.11252 17.439 4.80345 19.7547 4.51384C20.6554 4.32662 23.0614 3.97386 24.2488 3.83857C24.4875 3.81038 25.6648 3.70857 25.7533 3.7056C25.9185 3.69934 25.0177 3.81105 25.4272 3.7874C25.5137 3.78103 27.4995 3.56852 27.3541 3.54286C27.1311 3.56321 26.4369 3.66485 26.3222 3.66828C25.5138 3.68311 31.6443 3.05433 31.9458 3.00416C31.8089 3.00377 31.672 3.00349 31.535 3.00333C31.9223 2.96977 32.3097 2.93679 32.6973 2.9044ZM15.2358 7.82291C15.0071 7.87379 14.4229 7.88984 14.0803 7.92385C13.6069 7.97161 12.813 8.15153 13.1476 8.00279C13.8434 7.94367 14.5394 7.88368 15.2358 7.82291ZM25.4295 7.13748C24.9599 7.14963 25.3144 7.03344 25.7011 7.04199C25.744 7.04298 26.0648 7.12116 25.4295 7.13748ZM20.5262 7.45569C20.5458 7.45315 20.9501 7.42578 20.9644 7.42605C21.33 7.43324 20.1108 7.51494 20.5262 7.45569ZM44.1747 5.63058C43.6608 5.67392 44.0395 5.73749 44.3566 5.67557C44.3765 5.67165 44.2085 5.6278 44.1747 5.63058ZM43.8088 5.65588C43.4038 5.60397 42.6109 5.8318 43.2493 5.76641C43.3112 5.76001 43.8275 5.65848 43.8088 5.65588ZM23.7601 7.22493C23.8102 7.19375 24.2934 7.17121 24.4999 7.16262C24.4966 7.18824 23.9617 7.20696 23.7601 7.22493ZM35.9751 6.30351C35.9934 6.2777 34.3208 6.40567 34.2087 6.44588C34.4724 6.41247 35.9574 6.32678 35.9751 6.30351ZM40.2652 5.94373C40.2225 5.94269 39.6449 5.99308 39.6634 6.01352C39.9477 6.02065 40.4576 5.94855 40.2652 5.94373ZM48.7971 5.3102C48.8282 5.30257 48.3862 5.19372 49.4183 5.21332C49.5698 5.21618 49.034 5.29018 49.0878 5.29145C49.2005 5.29331 49.2894 5.29164 49.3607 5.28747C48.8835 5.3324 48.3875 5.3731 48.3389 5.36808C48.1109 5.34423 48.7834 5.31342 48.7971 5.3102ZM53.2716 4.90193C53.3688 4.87279 53.9986 4.84405 54.1424 4.84422C54.1671 4.84439 54.0632 4.91075 54.3463 4.8881C54.5735 4.86986 54.2303 4.83067 54.674 4.81211C55.1224 4.79338 54.5265 4.87487 54.5658 4.8755C54.6184 4.87614 55.3096 4.80486 55.29 4.84168C55.2754 4.86885 54.5323 4.89823 54.3492 4.91568C54.1147 4.93795 54.402 4.96332 54.0088 4.97926C53.7618 4.98935 53.8942 4.9036 53.8419 4.90308C53.798 4.90267 52.9382 5.00329 53.273 4.90209C53.2725 4.90204 53.2721 4.90199 53.2716 4.90193ZM49.4898 5.27503C49.454 5.28014 49.4118 5.28448 49.3607 5.28747C49.404 5.28339 49.4471 5.27916 49.4898 5.27503ZM16.5849 7.69956C16.8299 7.69991 16.1102 7.77506 15.8346 7.77164C15.828 7.75344 16.5459 7.6996 16.5849 7.69956ZM49.9292 5.18145C50.6405 5.15175 50.1198 5.21411 49.4898 5.27503C49.6892 5.24655 49.6903 5.19153 49.9292 5.18145ZM29.774 6.72251C29.8044 6.72563 29.8241 6.73257 29.8277 6.74616C29.7476 6.73702 29.7399 6.72948 29.774 6.72251ZM31.4324 6.62255C31.9966 6.53709 30.8432 6.62602 30.8531 6.65573C30.8575 6.66691 31.4098 6.62596 31.4324 6.62255ZM44.8346 5.58531C44.7824 5.58484 45.5798 5.38876 44.4155 5.57838C45.0417 5.54734 44.3832 5.61168 44.3938 5.62284C44.4216 5.6549 45.4694 5.5435 45.703 5.5412C45.8809 5.46664 45.0069 5.58682 44.8359 5.58521C44.8355 5.58524 44.835 5.58527 44.8346 5.58531ZM61.352 4.44513C61.2112 4.48845 60.759 4.50238 60.454 4.51765C60.5947 4.47408 61.047 4.45999 61.352 4.44513ZM141.154 4.89226C139.059 4.76283 138.797 4.64452 140.708 4.82365C140.746 4.82725 141.282 4.89178 141.154 4.89226ZM123.242 3.78129C123.048 3.72378 123.7 3.74395 124.126 3.78334C124.223 3.79222 124.578 3.85744 124.169 3.84885C124.185 3.79048 123.555 3.73957 123.242 3.78129ZM50.328 5.11313C50.5322 5.05655 51.1708 5.04319 51.5067 5.02697C51.304 5.07552 50.6254 5.10588 50.328 5.11313ZM134.298 4.35069C134.078 4.33285 133.927 4.3622 133.965 4.36789C134.133 4.39363 134.546 4.38921 134.298 4.35069ZM48.2731 5.25029C48.2424 5.22698 49.0837 5.14307 49.1464 5.20156C48.9659 5.20961 48.295 5.26462 48.2731 5.25029ZM60.7762 4.45853C60.6446 4.45312 61.3217 4.39221 61.5274 4.39357C61.5122 4.42108 60.8624 4.46191 60.7762 4.45853ZM130.757 4.14496C130.56 4.12995 130.068 4.10073 130.012 4.11404C129.943 4.13052 130.665 4.16459 130.757 4.14496ZM167.535 6.14611C167.559 6.15112 166.791 6.1669 166.45 6.15036C165.804 6.11893 167.508 6.1431 167.535 6.14611ZM136.381 4.47257C136.999 4.55253 136.313 4.46882 136.336 4.5089C136.754 4.53917 137.792 4.61607 137.082 4.52746C136.943 4.51023 136.576 4.4887 136.381 4.47257ZM135.81 4.41979C135.742 4.42749 135.291 4.43612 135.678 4.45977C135.857 4.47062 136.149 4.44731 135.81 4.41979ZM162.783 6.02682C162.225 5.98531 164.791 6.08019 164.865 6.08418C164.904 6.08741 164.929 6.09013 164.944 6.09223C165.038 6.08766 165.523 6.09967 165.579 6.11923C165.433 6.11397 165.036 6.10477 164.99 6.10141C164.97 6.09999 164.956 6.09876 164.945 6.09765C164.773 6.11003 162.89 6.03614 162.783 6.02682ZM158.532 5.83814C159.175 5.82824 159.284 5.89633 159.229 5.8961C158.53 5.89316 158.988 5.865 158.967 5.86197C158.918 5.85627 158.422 5.85697 158.534 5.83823C158.534 5.8382 158.533 5.83817 158.532 5.83814ZM161.912 5.98692C161.938 5.98715 162.476 6.00774 162.498 6.00936C162.938 6.04479 161.416 5.98698 161.912 5.98692ZM56.6456 4.60222C57.0295 4.59091 56.6559 4.65882 56.4004 4.65837C56.3794 4.65807 56.3069 4.61224 56.6456 4.60222ZM135.503 4.40716C135.415 4.39389 133.147 4.22129 133.279 4.27964C133.472 4.28443 136.051 4.48169 135.503 4.40716ZM118.524 3.5298C118.925 3.54394 118.485 3.58033 118.272 3.55408C118.193 3.54429 118.423 3.52626 118.524 3.5298ZM47.1329 5.27341C46.7191 5.33894 46.7973 5.21408 47.1608 5.2286C47.1751 5.22917 47.1491 5.27085 47.1329 5.27341ZM121.725 3.67761C120.342 3.6544 120.676 3.50471 122.472 3.6332C122.416 3.63789 122.359 3.6426 122.302 3.64733C124.376 3.75929 122.444 3.66363 121.935 3.65236C121.742 3.64791 121.902 3.68103 121.727 3.67785C121.726 3.67777 121.726 3.67769 121.725 3.67761ZM116.415 3.4591C115.089 3.30165 117.628 3.45421 118.358 3.46547C117.649 3.48919 116.728 3.45312 117.978 3.54259C116.146 3.4936 116.911 3.47196 116.838 3.46548C116.752 3.45843 116.472 3.46582 116.415 3.4591ZM119.929 3.57564C120.006 3.57508 120.584 3.61998 120.793 3.62427C120.499 3.65173 119.417 3.57974 119.929 3.57564ZM154.075 5.64319C154.125 5.62398 154.246 5.61453 154.705 5.64625C154.562 5.64976 154.268 5.64393 154.075 5.64319ZM14.7804 7.70746C14.4648 7.72938 13.8361 7.76676 14.0315 7.78096C14.0528 7.78184 14.7811 7.72412 14.7804 7.70746ZM128.91 3.97825C128.843 3.97033 127.111 3.87646 127.707 3.93988C127.887 3.95822 129.463 4.03954 128.91 3.97825ZM137.875 4.55774C137.73 4.54665 137.142 4.50879 137.128 4.51424C137.087 4.53293 137.81 4.57345 137.875 4.55774ZM13.1874 7.80065C13.1462 7.80102 12.182 7.87973 12.2894 7.88419C12.4933 7.89297 13.3309 7.79955 13.1874 7.80065ZM58.0355 4.42765C58.1159 4.42144 58.2245 4.45696 58.2524 4.45577C58.3178 4.45217 59.7907 4.3502 59.2303 4.43665C59.1368 4.45045 57.0159 4.55597 56.7401 4.56824C56.6304 4.51716 57.5387 4.5168 57.7587 4.49782C57.7975 4.49437 57.8199 4.44479 58.0348 4.42793C58.035 4.42784 58.0353 4.42775 58.0355 4.42765ZM156.47 5.74032C156.537 5.72419 158.277 5.79175 158.255 5.81348C157.66 5.79013 157.065 5.76573 156.47 5.74032ZM155.588 5.69404C155.218 5.66135 156.087 5.69997 156.342 5.71833C156.344 5.73193 155.641 5.69893 155.588 5.69404ZM134.603 4.23091C134.429 4.22545 134.961 4.29917 134.84 4.29835C134.763 4.29768 134.376 4.25745 134.251 4.26107C134.216 4.26247 134.609 4.32421 134.724 4.33039C134.887 4.3393 134.731 4.30091 134.909 4.31274C135.499 4.35219 136.02 4.40818 136.572 4.44702C136.622 4.45049 136.237 4.40363 136.663 4.43427C136.728 4.43903 137.121 4.49577 137.63 4.5289C137.995 4.52721 138.328 4.54203 138.659 4.56531C139.356 4.61454 140.045 4.69851 141.017 4.7489C140.964 4.73718 139.895 4.63603 139.832 4.63026C139.502 4.60149 139.099 4.568 138.662 4.5323C137.524 4.43904 136.156 4.33942 135.252 4.27712C134.931 4.25493 135.085 4.28475 134.947 4.27599C134.837 4.26909 134.97 4.24247 134.603 4.23091ZM14.9459 7.67444C14.7919 7.64933 14.267 7.71317 13.9303 7.73703C14.052 7.76018 14.616 7.69166 14.9459 7.67444ZM147.788 5.22678C147.619 5.21725 147.095 5.17403 147.051 5.18049C146.994 5.18919 147.751 5.24548 147.788 5.22678ZM66.3463 3.9904C66.3626 3.98822 66.7688 3.97109 66.7842 3.97194C67.1486 3.99413 65.9302 4.04541 66.3463 3.9904ZM76.0636 3.58689C76.3715 3.56981 76.6819 3.54374 76.7864 3.57965C76.59 3.58037 76.0282 3.61571 76.0636 3.58689ZM89.4737 3.23624C89.4098 3.1873 90.3374 3.20535 90.5126 3.20746C90.4478 3.23023 89.5205 3.27122 89.4737 3.23624ZM154.015 5.54527C154.583 5.57733 154.467 5.52569 154.826 5.56515C154.885 5.57167 155.068 5.67534 154.446 5.60776C154.334 5.59541 154.775 5.5965 154.015 5.54527ZM122.765 3.64692C122.911 3.62547 123.361 3.65318 123.665 3.66896C123.595 3.68616 122.982 3.65408 122.765 3.64692ZM11.4435 7.90714C11.174 7.89502 9.94848 8.01458 10.2546 8.01165C10.298 8.01121 11.2709 7.91937 11.4435 7.90714ZM51.7582 4.85339C52.2608 4.78012 51.214 4.83791 50.8862 4.89913C51.0355 4.88635 51.7243 4.85821 51.7582 4.85339ZM86.2518 3.26829C86.2761 3.26622 86.8121 3.25886 86.8362 3.26025C87.2758 3.28987 85.759 3.31111 86.2518 3.26829ZM72.8659 3.64516C73.0581 3.60553 74.3285 3.58153 74.6139 3.60258C74.3413 3.65839 72.6276 3.69397 72.8659 3.64516ZM151.676 5.42811C152.082 5.45056 152.466 5.47813 152.837 5.50679C152.758 5.5183 151.718 5.44274 151.676 5.42811ZM88.22 3.22709C88.2488 3.22679 88.2767 3.22918 88.3042 3.229C88.2755 3.22843 88.2474 3.22769 88.22 3.22709ZM142.611 4.82521C142.273 4.79379 142.34 4.8313 142.361 4.83381C142.615 4.86264 142.995 4.8606 142.611 4.82521ZM14.5535 7.65059C14.4328 7.62731 13.8658 7.69703 13.5375 7.71497C13.635 7.73247 14.2898 7.67463 14.5535 7.65059ZM114.992 3.3423C114.568 3.28974 116.302 3.29319 116.665 3.33118C116.691 3.35584 115.054 3.34882 114.992 3.3423ZM50.1858 4.89212C50.1497 4.85894 49.4257 4.95208 49.5811 4.95815C49.6795 4.96196 50.2075 4.91271 50.1858 4.89212ZM117.536 3.37589C117.699 3.37252 118.077 3.4134 117.942 3.42602C117.77 3.44224 117.493 3.37701 117.536 3.37589ZM132.126 4.04702C132.055 4.03838 131.097 4.00613 131.49 4.05637C131.763 4.09116 131.809 4.05698 131.873 4.06084C131.945 4.06506 133.475 4.20669 132.126 4.04702ZM105.29 3.13162C105.651 3.12357 106.088 3.14225 106.466 3.14612C106.311 3.16287 105.443 3.15827 105.29 3.13162ZM52.9878 4.6943C52.8995 4.685 50.5122 4.83631 51.8709 4.78949C51.95 4.78644 53.2564 4.72006 52.9878 4.6943ZM154.015 5.54527C153.944 5.5412 153.861 5.5358 153.765 5.52864C153.86 5.53457 153.943 5.54038 154.015 5.54527ZM147.564 5.15859C147.696 5.15142 147.038 5.10418 146.843 5.09967C146.781 5.11522 147.546 5.15972 147.564 5.15859ZM106.495 3.11551C106.713 3.10555 107.108 3.12439 107.378 3.12677C107.332 3.14653 106.589 3.13756 106.495 3.11551ZM91.1976 3.09601C91.6303 3.10354 92.1627 3.09141 92.1709 3.0644C92.1799 3.06851 92.2009 3.07275 92.2357 3.07685C92.2709 3.08087 92.7344 3.06334 92.9358 3.07055C94.1413 3.10954 88.2803 3.15964 91.6772 3.04036C91.5173 3.05882 91.3574 3.07737 91.1976 3.09601ZM71.146 3.64875C70.8994 3.62417 70.2135 3.69762 70.3923 3.70367C70.5169 3.70755 71.3928 3.67336 71.146 3.64875ZM80.5917 3.29087C80.5181 3.28681 79.8473 3.33055 79.8303 3.34915C80.2166 3.35634 80.9265 3.30946 80.5917 3.29087ZM69.2579 3.69012C69.1037 3.69173 68.9092 3.75708 68.9273 3.75872C69.0846 3.77217 69.5177 3.70992 69.2579 3.69012ZM152.845 5.39245C152.616 5.37003 151.882 5.35126 151.721 5.36388C151.691 5.35788 151.612 5.34765 151.466 5.33229C151.466 5.33232 151.467 5.33234 151.467 5.33237C151.269 5.31745 145.356 4.92792 149.32 5.22572C149.444 5.23487 149.276 5.20401 149.781 5.23907C149.814 5.2414 149.83 5.25897 149.933 5.26612C150.17 5.28291 151.434 5.369 151.689 5.37051C151.691 5.37363 151.707 5.37743 151.742 5.38208C152.052 5.42351 153.022 5.40975 152.845 5.39245ZM81.9226 3.24882C81.7873 3.2426 81.3598 3.26368 81.3159 3.28838C81.5282 3.29383 82.2365 3.26326 81.9226 3.24882ZM52.9079 4.59836C52.6318 4.59609 51.9375 4.68016 52.1492 4.68627C52.279 4.68989 53.2263 4.60072 52.9079 4.59836ZM77.6393 3.39034C79.2182 3.36665 78.0159 3.37572 78.2568 3.33317C78.051 3.35212 77.8451 3.37117 77.6393 3.39034ZM160.163 5.80516C159.911 5.79038 160.209 5.76657 160.486 5.79766C160.573 5.80744 160.304 5.81331 160.163 5.80516ZM171.566 6.1111C171.352 6.08261 172.404 6.11085 171.993 6.12338C171.974 6.12382 171.582 6.11235 171.566 6.1111ZM163.598 5.91088C163.425 5.92569 163.313 5.92466 162.831 5.90249C163.546 5.92157 162.884 5.88023 163.598 5.91088ZM92.1663 3.06021C92.169 3.06177 92.1714 3.06292 92.1709 3.0644C92.1678 3.06298 92.1665 3.06162 92.1663 3.06021ZM67.7748 3.76911C67.576 3.74255 67.0225 3.77148 67.1888 3.79967C67.2048 3.80221 67.6948 3.79927 67.7748 3.76911ZM151.721 5.36388C151.747 5.36919 151.733 5.37084 151.689 5.37051C151.687 5.36758 151.699 5.36558 151.721 5.36388ZM70.7461 3.60681C70.7272 3.63408 71.5701 3.60873 71.6038 3.60433C72.0859 3.53832 71.0939 3.59014 70.7461 3.60681ZM47.3405 4.94321C47.2973 4.94917 47.5818 4.99918 47.7515 4.95942C47.8829 4.92859 47.5025 4.92067 47.3405 4.94321ZM165.238 5.955C165.505 5.9631 165.882 5.97392 165.951 5.99116C165.772 5.9839 165.231 5.96633 165.238 5.955ZM171.155 6.08661C170.838 6.09835 170.114 6.08705 169.653 6.07563C169.645 6.05386 170.858 6.08799 171.155 6.08661ZM153.569 5.44419C153.547 5.44191 152.877 5.3954 152.967 5.42014C153.099 5.45653 153.757 5.46523 153.569 5.44419ZM48.6404 4.88794C48.9377 4.8431 48.2453 4.8185 47.9337 4.89751C47.7737 4.9379 48.5902 4.89538 48.6404 4.88794ZM66.0446 3.80513C65.6506 3.84416 66.6304 3.83117 66.7657 3.78927C66.5837 3.79515 66.1846 3.79127 66.0446 3.80513ZM79.4799 3.23426C78.233 3.1728 78.9148 3.33395 79.1352 3.311C79.1663 3.30772 79.5103 3.23565 79.4799 3.23426ZM8.34441 8.02271C8.16907 8.04536 8.82947 8.0233 8.91177 7.99595C8.96288 7.97865 8.45684 8.00801 8.34441 8.02271ZM98.225 2.99599C98.1724 2.99635 98.1203 2.99673 98.0687 2.99707C98.1074 2.99549 98.1583 2.99493 98.225 2.99599ZM62.455 3.85142C63.3373 3.95003 63.2403 3.8432 63.3164 3.83976C63.481 3.83269 63.8649 3.85199 64.1745 3.82963C63.8202 3.86421 63.466 3.89906 63.1118 3.93417C63.3927 3.92887 65.8305 3.85822 65.8805 3.83312C65.9523 3.79604 65.1864 3.84457 65.1639 3.84285C65.1316 3.84026 65.008 3.75328 64.9368 3.75332C64.8195 3.75291 62.7824 3.85642 62.455 3.85142ZM76.8773 3.33376C77.0777 3.33775 77.1354 3.37181 77.2282 3.36007C77.2598 3.35607 77.2641 3.32158 77.372 3.3091C77.2071 3.31726 77.0422 3.32548 76.8773 3.33376ZM60.8933 4.06792C60.6434 4.03842 61.7553 3.99334 61.7912 3.99642C61.9826 4.01521 61.0975 4.09176 60.8933 4.06792ZM70.3244 3.59403C70.2838 3.59318 69.4296 3.61738 69.4374 3.64084C69.6638 3.64858 70.8053 3.60431 70.3244 3.59403ZM77.5055 3.30231C77.8056 3.2963 78.3736 3.31249 78.3074 3.26308C78.307 3.2631 78.3065 3.26311 78.3061 3.26313C78.0392 3.27603 77.7723 3.28909 77.5055 3.30231ZM49.6563 4.70301C49.0956 4.65614 49.3655 4.74577 49.8588 4.73931C50.0054 4.69064 49.7482 4.7106 49.6563 4.70301ZM47.8756 4.76426C47.7205 4.75948 46.1289 4.89187 46.375 4.91961C46.4624 4.92931 47.3754 4.82227 47.4178 4.82248C47.482 4.82254 47.1934 4.89353 47.6807 4.8486C47.6511 4.83367 47.9288 4.76562 47.8756 4.76426ZM49.1933 4.68026C48.6374 4.65384 48.5211 4.78261 48.936 4.75374C49.0981 4.74257 49.2726 4.68415 49.1933 4.68026ZM51.4484 4.53597C51.249 4.53793 50.7189 4.55712 50.3567 4.62201C50.8449 4.59199 51.3332 4.56238 51.8215 4.53319C51.8764 4.50686 51.6228 4.53427 51.4471 4.53606C51.4475 4.53603 51.448 4.536 51.4484 4.53597ZM174.49 6.00189C174.05 5.98528 175.065 5.98857 175.108 5.99168C175.235 6.00293 174.687 6.00935 174.49 6.00189ZM4.85717 7.75397C4.73494 7.7604 4.65309 7.74704 4.38709 7.78824C4.6577 7.77464 4.92846 7.76179 5.19936 7.74968C5.40421 7.68831 4.99076 7.74696 4.85717 7.75397ZM3.81469 7.73546C3.85265 7.73013 3.63867 7.69922 4.1343 7.67808C4.46916 7.66518 2.66584 7.89908 2.33802 7.91504C2.69656 7.86168 3.4879 7.78079 3.81469 7.73546ZM0.633069 7.91467C0.611884 7.91388 1.29483 7.81632 1.37433 7.8084C1.79157 7.76731 0.747368 7.91892 0.633069 7.91467ZM2.81645 7.63376C2.49422 7.666 3.20481 7.56538 3.41764 7.54357C3.4393 7.551 2.86619 7.62869 2.81645 7.63376ZM170.056 5.22623C169.708 5.18001 169.393 5.24106 169.931 5.24584C169.957 5.24606 170.071 5.22839 170.056 5.22623ZM1.296 7.77701C1.61765 7.7425 0.908037 7.84521 0.695955 7.86912C0.675299 7.86339 1.247 7.78231 1.296 7.77701ZM169.813 5.13733C169.35 5.09515 169.51 5.18309 169.568 5.18852C169.806 5.21056 170.627 5.20823 170.794 5.20627C169.568 5.17468 170.031 5.1567 169.813 5.13733ZM167.672 5.10079C167.241 5.09175 168.34 5.15513 168.551 5.13988C168.337 5.13251 167.794 5.10348 167.672 5.10079ZM165.062 4.95293C164.831 4.93853 164.143 4.89572 164.027 4.90394C164.28 4.9146 164.964 4.96271 165.062 4.95293ZM164.541 4.88432C164.18 4.84633 164.091 4.8983 164.508 4.90287C164.524 4.90304 164.554 4.88607 164.541 4.88432ZM162.51 4.75441C162.274 4.71779 162.001 4.75914 162.385 4.78225C162.499 4.78896 162.535 4.75847 162.51 4.75441ZM169.236 5.02637C168.897 5.00334 168.458 5.02085 169.183 5.05488C168.928 5.04986 168.673 5.04468 168.418 5.03935C169.367 5.0993 169.299 5.04639 169.572 5.0597C169.953 5.07789 169.921 5.11647 169.844 5.12617C170.158 5.11404 171.486 5.163 172.253 5.183C171.579 5.15159 170.485 5.09425 169.82 5.06079C169.63 5.05131 169.445 5.0549 169.283 5.04703C169.024 5.03427 169.255 5.02774 169.237 5.02643C169.237 5.02641 169.236 5.02639 169.236 5.02637ZM159.841 4.59575C159.146 4.52477 159.583 4.61195 159.977 4.62542C159.994 4.62566 159.858 4.59751 159.841 4.59575ZM0.362615 7.76877C1.28888 7.65069 0.619298 7.77688 2.5503 7.45457C1.74025 7.60227 2.50773 7.48283 2.35032 7.51796C2.22398 7.54574 1.7459 7.60597 2.02541 7.5854C1.65813 7.61601 0.0776416 7.85118 0.00711034 7.85871C0.00777276 7.85861 0.00843517 7.85852 0.00909758 7.85842C-0.0333917 7.86295 0.067219 7.80691 0.362615 7.76877ZM165.066 4.81142C164.837 4.73345 164.74 4.83348 164.286 4.75408C163.674 4.80206 165.966 4.8433 166.24 4.92071C163.755 4.7914 167.88 5.0648 166.149 4.88316C167.577 4.98726 166.618 4.89384 166.839 4.89221C167.076 4.89074 167.883 4.94228 167.843 4.91711C167.843 4.91709 167.843 4.91707 167.842 4.91705C167.348 4.89592 166.853 4.87395 166.358 4.85116C166.84 4.92609 165.83 4.86197 165.49 4.80129C165.348 4.80465 165.207 4.80803 165.066 4.81142ZM167.862 4.99455C167.814 4.99156 166.737 4.94932 166.806 4.96257C166.95 4.97645 168.477 5.03637 167.862 4.99455ZM172.599 5.16657C172.213 5.15409 171.615 5.12433 171.404 5.1342C171.791 5.1482 172.388 5.17684 172.599 5.16657ZM152.721 4.05185C152.228 4.03469 153.741 4.15438 153.305 4.09812C153.284 4.09547 152.746 4.05282 152.721 4.05185ZM163.946 4.76192C163.446 4.714 163.679 4.79251 164.051 4.79535C164.073 4.79551 163.969 4.76413 163.946 4.76192ZM1.11068 7.65137C1.14221 7.63264 2.48515 7.4446 2.72347 7.41044C2.58952 7.44402 1.07405 7.67199 1.11068 7.65137ZM173.281 5.13886C172.513 5.06693 171.468 5.08419 171.354 5.07903C171.24 5.07356 171.419 5.05855 171.393 5.05703C171.334 5.05408 170.123 5.00873 170.064 5.00746C170.022 5.007 170.24 5.04694 169.99 5.04683C170.478 5.0504 172.693 5.14049 172.808 5.13933C172.897 5.1396 172.227 5.08696 173.279 5.13882C173.28 5.13883 173.28 5.13884 173.281 5.13886ZM171.068 5.06175C171.37 5.08592 170.522 5.05571 170.316 5.04256C169.86 5.01383 171.029 5.05918 171.068 5.06175ZM169.027 4.9672C168.931 4.9603 168.056 4.9185 167.981 4.93012C168.395 4.96885 169.247 4.98359 169.027 4.9672ZM159.303 4.4397C159.076 4.42739 158.453 4.3722 158.416 4.38551C158.643 4.39851 159.266 4.45304 159.303 4.4397ZM5.67681 6.85261C5.3006 6.89484 6.16829 6.76079 6.42257 6.73029C6.43746 6.73918 5.70878 6.84895 5.67681 6.85261ZM163.868 4.61967C163.734 4.60951 160.993 4.45558 160.608 4.43623C160.983 4.47392 163.699 4.63705 163.823 4.63687C163.859 4.63732 163.885 4.62134 163.868 4.61967ZM169.798 4.9112C170.05 4.90324 170.214 4.93266 170.245 4.93424C170.556 4.95027 171.201 4.97185 171.059 4.98385C170.511 4.95548 169.296 4.92723 169.798 4.9112ZM159.114 4.323C158.184 4.26922 159.969 4.41272 159.736 4.37298C159.721 4.37063 159.211 4.32864 159.114 4.323ZM164.175 4.6309C164.381 4.62761 167.122 4.7881 167.563 4.8069C167.167 4.81722 166.85 4.77919 166.32 4.75343C166.177 4.74652 166.215 4.76106 166.199 4.76029C165.952 4.7481 166.138 4.74312 165.985 4.73495C165.889 4.73081 163.884 4.63942 164.175 4.6309ZM169.942 4.90434C170.096 4.90103 171.809 4.96637 171.878 4.97085C172.393 5.01177 170.075 4.91563 169.942 4.90434ZM163.925 4.58856C164.221 4.56948 165.581 4.66969 164.649 4.63577C164.56 4.6325 164.184 4.59547 163.925 4.58856ZM159.216 4.2918C159.17 4.28781 158.201 4.21319 158.183 4.22463C158.323 4.23988 159.736 4.33985 159.216 4.2918ZM159.721 4.28306C159.698 4.28179 159.924 4.32122 159.469 4.28764C159.431 4.28476 159.362 4.25289 158.791 4.22359C158.674 4.21767 158.494 4.22354 158.507 4.22558C159.099 4.31043 160.896 4.34714 159.721 4.28306ZM169.974 4.88751C169.882 4.87398 170.106 4.85571 170.306 4.87854C170.392 4.88831 170.231 4.89826 169.974 4.88751ZM156.143 4.06349C156.708 4.08352 154.94 3.94782 154.849 3.94595C154.905 3.96452 156.086 4.06181 156.143 4.06349ZM6.53637 6.55407C6.53593 6.55414 6.53549 6.55421 6.53504 6.55428C7.00746 6.48699 6.71718 6.55032 6.73933 6.54744C7.74779 6.42283 7.47666 6.42073 7.63334 6.39161C7.96947 6.32944 7.92092 6.39112 8.48774 6.28408C7.55031 6.45722 8.40535 6.31578 8.43416 6.33147C8.54791 6.39429 7.17714 6.47989 6.71059 6.56861C6.64549 6.58047 7.13026 6.53171 6.96365 6.56363C6.42151 6.66414 4.72464 6.81455 6.53637 6.55407ZM170.461 4.88271C170.682 4.87669 172.352 4.95913 171.909 4.95448C171.837 4.95468 170.137 4.89365 170.461 4.88271ZM92.3193 0.351988C92.723 0.320653 91.7874 0.284396 91.6139 0.309183C91.5278 0.32142 92.142 0.36569 92.3193 0.351988ZM85.7591 0.257611C85.2795 0.269626 84.7755 0.409752 85.3718 0.381253C85.4352 0.378117 85.8143 0.275361 85.7591 0.257611ZM117.245 0.871265C116.747 0.806149 116.773 0.883752 117.14 0.900251C117.27 0.906131 117.261 0.873331 117.245 0.871265ZM98.1403 0.325581C98.0902 0.322036 97.5112 0.321791 97.5322 0.341478C97.7461 0.354931 98.4642 0.34911 98.1403 0.325581ZM117.404 0.868232C117.107 0.86747 117.615 0.946915 117.98 0.911711C117.796 0.906824 117.435 0.868319 117.404 0.868232ZM162.901 4.4269C162.653 4.43063 161.955 4.38131 161.553 4.35866C161.511 4.33115 162.614 4.41409 162.901 4.4269ZM87.7958 0.290467C87.342 0.327182 88.315 0.345926 88.2255 0.303365C88.2131 0.301074 87.8138 0.288886 87.7958 0.290467ZM133.364 1.9283C133.034 1.92157 134.075 2.0388 133.791 1.97723C133.777 1.97447 133.382 1.92861 133.364 1.9283ZM137.918 2.35177C137.67 2.32069 136.607 2.22322 137.019 2.28194C137.083 2.29082 137.898 2.36834 137.918 2.35177ZM7.65902 6.36669C7.52232 6.35752 8.29807 6.24628 8.40973 6.23505C8.45357 6.23098 7.83723 6.37889 7.65902 6.36669ZM113.997 0.717807C113.737 0.712151 113.066 0.674838 112.947 0.692624C113.264 0.700363 114.08 0.765506 113.997 0.717807ZM89.8663 0.276771C89.4707 0.226776 88.795 0.235951 88.9624 0.302738C89.7086 0.293785 88.8699 0.24206 89.8663 0.276771ZM119.074 0.905052C118.866 0.890642 118.705 0.938365 118.728 0.942223C118.952 0.978881 119.279 0.93768 119.074 0.905052ZM103.489 0.383799C103.478 0.357287 102.812 0.355764 102.9 0.374492C102.929 0.380666 103.498 0.405099 103.489 0.383799ZM154.239 3.80794C153.938 3.76879 154.864 3.82682 155.136 3.86538C155.267 3.90114 154.278 3.81295 154.239 3.80794ZM124.825 1.25907C124.858 1.22689 123.818 1.17909 124.225 1.23373C124.328 1.24729 124.813 1.26964 124.825 1.25907ZM134.763 1.98533C134.064 1.95966 136.983 2.24934 136.219 2.13439C136.165 2.12563 134.824 1.98709 134.763 1.98533ZM139.525 2.45754C139.406 2.44188 139.475 2.34798 139.965 2.4351C140.03 2.44643 139.724 2.44292 139.776 2.45416C139.807 2.4608 140.881 2.57949 140.93 2.58182C140.984 2.58437 140.924 2.54677 140.978 2.54848C141.039 2.55052 141.698 2.64224 142.045 2.67564C142.698 2.73868 142.771 2.71952 142.824 2.72458C142.98 2.73932 143.24 2.78246 143.557 2.81227C145.151 2.96302 147.59 3.16508 148.85 3.32569C147.727 3.20681 146.653 3.13222 145.534 3.03675C145.866 3.01499 143.884 2.92514 145.044 2.97149C144.511 2.93823 139.915 2.51063 139.526 2.45767C139.526 2.45762 139.525 2.45758 139.525 2.45754ZM83.8653 0.243384C84.1595 0.1906 82.6473 0.224725 82.5198 0.283425C82.7196 0.287435 83.8289 0.24912 83.8653 0.243384ZM90.8415 0.0674138C90.9819 0.0590423 91.1152 -0.0333859 91.8521 0.0129175C91.8527 0.0129175 91.8534 0.0129174 91.8541 0.0129173C92.0695 0.0264666 91.824 0.0487995 91.8635 0.0567538C91.8779 0.0599654 92.5496 0.105519 91.9917 0.112845C91.1409 0.124618 91.9116 0.0446487 91.4579 0.0440229C91.4023 0.0437919 90.5439 0.095229 90.5939 0.106207C90.5991 0.107451 90.8573 0.0962702 90.9 0.100736C91.0611 0.117458 90.9827 0.146318 91.0054 0.147636C91.0798 0.150504 92.4375 0.100747 92.6349 0.143834C92.6991 0.156481 90.4706 0.190805 90.3841 0.185087C90.3292 0.180755 90.3521 0.100833 90.2952 0.0931618C90.2659 0.0891522 89.3699 0.122805 89.2535 0.116254C89.2197 0.114298 89.1939 0.112136 89.1749 0.110342C89.3106 0.134314 88.499 0.137283 88.5237 0.109189C88.5377 0.0980049 89.0965 0.101094 89.1165 0.102974C89.1252 0.103741 89.1328 0.104822 89.14 0.105559C89.0242 0.0752111 90.9156 0.0695849 90.5071 0.0264273C91.0554 0.000602205 90.4295 0.0922266 90.8415 0.0674138ZM93.4777 0.0193503C93.421 0.027488 93.3644 0.0356401 93.3077 0.0438066C94.2679 0.0258365 95.3749 0.0711462 96.4811 0.0799404C96.7618 0.0822908 96.4393 0.0293913 96.8071 0.0463262C97.1017 0.0599489 97.4273 0.109532 97.2671 0.118297C97.228 0.120455 96.6283 0.0847036 96.328 0.0855112C95.4413 0.0880035 95.665 0.133169 95.6132 0.133874C95.5559 0.134699 94.9984 0.100963 94.6938 0.100927C93.9279 0.100995 93.578 0.126367 92.5316 0.0902186C93.1356 0.062157 92.8048 -0.000872539 93.4777 0.0193503ZM129.218 1.46864C129.256 1.44922 129.88 1.51702 130.107 1.53172C130.07 1.55082 129.445 1.48265 129.218 1.46864ZM35.7302 2.68233C35.5419 2.74819 36.9823 2.62613 36.5998 2.62118C36.5152 2.61989 35.9111 2.66544 35.7302 2.68233ZM42.2035 2.14924C42.3954 2.12025 41.6163 2.14678 41.6205 2.18488C41.6224 2.1969 42.1788 2.15289 42.2035 2.14924ZM105.885 0.242106C105.921 0.241677 106.453 0.265499 106.47 0.268173C106.821 0.322388 105.071 0.250041 105.885 0.242106ZM50.075 1.51637C49.4042 1.59355 51.4302 1.47249 50.8089 1.4726C50.7779 1.47256 50.1073 1.51256 50.075 1.51637ZM52.8894 1.32396C52.7282 1.33577 52.0111 1.36559 52.0026 1.38127C51.9898 1.40628 52.8104 1.3704 52.8894 1.32396ZM119.221 0.764463C119.146 0.715926 120.089 0.801313 120.418 0.814743C120.493 0.862829 119.55 0.776476 119.221 0.764463ZM113.255 0.445064C117.244 0.585457 116.361 0.640247 113.017 0.4576C113.013 0.427922 113.004 0.436864 113.255 0.445064ZM118.359 0.690943C118.213 0.71174 117.761 0.679879 117.455 0.662182C117.511 0.644961 118.138 0.684346 118.359 0.690943ZM34.0112 2.77403C34.2569 2.70531 35.3633 2.65214 35.1688 2.68938C35.1233 2.69726 33.922 2.80659 34.0112 2.77403ZM106.22 0.210164C106.128 0.160838 107.325 0.21387 107.417 0.227187C107.785 0.279146 106.317 0.202057 106.22 0.210164ZM124.876 1.07C125.089 1.05181 125.686 1.10924 126.072 1.13668C125.895 1.1516 125.203 1.09238 124.876 1.07ZM122.093 0.866216C122.117 0.866352 122.655 0.902502 122.679 0.905586C123.118 0.964745 121.596 0.863049 122.093 0.866216ZM5.85903 6.43911C5.87666 6.43542 6.27967 6.3706 6.29383 6.36921C6.65581 6.33235 5.44617 6.52582 5.85903 6.43911Z" fill="#FF9900"/>
</svg>
