<svg width="68" height="12" viewBox="0 0 68 12" fill="none" xmlns="http://www.w3.org/2000/svg">
<path d="M4.48285 0.242369C4.90673 0.121195 5.33067 0 5.8151 0H6.78433V2.06093H5.8151C5.51223 2.06093 5.26997 2.12153 5.08823 2.3034C4.84592 2.42461 4.7248 2.60647 4.60362 2.84894C4.54305 2.97015 4.48249 3.15202 4.48249 3.33383V11.6381H2.3624V4.97048H0V3.21262H2.3624C2.42296 2.54587 2.6047 1.93972 2.96814 1.45477C3.33157 0.909226 3.87711 0.484841 4.48285 0.242369Z" fill="white"/>
<path fill-rule="evenodd" clip-rule="evenodd" d="M14.7191 11.6969H12.7808V10.6665C12.1145 11.4545 10.8424 12 9.69152 12C7.45025 12 5.39072 10.2422 5.39072 7.45386C5.39072 4.84739 7.32912 2.96833 9.81265 2.96833C11.6299 2.96833 12.6596 4.18063 12.7202 4.3019H12.7808V3.2108H14.7191V11.6969ZM7.57143 7.51447C7.57143 6.24156 8.41942 4.78679 10.1761 4.78679C11.4481 4.78679 12.7202 5.69601 12.7202 7.45386C12.7202 9.02985 11.6299 10.1209 10.1761 10.1209C8.66173 10.1209 7.57143 8.96924 7.57143 7.51447Z" fill="white"/>
<path fill-rule="evenodd" clip-rule="evenodd" d="M15.4457 0.417887H17.5658V3.99419C18.2927 3.26683 19.3224 2.96376 20.2916 2.96376C22.9569 2.96376 24.7135 5.20649 24.7135 7.44923C24.7135 9.14648 23.5626 11.9954 20.3522 11.9954C18.6561 11.9954 17.9293 11.268 17.3841 10.7225V11.753H15.4457V0.417887ZM22.654 7.44923C22.654 9.08587 21.5031 10.1163 20.1099 10.1163C18.8379 10.1163 17.4446 9.20708 17.5052 7.32802C17.5052 6.11572 18.4744 4.78221 20.1099 4.78221C21.4425 4.78221 22.654 5.81264 22.654 7.44923Z" fill="white"/>
<path d="M26.2883 3.39703C26.1672 3.39703 26.1066 3.51824 26.1066 3.57884V11.6407C26.1066 11.7619 26.2278 11.8225 26.2883 11.8225H26.5307C26.6518 11.8225 26.7123 11.7013 26.7123 11.6407V7.7613H32.2852V11.6407C32.2852 11.7619 32.4063 11.8225 32.4669 11.8225H32.7092C32.8304 11.8225 32.8909 11.7013 32.8909 11.6407V3.57884C32.8909 3.45763 32.8304 3.39703 32.7092 3.39703H32.4669C32.3458 3.39703 32.2852 3.51824 32.2852 3.57884V7.27641H26.7123V3.57884C26.7123 3.45763 26.6518 3.39703 26.5307 3.39703H26.2883Z" fill="white"/>
<path fill-rule="evenodd" clip-rule="evenodd" d="M38.5845 3.27852C41.0681 3.27852 43.067 5.21824 43.067 7.58219C43.067 10.0068 41.0681 11.8859 38.5845 11.8859C36.101 11.8859 34.102 10.0068 34.102 7.58219C34.102 5.21824 36.101 3.27852 38.5845 3.27852ZM42.5218 7.64285C42.5218 9.70372 40.7652 11.401 38.5845 11.401C36.4039 11.401 34.6472 9.70372 34.6472 7.64285C34.6472 5.52132 36.4039 3.82407 38.5845 3.82407C40.7652 3.82407 42.5218 5.52132 42.5218 7.64285Z" fill="white"/>
<path d="M42.8852 3.94258H45.2476V11.6407C45.2476 11.7619 45.3687 11.8225 45.4293 11.8225H45.6716C45.7927 11.8225 45.8533 11.7013 45.8533 11.6407V3.94258H48.2157C48.3368 3.94258 48.3974 3.82131 48.3974 3.76071V3.57884C48.3974 3.45763 48.3368 3.39703 48.2157 3.39703H42.8852C42.764 3.39703 42.7034 3.45763 42.7034 3.57884V3.76071C42.7034 3.88192 42.764 3.94258 42.8852 3.94258Z" fill="white"/>
<path d="M49.7295 3.39703C49.6083 3.39703 49.5477 3.51824 49.5477 3.57884V11.6407C49.5477 11.7619 49.6689 11.8225 49.7295 11.8225H54.6964C54.8176 11.8225 54.8783 11.7013 54.8783 11.6407V11.4588C54.8783 11.3376 54.757 11.277 54.6964 11.277H50.1533V7.7613H54.0908C54.212 7.7613 54.2726 7.64009 54.2726 7.57949V7.39762C54.2726 7.27641 54.1514 7.21575 54.0908 7.21575H50.1533V3.94258H54.6964C54.8176 3.94258 54.8783 3.82131 54.8783 3.76071V3.57884C54.8783 3.45763 54.757 3.39703 54.6964 3.39703H49.7295Z" fill="white"/>
<path d="M56.5745 3.39703C56.4532 3.39703 56.3926 3.51824 56.3926 3.57884V11.6407C56.3926 11.7619 56.5138 11.8225 56.5745 11.8225H60.9357C61.0569 11.8225 61.1175 11.7619 61.1175 11.7013V11.4588C61.1175 11.3376 61.0569 11.277 60.9357 11.277H56.9982V3.57884C56.9982 3.45763 56.9376 3.39703 56.877 3.39703H56.5745Z" fill="white"/>
<path d="M61.9662 10.5523L61.8455 10.6736C61.7721 10.747 61.7654 10.7982 61.758 10.8541C61.7532 10.8905 61.7482 10.9288 61.7243 10.9767C61.7406 10.9876 61.7639 11.0044 61.7938 11.026C62.0951 11.2439 63.0665 11.9465 64.3893 11.9465C65.843 11.9465 67.1154 11.0373 67.1154 9.82498C67.1154 8.43081 66.0248 7.82466 64.3286 7.27911C63.0568 6.85483 62.2693 6.43054 62.2693 5.40005C62.2693 4.7333 62.8749 3.82407 64.3893 3.82407C65.1647 3.82407 65.8237 4.17318 66.0874 4.31286C66.1534 4.34779 66.1946 4.36962 66.2067 4.36962C66.3885 4.43022 66.4492 4.43022 66.5092 4.30901C66.5395 4.27869 66.5547 4.24838 66.5698 4.21808C66.585 4.18776 66.6002 4.15745 66.6305 4.12715C66.6911 4.00594 66.6305 3.94528 66.5698 3.88467C66.5698 3.88467 65.6617 3.27852 64.4499 3.27852C62.5117 3.27852 61.7849 4.49083 61.7849 5.40005C61.7849 6.79422 62.7537 7.27911 64.2074 7.76405C65.7217 8.3096 66.6305 8.73388 66.6305 9.82498C66.6305 10.6736 65.7217 11.401 64.5711 11.401C63.2992 11.401 62.3905 10.6129 62.2693 10.4917C62.148 10.4311 62.0268 10.4311 61.9662 10.5523Z" fill="white"/>
</svg>
