<svg width="71" height="10" viewBox="0 0 71 10" fill="none" xmlns="http://www.w3.org/2000/svg">
<path d="M10.8712 6.91044C10.8712 9.16306 9.33359 9.79428 6.28222 9.79428H0V0H6.58138C8.93272 0 10.5152 0.502576 10.5152 2.50391C10.5152 3.67959 9.88402 4.29883 8.79211 4.59799V4.65483C10.1024 4.95099 10.8712 5.6151 10.8712 6.91044ZM2.77015 1.98637V3.97276H6.68907C7.65533 3.97276 7.8079 3.39838 7.8079 2.91076C7.8079 2.42314 7.54165 1.98637 6.68907 1.98637H2.77015ZM8.04722 6.70104C8.04722 6.21043 7.84978 5.70784 6.74591 5.70784H2.77015V7.80192H6.76086C7.89166 7.8079 8.04722 7.19165 8.04722 6.70104Z" fill="white"/>
<path d="M20.3722 2.32422V9.80305H17.8533V8.73807C17.5271 9.1487 17.1088 9.47671 16.6322 9.69552C16.1556 9.91433 15.6341 10.0178 15.1101 9.9975C13.1955 9.9975 11.9899 8.96243 11.9899 7.28418V2.32422H14.5088V6.68887C14.5088 7.51453 15.0263 8.15771 16.1601 8.15771C17.2939 8.15771 17.8533 7.52949 17.8533 6.68887V2.32422H20.3722Z" fill="white"/>
<path d="M49.9314 6.91044C49.9314 9.16306 48.3908 9.79428 45.3424 9.79428H39.0452V0H45.6266C47.9779 0 49.5575 0.502576 49.5575 2.50391C49.5575 3.67959 48.9292 4.29883 47.8373 4.59799V4.65483C49.1626 4.95099 49.9314 5.6151 49.9314 6.91044ZM41.8303 1.98637V3.97276H45.7463C46.7125 3.97276 46.8681 3.39838 46.8681 2.91076C46.8681 2.42314 46.6018 1.98637 45.7463 1.98637H41.8303ZM47.1044 6.70104C47.1044 6.21043 46.91 5.70784 45.8031 5.70784H41.8303V7.80192H45.8031C46.9518 7.8079 47.1044 7.19165 47.1044 6.70104Z" fill="white"/>
<path d="M57.2817 2.25214V4.51672H57.1291C56.6577 4.311 56.1476 4.20898 55.6334 4.21757C54.0389 4.21757 53.4226 5.18384 53.4226 6.34456V9.80277H50.9157V2.32393H53.4286V3.61029C53.7163 3.14391 54.1206 2.76064 54.6017 2.49832C55.0828 2.23601 55.624 2.10371 56.1718 2.11452C56.5464 2.10779 56.9201 2.15413 57.2817 2.25214Z" fill="white"/>
<path d="M58.3954 2.32422H60.9083V9.80305H58.3954V2.32422Z" fill="white"/>
<path d="M70.866 9.80305H67.9403L66.1095 7.43675L64.2757 9.80305H61.3649L64.5838 6.02474L61.5743 2.32422H64.497L66.1065 4.58881L67.7279 2.32422H70.6387L67.6471 6.0038L70.866 9.80305Z" fill="white"/>
<path d="M25.3061 7.94612L29.7455 7.29097V9.79189H21.4919L25.9283 4.18276H21.4919V2.33699H29.7455L25.3061 7.94612Z" fill="white"/>
<path d="M33.5618 7.94612H38.0012V9.79189H29.7446L34.184 4.18276L29.7446 4.83791V2.33699H38.0012L33.5618 7.94612Z" fill="white"/>
</svg>
