<svg width="53" height="21" viewBox="0 0 53 21" fill="none" xmlns="http://www.w3.org/2000/svg">
<path d="M25.7116 13.8923C26.5406 13.8923 27.0629 13.4619 27.4461 12.9408V13.785H28.5969V6.78458H27.4461V9.50122C27.0783 9.02481 26.5559 8.611 25.7116 8.611C24.5149 8.611 23.3628 9.56252 23.3628 11.2357V11.2663C23.3628 12.9408 24.5302 13.8923 25.7116 13.8923ZM25.9888 12.8795C25.2059 12.8795 24.5302 12.2345 24.5302 11.2676V11.237C24.5302 10.2394 25.2059 9.62511 25.9888 9.62511C26.7717 9.62511 27.4627 10.2548 27.4627 11.237V11.2676C27.4614 12.2345 26.7717 12.8795 25.9888 12.8795ZM30.0261 7.93663H31.2701V6.83183H30.0261V7.93663ZM30.0721 13.785H31.2382V8.71956H30.0721V13.785ZM34.9689 15.3355C35.8745 15.3355 36.5808 15.121 37.0418 14.6599C37.4723 14.2295 37.6868 13.6011 37.6868 12.7415V8.71956H36.5361V9.47184C36.1376 9.01077 35.5999 8.61227 34.7556 8.61227C33.5742 8.61227 32.4528 9.48717 32.4528 10.9917V11.0071C32.4528 12.4963 33.5576 13.3865 34.7556 13.3865C35.5845 13.3865 36.1222 13.0033 36.5361 12.4503V12.8488C36.5361 13.8616 35.9677 14.3993 34.9395 14.3993C34.2486 14.3993 33.6649 14.2001 33.1284 13.8616L32.698 14.7365C33.3571 15.121 34.1247 15.3355 34.9689 15.3355ZM35.0609 12.4031C34.2626 12.4031 33.6176 11.8347 33.6176 11.0058V10.9751C33.6176 10.1462 34.2473 9.59318 35.0609 9.59318C35.8591 9.59318 36.5501 10.1615 36.5501 10.9905V11.0058C36.5501 11.8206 35.8591 12.4031 35.0609 12.4031ZM39.1135 7.93663H40.3575V6.83183H39.1135V7.93663ZM39.1595 13.785H40.3256V8.71956H39.1595V13.785ZM43.488 13.877C43.9184 13.877 44.2402 13.7697 44.5314 13.6164V12.6649C44.3015 12.7722 44.0704 12.8335 43.8098 12.8335C43.4266 12.8335 43.1955 12.6496 43.1955 12.2038V9.71707H44.5468V8.71956H43.1955V7.32228H42.0294V8.71956H41.3844V9.71707H42.0294V12.3877C42.0294 13.4938 42.6284 13.877 43.488 13.877ZM49.9353 13.785V10.7759C49.9353 9.42458 49.1984 8.64165 47.7092 8.64165C46.8802 8.64165 46.3272 8.81024 45.7754 9.05674L46.0973 9.99294C46.5584 9.7937 46.9722 9.67109 47.5406 9.67109C48.3388 9.67109 48.7846 10.0543 48.7846 10.7606V10.8525C48.4014 10.7299 48.0016 10.6533 47.3873 10.6533C46.2059 10.6533 45.3297 11.191 45.3297 12.3111V12.3264C45.3297 13.3393 46.1739 13.8923 47.1408 13.8923C47.9084 13.8923 48.4308 13.5704 48.7833 13.1553V13.785H49.9353ZM48.8152 11.9586C48.8152 12.5882 48.2315 13.0174 47.4639 13.0174C46.9109 13.0174 46.4817 12.7415 46.4817 12.2651V12.2498C46.4817 11.7581 46.9122 11.4669 47.6479 11.4669C48.0936 11.4669 48.5074 11.5435 48.8139 11.6661V11.9586H48.8152ZM51.3326 13.785H52.4987V6.78458H51.3326V13.785Z" fill="white"/>
<path fill-rule="evenodd" clip-rule="evenodd" d="M0 0H21V21H0V0ZM4.00663 13.8616H5.17273V9.0874L8.87282 13.8616H9.855V7.13836H8.70423V11.79L5.09737 7.13836H4.00791V13.8616H4.00663ZM11.804 13.8616H12.9855V11.6968H14.3214C15.7953 11.6968 17.0074 10.9138 17.0074 9.40926V9.39393C17.0074 8.04263 16.0099 7.13709 14.444 7.13709H11.804V13.8616ZM12.9867 10.6379V8.22783H14.3534C15.2436 8.22783 15.7966 8.62632 15.7966 9.42458V9.43991C15.7966 10.1462 15.2436 10.6367 14.3534 10.6367H12.9867V10.6379ZM1.1661 1.16738H19.8479V19.8492H1.1661V1.16738Z" fill="white"/>
</svg>
