<svg width="66" height="18" viewBox="0 0 66 18" fill="none" xmlns="http://www.w3.org/2000/svg">
<path d="M23.293 8.78938C23.1476 8.69867 22.9979 8.63282 22.8438 8.59181C22.6891 8.55081 22.5307 8.51726 22.3673 8.48931C22.3493 8.48061 22.3307 8.47564 22.3126 8.47564C22.4307 8.46694 22.558 8.44644 22.6941 8.41413C22.8302 8.38245 22.9532 8.33026 23.0619 8.25758C23.3706 8.11282 23.6018 7.88979 23.7565 7.59034C23.9105 7.29089 23.9882 6.94547 23.9882 6.55531C23.9882 6.07446 23.8726 5.65635 23.6409 5.30223C23.4092 4.94811 23.0805 4.676 22.6537 4.48527C22.2269 4.29454 21.728 4.19887 21.1558 4.19887H18.193C18.1073 4.19887 18.0377 4.26845 18.0377 4.35418V13.3482C18.0377 13.4265 18.0986 13.4936 18.1763 13.5029C18.5528 13.5482 18.8758 13.5812 19.1473 13.6017C19.4511 13.624 19.8121 13.6402 20.2302 13.6495H20.5706C21.8144 13.6495 22.7606 13.4159 23.4098 12.9481C24.059 12.4809 24.3833 11.8019 24.3833 10.9122C24.3833 10.4401 24.2858 10.0201 24.0901 9.65231C23.895 9.28452 23.6291 8.99688 23.2936 8.78751L23.293 8.78938ZM22.3673 5.72531C22.6394 5.94337 22.7755 6.24282 22.7755 6.62427C22.7755 7.05108 22.6258 7.39153 22.3263 7.64563C22.0269 7.89973 21.6317 8.02709 21.1416 8.02709H19.2622V5.35814H21.1552C21.6908 5.38548 22.0946 5.50787 22.3673 5.72593V5.72531ZM22.599 12.1529C22.2089 12.407 21.605 12.5437 20.7881 12.5611C20.5427 12.5704 20.2842 12.566 20.0121 12.5474C19.7916 12.5325 19.5859 12.512 19.3946 12.4853C19.3182 12.4747 19.2629 12.4082 19.2629 12.3306V9.15654H21.2242C21.6237 9.15654 21.9685 9.22737 22.2592 9.36777C22.5493 9.5088 22.7767 9.71071 22.9401 9.97412C23.1035 10.2375 23.1855 10.555 23.1855 10.9271C23.1855 11.49 22.9898 11.8988 22.5997 12.1529H22.599Z" fill="white"/>
<path d="M26.4335 6.70379L25.519 6.69385C25.4326 6.69261 25.3618 6.76281 25.3618 6.84917V13.3588C25.3618 13.4445 25.4314 13.5141 25.5171 13.5141H26.4316C26.5173 13.5141 26.5869 13.4445 26.5869 13.3588V6.85911C26.5869 6.77399 26.5186 6.70441 26.4335 6.70379Z" fill="white"/>
<path d="M25.9334 4.33618C25.7159 4.33618 25.5339 4.40886 25.3892 4.55362C25.2438 4.69899 25.1711 4.8804 25.1711 5.09847C25.1711 5.31653 25.2438 5.49794 25.3892 5.64331C25.5842 5.83901 25.8458 5.903 26.1719 5.83528C26.1887 5.83156 26.2074 5.82534 26.2229 5.81727C26.5385 5.65512 26.6963 5.41469 26.6963 5.09847C26.6963 4.87171 26.6211 4.68781 26.4714 4.54679C26.3217 4.40576 26.1421 4.33556 25.9334 4.33556V4.33618Z" fill="white"/>
<path d="M32.3088 6.85539C31.8503 6.59198 31.3353 6.46089 30.7631 6.46089C30.0822 6.46089 29.492 6.63795 28.9925 6.99207C28.493 7.34619 28.114 7.81152 27.8556 8.38805C27.5965 8.96458 27.4673 9.58398 27.4673 10.2469C27.4673 10.9098 27.6033 11.4882 27.8754 12.01C28.1476 12.5325 28.5402 12.9407 29.0534 13.2358C29.5659 13.5309 30.1679 13.6787 30.8575 13.6787C31.393 13.6787 31.8994 13.588 32.3759 13.4066C32.8045 13.2432 33.1761 13.0289 33.4904 12.7624C33.5507 12.7114 33.5606 12.6213 33.5165 12.5561L33.1152 11.9634C33.0648 11.8895 32.9636 11.8752 32.8921 11.9292C32.6225 12.1324 32.3392 12.2865 32.0423 12.3915C31.6975 12.5139 31.3477 12.5754 30.9936 12.5754C30.2039 12.5754 29.6293 12.33 29.2708 11.8398C28.9968 11.4658 28.8285 11.0253 28.7638 10.519H33.5227C33.596 10.519 33.6613 10.468 33.6768 10.396C33.7402 10.0984 33.7712 9.78962 33.7712 9.47029C33.7712 8.89811 33.642 8.38556 33.3829 7.93142C33.1245 7.47728 32.7654 7.11881 32.3069 6.85539H32.3088ZM29.0204 8.65271C29.2112 8.28057 29.4603 8.00846 29.7691 7.83575C30.0778 7.66366 30.409 7.5773 30.7631 7.5773C31.2713 7.5773 31.6981 7.74753 32.0429 8.08798C32.3877 8.42843 32.5604 8.85275 32.5604 9.36095V9.47029H28.7763C28.8204 9.16463 28.8987 8.88941 29.0198 8.65333L29.0204 8.65271Z" fill="white"/>
<path d="M39.6447 6.86222C39.2632 6.63981 38.8364 6.5286 38.3648 6.5286C37.7566 6.5286 37.1913 6.7125 36.6694 7.08029C36.383 7.28158 36.124 7.53257 35.8854 7.82269C35.845 7.63756 35.7934 7.45926 35.7226 7.29089C35.5754 6.94174 35.3977 6.66528 35.1908 6.46213C35.1343 6.40622 35.0392 6.40249 34.9783 6.45467L34.3416 7.00014C34.2794 7.05357 34.2676 7.14676 34.3179 7.21075C34.4528 7.3816 34.5553 7.56984 34.6261 7.77424C34.7124 8.02398 34.751 8.32157 34.7416 8.66637V13.3724C34.7416 13.4582 34.8112 13.5278 34.897 13.5278H35.8115C35.8972 13.5278 35.9668 13.4582 35.9668 13.3724V9.22054C35.9668 9.1143 36.009 9.01676 36.0637 8.92606C36.0637 8.92606 36.0637 8.92544 36.0643 8.92482C36.2948 8.53404 36.5756 8.22776 36.9067 8.00597C37.2789 7.75622 37.6877 7.63135 38.1325 7.63135C38.6047 7.63135 38.9787 7.77921 39.2557 8.07369C39.5328 8.36878 39.6707 8.80677 39.6707 9.38766V13.3855C39.6707 13.4712 39.7403 13.5408 39.8261 13.5408H40.7406C40.8263 13.5408 40.8959 13.4712 40.8959 13.3855V9.15592C40.8959 8.64773 40.7822 8.19359 40.5554 7.79412C40.3287 7.39464 40.0242 7.08401 39.6434 6.86098L39.6447 6.86222Z" fill="white"/>
<path d="M47.7409 12.3977H43.3672C43.2815 12.3977 43.2119 12.3281 43.2119 12.2424V4.35543C43.2119 4.26969 43.1423 4.20011 43.0566 4.20011H42.1552C42.0694 4.20011 41.9998 4.26969 41.9998 4.35543V13.3724C41.9998 13.4582 42.0694 13.5277 42.1552 13.5277H47.7409C47.8267 13.5277 47.8962 13.4582 47.8962 13.3724V12.553C47.8962 12.4673 47.8267 12.3977 47.7409 12.3977Z" fill="white"/>
<path d="M52.634 6.85539C52.1755 6.59198 51.6605 6.46089 51.0883 6.46089C50.4074 6.46089 49.8172 6.63795 49.3177 6.99207C48.8182 7.34619 48.4392 7.81152 48.1808 8.38805C47.9217 8.96458 47.7925 9.58398 47.7925 10.2469C47.7925 10.9098 47.9286 11.4882 48.2007 12.01C48.4728 12.5325 48.8654 12.9407 49.3786 13.2358C49.8911 13.5309 50.4931 13.6787 51.1827 13.6787C51.7183 13.6787 52.2246 13.588 52.7011 13.4066C53.1298 13.2432 53.5013 13.0289 53.8156 12.7624C53.8759 12.7114 53.8859 12.6213 53.8417 12.5561L53.4404 11.9634C53.3901 11.8895 53.2888 11.8752 53.2174 11.9292C52.9477 12.1324 52.6644 12.2865 52.3675 12.3915C52.0227 12.5139 51.6729 12.5754 51.3188 12.5754C50.5292 12.5754 49.9545 12.33 49.596 11.8398C49.3221 11.4658 49.1537 11.0253 49.0891 10.519H53.848C53.9213 10.519 53.9865 10.468 54.002 10.396C54.0654 10.0984 54.0965 9.78962 54.0965 9.47029C54.0965 8.89811 53.9672 8.38556 53.7082 7.93142C53.4497 7.47728 53.0906 7.11881 52.6321 6.85539H52.634ZM49.3457 8.65271C49.5364 8.28057 49.7855 8.00846 50.0943 7.83575C50.4031 7.66366 50.7342 7.5773 51.0883 7.5773C51.5965 7.5773 52.0233 7.74753 52.3681 8.08798C52.7129 8.42843 52.8856 8.85275 52.8856 9.36095V9.47029H49.1015C49.1456 9.16463 49.2239 8.88941 49.345 8.65333L49.3457 8.65271Z" fill="white"/>
<path d="M60.2637 12.384C60.168 12.1206 60.1208 11.8118 60.1208 11.4583V8.78936C60.1208 8.06311 59.9052 7.50087 59.4741 7.10077C59.0429 6.7013 58.4459 6.50188 57.6836 6.50188C57.1301 6.50188 56.5759 6.5901 56.0224 6.76716C55.5266 6.92558 55.1116 7.11879 54.7755 7.34617C54.709 7.39152 54.691 7.48161 54.7308 7.55119L55.0961 8.19606C55.1402 8.27434 55.2389 8.29608 55.3147 8.24825C55.5949 8.07181 55.9211 7.92519 56.2945 7.80839C56.73 7.67233 57.1475 7.604 57.5476 7.604C58.0017 7.604 58.3397 7.7152 58.5621 7.93761C58.7845 8.16003 58.8957 8.4893 58.8957 8.9248V9.25159C58.3142 9.21555 57.883 9.19691 57.6022 9.19691C56.6126 9.18822 55.8478 9.38516 55.3079 9.78898C54.7674 10.1928 54.4978 10.7625 54.4978 11.4981C54.4978 11.9429 54.5978 12.3374 54.7972 12.6828C54.9967 13.0276 55.2694 13.291 55.6142 13.4724C55.959 13.6539 56.3541 13.7446 56.7989 13.7446C57.1711 13.7446 57.5252 13.67 57.8613 13.5203C58.1974 13.3706 58.4875 13.173 58.7329 12.9282C58.8609 12.8002 58.9702 12.6673 59.0634 12.5294C59.0734 12.6971 59.1169 12.8661 59.2026 13.0369C59.3324 13.2966 59.5045 13.5358 59.7195 13.7545C59.776 13.8123 59.8692 13.8141 59.9307 13.7626L60.5799 13.2146C60.6433 13.1612 60.6508 13.068 60.6011 13.0015C60.4563 12.8083 60.3439 12.6021 60.265 12.3834L60.2637 12.384ZM58.8951 11.0495C58.8951 11.331 58.8106 11.5962 58.6428 11.846C58.4751 12.0957 58.2434 12.2933 57.9483 12.438C57.6532 12.5834 57.3376 12.6561 57.0021 12.6561C56.6113 12.6561 56.2963 12.5517 56.0559 12.343C55.8155 12.1342 55.695 11.8304 55.695 11.431C55.695 11.0315 55.8447 10.7047 56.1441 10.5053C56.4436 10.3059 56.8884 10.2058 57.4786 10.2058C57.9234 10.2058 58.2956 10.2152 58.5956 10.2332C58.7224 10.2332 58.8224 10.2381 58.8951 10.2468V11.0501V11.0495Z" fill="white"/>
<path d="M63.0277 4.82634C63.1818 4.64494 63.4179 4.55423 63.7359 4.55423C63.9844 4.55423 64.2081 4.6263 64.4069 4.76981C64.4759 4.81951 64.5734 4.7959 64.62 4.72508L65.0611 4.05909C65.1052 3.99261 65.0934 3.90066 65.03 3.85158C64.6479 3.55773 64.1764 3.41049 63.6135 3.41049C62.978 3.41049 62.4785 3.60121 62.1157 3.98267C61.7522 4.36413 61.5708 4.91767 61.5708 5.64393V6.70629H60.9365C60.8508 6.70629 60.7812 6.77587 60.7812 6.8616V7.62638C60.7812 7.71211 60.8508 7.78169 60.9365 7.78169H61.5708V13.3594C61.5708 13.4451 61.6404 13.5147 61.7262 13.5147H62.6407C62.7264 13.5147 62.796 13.4451 62.796 13.3594V7.78169H64.561C64.6467 7.78169 64.7163 7.71211 64.7163 7.62638V6.8616C64.7163 6.77587 64.6467 6.70629 64.561 6.70629H62.796V5.64393C62.796 5.28111 62.873 5.00837 63.0277 4.82697V4.82634Z" fill="white"/>
<path d="M11.5157 9.62685C12.4128 8.22031 12.5545 6.81999 12.5744 6.39008C12.5799 6.30931 12.5793 6.26272 12.5793 6.26272C12.5799 3.3608 10.2191 1 7.31723 1H1.93834C0.870389 1 0.00124253 1.86853 0.00124253 2.93648V9.58647H0V15.0623C0 15.5543 0.185758 16.006 0.488934 16.3471C0.843675 16.7478 1.36243 17 1.93772 17H9.21457C10.2925 17 11.3088 16.5806 12.0773 15.8146C12.8409 15.0511 13.2602 14.0353 13.2602 12.9519C13.2602 11.605 12.5961 10.3711 11.5157 9.62685ZM1.93834 2.35932H7.31723C9.17543 2.35932 10.7317 3.66584 11.1231 5.40351C6.80096 5.23453 3.65613 6.46028 1.76625 9.05653C1.6215 9.25782 1.4873 9.4616 1.36119 9.66848V2.93648C1.36119 2.61839 1.62025 2.35932 1.93834 2.35932ZM1.36057 15.0623V14.8511C1.36057 13.9105 1.4873 12.9717 1.7706 12.0753C2.00295 11.3384 2.34962 10.5681 2.86588 9.85548C4.48365 7.63011 7.27374 6.59509 11.1678 6.76656C11.0715 7.37913 10.7938 8.44894 9.99363 9.41376C8.84057 10.8091 6.99666 11.5174 4.50975 11.5261C5.21115 9.9816 6.52885 8.81921 8.53615 8.30667C4.61225 8.77013 2.74909 11.938 2.6559 15.6401H1.93834C1.62087 15.6401 1.36057 15.3822 1.36057 15.0623ZM11.1187 14.8523C10.6081 15.3605 9.93088 15.6401 9.21581 15.6401H3.95931C3.94999 15.5549 3.94191 15.4729 3.93508 15.4164C3.85866 14.5212 3.90401 13.6682 4.07051 12.8785C4.20222 12.8816 4.33517 12.8879 4.46439 12.8879C7.1557 12.8879 9.23631 12.1492 10.6671 10.6917C11.4306 11.1806 11.9009 12.0274 11.9009 12.9525C11.9009 13.6731 11.6213 14.3478 11.1187 14.8529V14.8523Z" fill="white"/>
</svg>
