<svg width="68" height="12" viewBox="0 0 68 12" fill="none" xmlns="http://www.w3.org/2000/svg">
<path d="M5.98969 2.39987H11.9794V0H5.98969C2.68172 0 0 2.68633 0 6V12H8.38544C10.3704 12 11.9794 10.3882 11.9794 8.39988V4.79975H5.98969C5.32785 4.79975 4.7915 5.33702 4.7915 6C4.7915 6.66298 5.32785 7.20025 5.98969 7.20025H8.38544C9.04729 7.20025 9.58363 7.73752 9.58363 8.4005C9.58363 9.06348 9.04729 9.60075 8.38544 9.60075H5.98969C4.00478 9.60075 2.39575 7.98895 2.39575 6.00063C2.39575 4.0123 4.00478 2.39987 5.98969 2.39987Z" fill="white"/>
<path d="M22.2099 10.3257C21.6205 10.5377 20.4853 10.8348 19.2697 10.8348C17.7293 10.8348 16.5536 10.447 15.6913 9.61576C14.8765 8.83707 14.4057 7.63557 14.4101 6.25581C14.4176 3.35495 16.4781 1.50422 19.4994 1.50422C20.6227 1.50422 21.4981 1.73189 21.9233 1.93454L21.553 3.27989C21.056 3.05973 20.4441 2.89023 19.477 2.89023C17.5339 2.89023 16.1602 4.04483 16.1602 6.17013C16.1602 8.29543 17.4396 9.47816 19.3302 9.47816C19.934 9.47816 20.3779 9.39936 20.5909 9.29616V7.01262H18.9831V5.69978H22.2099V10.3257Z" fill="white"/>
<path d="M29.6912 7.37475C29.6912 9.8034 27.9898 10.8923 26.3033 10.8923C24.4427 10.8923 23.0028 9.60576 23.0028 7.48859C23.0028 5.37142 24.4283 3.98666 26.4157 3.98666C28.4031 3.98666 29.6918 5.37204 29.6918 7.37413L29.6912 7.37475ZM24.7168 7.44668C24.7168 8.71823 25.3505 9.67894 26.357 9.67894C27.3635 9.67894 27.9773 8.75451 27.9773 7.42479C27.9773 6.38653 27.5184 5.20067 26.3676 5.20067C25.2169 5.20067 24.7168 6.34463 24.7168 7.44668Z" fill="white"/>
<path d="M32.2706 7.03388H32.2974C32.4541 6.77619 32.6452 6.49536 32.8175 6.25831L34.4259 4.13677H36.4296L33.9839 6.83373L36.7736 10.7435H34.7275L32.8313 7.8232L32.2699 8.49307V10.7435H30.6028V1.10768H32.2699L32.2706 7.03388Z" fill="white"/>
<path d="M42.9075 8.76389C42.9075 9.54884 42.9319 10.2056 42.9618 10.7435H41.5045L41.424 9.74461H41.3853C41.1068 10.2081 40.4549 10.8923 39.273 10.8923C38.091 10.8923 36.9765 10.1693 36.9765 8.01022V4.13614H38.6455V7.73126C38.6455 8.82831 38.992 9.53132 39.8755 9.53132C40.543 9.53132 40.9763 9.06536 41.1486 8.6388C41.2048 8.49494 41.2385 8.31544 41.2385 8.12217V4.13552H42.9075V8.76389Z" fill="white"/>
<path d="M45.8683 7.03388H45.8952C46.0519 6.77619 46.243 6.49536 46.4153 6.25831L48.0237 4.13677H50.0273L47.5816 6.83373L50.3714 10.7435H48.3253L46.429 7.8232L45.8677 8.49307V10.7435H44.2006V1.10768H45.8677L45.8683 7.03388Z" fill="white"/>
<path d="M56.7138 7.37475C56.7138 9.8034 55.0124 10.8923 53.3259 10.8923C51.4653 10.8923 50.0255 9.60576 50.0255 7.48859C50.0255 5.37142 51.4509 3.98666 53.4383 3.98666C55.4257 3.98666 56.7145 5.37204 56.7145 7.37413L56.7138 7.37475ZM51.7394 7.44668C51.7394 8.71823 52.3731 9.67894 53.3796 9.67894C54.3861 9.67894 54.9999 8.75451 54.9999 7.42479C54.9999 6.38653 54.541 5.20067 53.3903 5.20067C52.2395 5.20067 51.7394 6.34463 51.7394 7.44668Z" fill="white"/>
<path d="M57.6123 6.1007C57.6123 5.33764 57.588 4.70843 57.558 4.13614H58.9822L59.0584 5.10622H59.0971C59.4156 4.59398 60.0156 3.98666 61.1282 3.98666C62.0018 3.98666 62.6742 4.47264 62.9577 5.20505H62.9845C63.2149 4.84353 63.4928 4.56708 63.7912 4.37507C64.1665 4.12238 64.5817 3.98666 65.1318 3.98666C66.2219 3.98666 67.3334 4.7347 67.3334 6.85375V10.7428H65.7068V7.08829C65.7068 5.98687 65.3266 5.34077 64.5305 5.34077C63.9598 5.34077 63.5421 5.74419 63.371 6.22016C63.3179 6.37965 63.2861 6.59106 63.2861 6.77807V10.7428H61.6596V6.92255C61.6596 5.99187 61.2881 5.34077 60.5213 5.34077C59.8963 5.34077 59.478 5.83175 59.3213 6.28458C59.262 6.45221 59.2382 6.64985 59.2382 6.83686V10.7422H57.6117V6.10007L57.6123 6.1007Z" fill="white"/>
</svg>
