<svg width="140" height="67" viewBox="0 0 140 67" fill="none" xmlns="http://www.w3.org/2000/svg">
<path d="M28.534 44.647L32.5359 47.4991V30.0877L28.534 32.9407V44.647Z" fill="white"/>
<path d="M36.5698 47.5L40.5708 44.647V32.9397L36.5698 30.0877V47.5Z" fill="white"/>
<path d="M20.5 38.9182L24.5001 41.7703V20.5098H20.5V38.9182Z" fill="white"/>
<path d="M28.534 28.7998L32.5359 25.9477V20.5098H28.534V28.7998Z" fill="white"/>
<path d="M36.5698 25.9468L40.5708 28.7998V20.5098H36.5698V25.9468Z" fill="white"/>
<path d="M44.6047 20.5098V41.7712L48.6057 38.9182V20.5098H44.6047Z" fill="white"/>
<path d="M65.0925 26.288H70.6121V25.6477H65.0925V21.0834H71.051V20.4431H64.4525V31.4918H71.2521V30.8515H65.0925V26.288Z" fill="white"/>
<path d="M52.8911 31.5585H53.5823L57.7424 21.2151L61.9025 31.5585H62.5937L57.7424 19.5L52.8911 31.5585Z" fill="white"/>
<path d="M78.7686 25.859C79.3428 25.2846 79.6976 24.4915 79.6976 23.6153C79.6976 21.8636 78.2786 20.4431 76.5268 20.4431H73.8021V31.4918H74.4422V26.7874H76.5268C76.6895 26.7874 76.8495 26.7756 77.0059 26.7518L79.8841 31.5585H80.6302L77.6505 26.5826C78.0738 26.4225 78.4541 26.1737 78.7686 25.859ZM76.5268 26.1472H74.4422V21.0834H76.5268C77.9229 21.0834 79.0576 22.2194 79.0576 23.6153C79.0576 25.0111 77.9229 26.1472 76.5268 26.1472Z" fill="white"/>
<path d="M87.3832 20.3562C84.3093 20.3562 81.8179 22.8487 81.8179 25.924C81.8179 28.9992 84.3093 31.4918 87.3832 31.4918C90.4571 31.4918 92.9495 28.9992 92.9495 25.924C92.9495 22.8487 90.4571 20.3562 87.3832 20.3562ZM87.3832 30.8515C84.6677 30.8515 82.4579 28.6416 82.4579 25.924C82.4579 23.2064 84.6677 20.9965 87.3832 20.9965C90.0987 20.9965 92.3095 23.2064 92.3095 25.924C92.3095 28.6416 90.0996 30.8515 87.3832 30.8515Z" fill="white"/>
<path d="M52.8911 47.5H53.5814L57.7415 37.1565L61.9025 47.5H62.5928L57.7415 35.4415L52.8911 47.5Z" fill="white"/>
<path d="M109.142 43.3802C109.142 45.2617 107.763 46.7929 106.069 46.7929C104.375 46.7929 102.995 45.2617 102.995 43.3802V36.6983H102.355V43.7186C102.355 45.7703 104.017 47.4332 106.069 47.4332C108.121 47.4332 109.782 45.7703 109.782 43.7186V36.6983H109.142V43.3802Z" fill="white"/>
<path d="M80.1099 42.8963L73.9256 35.7753V47.4332H74.5656V37.4877L80.1108 43.8723L85.6552 37.4877V47.4332H86.2952V35.7753L80.1099 42.8963Z" fill="white"/>
<path d="M69.3952 41.8005C69.9694 41.226 70.3241 40.433 70.3241 39.5567C70.3241 37.8051 68.9042 36.3845 67.1533 36.3845H64.4278V47.4332H65.0678V42.7289H67.1533C67.3161 42.7289 67.4761 42.717 67.6315 42.6932L70.5106 47.5H71.2558L68.277 42.524C68.7003 42.363 69.0807 42.1151 69.3952 41.8005ZM67.1533 42.0886H65.0678V37.0248H67.1533C68.5485 37.0248 69.6841 38.1609 69.6841 39.5567C69.6841 40.9525 68.5485 42.0886 67.1533 42.0886Z" fill="white"/>
<path d="M116.521 42.524C116.945 42.363 117.325 42.1151 117.639 41.8005C118.214 41.226 118.568 40.433 118.568 39.5567C118.568 37.8051 117.148 36.3845 115.398 36.3845H112.672V47.4332H113.312V42.7289H115.398C115.56 42.7289 115.72 42.717 115.876 42.6932L118.754 47.5H119.5L116.521 42.524ZM115.398 42.0886H113.312V37.0248H115.398C116.793 37.0248 117.928 38.1609 117.928 39.5567C117.928 40.9525 116.793 42.0886 115.398 42.0886Z" fill="white"/>
<path d="M94.47 36.2976C91.3961 36.2976 88.9037 38.7902 88.9037 41.8654C88.9037 44.9407 91.3961 47.4332 94.47 47.4332C97.5439 47.4332 100.035 44.9407 100.035 41.8654C100.035 38.7902 97.5439 36.2976 94.47 36.2976ZM94.47 46.7929C91.7536 46.7929 89.5437 44.583 89.5437 41.8654C89.5437 39.1478 91.7536 36.9379 94.47 36.9379C97.1864 36.9379 99.3954 39.1478 99.3954 41.8654C99.3954 44.583 97.1855 46.7929 94.47 46.7929Z" fill="white"/>
</svg>
