<svg width="140" height="67" viewBox="0 0 140 67" fill="none" xmlns="http://www.w3.org/2000/svg">
<path d="M116.639 17.5H23.3607C20.9523 17.5 19 19.4537 19 21.8636V45.1364C19 47.5463 20.9523 49.5 23.3607 49.5H116.639C119.048 49.5 121 47.5463 121 45.1364V21.8636C121 19.4537 119.048 17.5 116.639 17.5Z" fill="#143272"/>
<path d="M60.3072 30.3073C60.3072 30.2273 60.3872 30.0675 60.5469 30.0675H60.8665C61.0262 30.0675 61.1061 30.1474 61.1061 30.3073V35.1838H68.4558V30.3073C68.4558 30.2273 68.5357 30.0675 68.6954 30.0675H69.015C69.1748 30.0675 69.2547 30.1474 69.2547 30.3073V40.9396C69.2547 41.0195 69.1748 41.1794 69.015 41.1794H68.6954C68.6156 41.1794 68.4558 41.0994 68.4558 40.9396V35.8233H61.1061V40.9396C61.1061 41.0195 61.0262 41.1794 60.8665 41.1794H60.5469C60.467 41.1794 60.3072 41.0994 60.3072 40.9396V30.3073Z" fill="#FEDD10"/>
<path d="M76.7636 29.9112C80.039 29.9112 82.6753 32.4694 82.6753 35.5871C82.6753 38.7847 80.039 41.263 76.7636 41.263C73.4883 41.263 70.8519 38.7847 70.8519 35.5871C70.8519 32.4694 73.4883 29.9112 76.7636 29.9112ZM76.7636 40.6234C79.6396 40.6234 81.9563 38.385 81.9563 35.6671C81.9563 32.8691 79.6396 30.6307 76.7636 30.6307C73.8877 30.6307 71.5709 32.8691 71.5709 35.6671C71.5709 38.385 73.8877 40.6234 76.7636 40.6234Z" fill="#FEDD10"/>
<path d="M85.5511 30.787H82.4355C82.2757 30.787 82.1958 30.707 82.1958 30.5471V30.3073C82.1958 30.1474 82.2757 30.0675 82.4355 30.0675H89.4656C89.6254 30.0675 89.7053 30.1474 89.7053 30.3073V30.5471C89.7053 30.6271 89.6254 30.787 89.4656 30.787H86.35V40.9396C86.35 41.0195 86.2701 41.1794 86.1103 41.1794H85.7908C85.7109 41.1794 85.5511 41.0994 85.5511 40.9396V30.787Z" fill="#FEDD10"/>
<path d="M91.2224 30.3073C91.2224 30.2273 91.3023 30.0675 91.462 30.0675H98.0127C98.0926 30.0675 98.2525 30.1474 98.2525 30.3073V30.5471C98.2525 30.6271 98.1726 30.787 98.0127 30.787H92.0211V35.1038H97.2139C97.2939 35.1038 97.4538 35.1838 97.4538 35.3436V35.5835C97.4538 35.6634 97.3738 35.8233 97.2139 35.8233H92.0211V40.4599H98.0127C98.0926 40.4599 98.2525 40.5399 98.2525 40.6997V40.9396C98.2525 41.0195 98.1726 41.1794 98.0127 41.1794H91.462C91.3822 41.1794 91.2224 41.0994 91.2224 40.9396V30.3073Z" fill="#FEDD10"/>
<path d="M100.25 30.3073C100.25 30.2273 100.33 30.0675 100.49 30.0675H100.889C100.968 30.0675 101.048 30.1474 101.048 30.3073V40.4599H106.241C106.401 40.4599 106.481 40.5399 106.481 40.6997V41.0195C106.481 41.0994 106.401 41.1794 106.241 41.1794H100.49C100.41 41.1794 100.25 41.0994 100.25 40.9396V30.3073Z" fill="#FEDD10"/>
<path d="M107.441 39.6641L107.6 39.5042C107.68 39.3444 107.84 39.3444 108 39.4243C108.16 39.5841 109.358 40.6234 111.036 40.6234C112.553 40.6234 113.752 39.6641 113.752 38.5449C113.752 37.106 112.553 36.5464 110.556 35.8269C108.639 35.1873 107.361 34.5479 107.361 32.7092C107.361 31.51 108.32 29.9112 110.876 29.9112C112.474 29.9112 113.672 30.7106 113.672 30.7106C113.752 30.7905 113.832 30.8705 113.752 31.0304C113.672 31.1103 113.672 31.1903 113.592 31.2703C113.513 31.4301 113.433 31.4301 113.193 31.3502C113.113 31.3502 112.074 30.6307 110.796 30.6307C108.799 30.6307 108 31.8298 108 32.7092C108 34.0682 109.039 34.6278 110.716 35.1873C112.953 35.9068 114.391 36.7063 114.391 38.5449C114.391 40.1438 112.713 41.3429 110.796 41.3429C108.879 41.3429 107.521 40.2237 107.281 40.0639C107.361 39.9039 107.281 39.824 107.441 39.6641Z" fill="#FEDD10"/>
<path d="M46.2471 26.1385H49.0432V30.8551C50.0019 29.8958 51.36 29.4961 52.6382 29.4961C56.1532 29.4961 58.47 32.4539 58.47 35.4117C58.47 37.6501 56.9521 41.4073 52.7181 41.4073C50.4812 41.4073 49.5226 40.4481 48.8036 39.7286V41.0876H46.2471V26.1385ZM52.3985 38.9292C54.2359 38.9292 55.7538 37.5702 55.7538 35.4117C55.7538 33.2533 54.156 31.8943 52.3985 31.8943C50.2415 31.8943 48.9633 33.653 48.9633 35.2519C48.8835 37.73 50.7209 38.9292 52.3985 38.9292Z" fill="#FEDD10"/>
<path d="M45.289 41.0137H42.7326V39.6548C41.8538 40.694 40.1761 41.4135 38.6583 41.4135C35.7024 41.4135 32.9862 39.0951 32.9862 35.4178C32.9862 31.9803 35.5427 29.5021 38.8181 29.5021C41.2147 29.5021 42.5728 31.1009 42.6527 31.2609H42.7326V29.8219H45.289V41.0137ZM39.2974 31.9004C36.9806 31.9004 35.8622 33.819 35.8622 35.4977C35.8622 37.4164 37.3002 38.9353 39.2974 38.9353C41.2147 38.9353 42.6527 37.4963 42.6527 35.4178C42.6527 33.0995 40.975 31.9004 39.2974 31.9004Z" fill="#FEDD10"/>
<path d="M33.5459 25.5873C32.9069 25.5873 32.3476 25.7473 31.7884 25.9071C30.9896 26.2269 30.2705 26.7865 29.7912 27.506C29.3119 28.1455 29.0722 28.9449 28.9924 29.8243H25.8767V32.1426H28.9924V40.9362H31.7884V29.9841C31.7884 29.7444 31.8683 29.5045 31.9482 29.3447C32.108 29.0249 32.2677 28.785 32.5873 28.6252C32.827 28.3853 33.1465 28.3054 33.5459 28.3054H34.8242V25.5873H33.5459Z" fill="#FEDD10"/>
</svg>
