<svg width="57" height="17" viewBox="0 0 57 17" fill="none" xmlns="http://www.w3.org/2000/svg">
<path d="M6.09289 0.0506943C6.27196 0.841814 6.4512 1.63293 6.63062 2.42405C6.64566 2.4898 6.63412 2.54209 6.59599 2.58091C6.53899 2.63932 6.49299 2.6318 6.45802 2.55835C6.34628 2.3228 6.2529 2.05315 6.12961 1.84645C5.6697 1.07737 4.99364 0.599616 4.10145 0.413203C4.09738 0.412419 4.09318 0.412539 4.08917 0.413554C4.08515 0.41457 4.08142 0.416454 4.07826 0.41907C4.07509 0.421686 4.07256 0.424967 4.07085 0.428672C4.06914 0.432377 4.06831 0.436413 4.0684 0.440483C4.07399 2.37107 4.08064 4.30008 4.08833 6.22751C4.08938 6.41532 4.14464 6.57323 4.25411 6.70124C4.43825 6.87489 4.70843 6.8859 4.94608 6.92892C5.02617 6.94361 5.06849 6.98733 5.07304 7.06007C5.0524 7.12513 5.01463 7.15783 4.95972 7.15818C3.84789 7.15958 2.7329 7.16063 1.61477 7.16132C1.56126 7.09487 1.55304 7.03192 1.59012 6.97246C1.5992 6.95799 1.6137 6.94762 1.63051 6.94361C2.21074 6.81088 2.54124 6.85338 2.54911 6.13623C2.57045 4.28259 2.56992 2.42895 2.54754 0.575309L2.56328 0.480879C2.56487 0.471504 2.56411 0.46188 2.56104 0.452877C2.55798 0.443874 2.55272 0.435776 2.54574 0.429318C2.53876 0.422859 2.53028 0.418243 2.52107 0.415887C2.51186 0.413531 2.5022 0.413511 2.49298 0.415826C1.37135 0.689675 0.618006 1.36608 0.232939 2.44504C0.213003 2.5017 0.157919 2.55153 0.117523 2.59508C0.0678597 2.59787 0.0311367 2.57462 0.00735415 2.5253C-0.000104923 2.50971 -0.00195869 2.4921 0.00210788 2.47546L0.609087 0.0910897C0.630422 0.00680156 0.673965 -0.00683836 0.739717 0.0501698C0.845689 0.141977 1.01461 0.181848 1.16938 0.181848H5.63175C5.74367 0.181848 5.8757 0.123965 6.02784 0.00820044C6.03411 0.00326635 6.0418 0.000418005 6.04987 4.256e-05C6.05795 -0.000332885 6.066 0.00178293 6.07295 0.00610214C6.08589 0.014496 6.09254 0.02936 6.09289 0.0506943ZM30.4219 0.0900405C30.651 1.14032 30.8252 1.92287 30.9444 2.43769C30.9675 2.53667 30.9369 2.58983 30.8526 2.59718L30.8044 2.57042C30.7903 2.56258 30.779 2.5505 30.7718 2.5358C30.6533 2.29657 30.5447 2.0159 30.4261 1.8155C30.24 1.50283 30.0019 1.233 29.7116 1.00602C29.3311 0.706288 28.9024 0.511831 28.4257 0.422646C28.4226 0.422115 28.4194 0.422272 28.4163 0.423105C28.4132 0.423938 28.4104 0.425429 28.4079 0.427473C28.4055 0.429518 28.4035 0.432068 28.4022 0.434948C28.4008 0.437828 28.4001 0.44097 28.4 0.444156C28.4 2.33172 28.4002 4.21929 28.4006 6.10685C28.4006 6.33925 28.4242 6.61573 28.6403 6.75475C28.8138 6.84638 29.0179 6.90252 29.2525 6.92315C29.3298 6.93015 29.3786 6.97386 29.3989 7.0543C29.3758 7.1246 29.326 7.15975 29.2494 7.15975C28.1467 7.15975 27.0401 7.16045 25.9296 7.16185C25.8838 7.10169 25.8726 7.04276 25.8961 6.98505C25.8992 6.97753 25.904 6.9708 25.9102 6.96535C25.9164 6.9599 25.9237 6.95588 25.9317 6.95358C26.5655 6.77783 26.8619 6.87331 26.8655 6.07747C26.8743 4.23922 26.8736 2.40079 26.8634 0.562194C26.8862 0.519525 26.8869 0.477731 26.8655 0.436811C26.8621 0.430029 26.8565 0.424591 26.8496 0.42136C26.8426 0.418128 26.8348 0.417289 26.8272 0.418974C25.8132 0.637214 25.1097 1.22478 24.6789 2.14968C24.6066 2.30497 24.5273 2.45623 24.4413 2.60347C24.3479 2.57689 24.3073 2.53912 24.3196 2.49015C24.5151 1.70218 24.7153 0.907041 24.9203 0.10473C24.9461 0.00330405 24.9986 -0.012959 25.0777 0.0559404C25.1789 0.143551 25.3148 0.181848 25.4596 0.181848H29.7651C29.998 0.181848 30.1433 0.154568 30.3133 0.0181683C30.3198 0.0130704 30.3273 0.0094779 30.3354 0.00765611C30.3434 0.00583431 30.3517 0.00582968 30.3597 0.0076425C30.3677 0.00945531 30.3752 0.0130394 30.3816 0.01813C30.388 0.0232207 30.3932 0.0296879 30.3967 0.0370544L30.4219 0.0900405ZM55.4644 0.21962C55.5309 0.889729 55.5922 1.55791 55.6485 2.22417C55.6585 2.34011 55.7 2.65016 55.551 2.64754C55.3889 2.46392 55.3128 2.18955 55.2226 1.96344C55.0512 1.53466 54.8058 1.15431 54.4865 0.822403C53.986 0.302509 53.1325 0.0533174 52.4904 0.47878C52.068 0.758925 51.8666 1.34177 52.1761 1.79504C52.3461 2.07886 52.7642 2.31598 53.0307 2.4251C53.7961 2.7383 54.5899 3.0027 55.3002 3.43289C55.5587 3.58992 55.7603 3.80029 55.9051 4.064C56.5456 5.54394 55.5053 6.96145 54.0401 7.23739C53.0905 7.41629 52.355 7.15555 51.4815 6.91738C51.1689 6.83239 51.0959 7.08263 50.9191 7.24002C50.8597 7.17462 50.8273 7.09627 50.8221 7.00499C50.7728 6.15354 50.8053 5.28478 50.788 4.37562C50.7864 4.28171 50.8189 4.18938 50.9323 4.21929C51.0116 4.38122 51.0903 4.61362 51.1683 4.9165C51.2418 5.20259 51.3897 5.53047 51.6122 5.90015C51.8311 6.28382 52.1041 6.58407 52.4311 6.80091C53.1718 7.29248 54.2998 7.13142 54.7037 6.25584C54.9146 5.79768 54.844 5.34266 54.4918 4.89079C54.347 4.7369 54.2094 4.62674 54.0789 4.56029C53.2977 4.1642 52.3335 3.94229 51.5618 3.39302C50.9254 2.91037 50.6621 2.08148 50.9789 1.34754C51.2544 0.709611 51.8928 0.266311 52.5722 0.115747C53.3497 -0.0568516 54.0396 0.106828 54.7782 0.36284C54.8314 0.381377 54.9235 0.40411 55.0547 0.43104C55.0634 0.432844 55.0724 0.432648 55.081 0.430468C55.0896 0.428288 55.0977 0.424179 55.1045 0.418449C55.1979 0.341506 55.2649 0.244977 55.3054 0.128862C55.3082 0.12118 55.3133 0.114542 55.3198 0.10985C55.3264 0.105157 55.3342 0.102637 55.3422 0.102631C55.4044 0.102981 55.4452 0.141977 55.4644 0.21962Z" fill="white"/>
<path d="M9.97297 0.304093C9.88624 0.399573 9.78009 0.459904 9.65453 0.485085C9.33662 0.548039 9.15353 0.75159 9.14513 1.08734C9.12904 1.69939 9.12625 2.4419 9.13674 3.31486C9.13688 3.322 9.13981 3.32881 9.14491 3.33381C9.15001 3.33881 9.15687 3.34162 9.16402 3.34161L11.7808 3.34109C11.7878 3.34109 11.7944 3.33833 11.7993 3.33341C11.8043 3.32849 11.807 3.32182 11.807 3.31486C11.8109 2.59229 11.8105 1.87182 11.806 1.15344C11.8046 0.92751 11.7313 0.747218 11.5862 0.612567C11.4199 0.482462 11.2294 0.470921 11.0353 0.406918C10.9657 0.34921 10.9481 0.298672 10.9823 0.255304C11.0205 0.207039 11.0701 0.182907 11.1313 0.182907L13.9527 0.182382C13.9994 0.182056 14.045 0.196768 14.0828 0.224352C14.1059 0.241139 14.1195 0.263698 14.1237 0.292027C14.1064 0.463576 13.7245 0.465675 13.5881 0.553285C13.159 0.828184 13.288 1.6277 13.2891 2.01329C13.2912 3.37309 13.292 4.73272 13.2917 6.09217C13.2912 6.31356 13.3169 6.59003 13.512 6.72643C13.6552 6.86703 13.8698 6.88486 14.0503 6.94047C14.0664 6.9456 14.0807 6.95524 14.0917 6.96828L14.1195 7.00185C14.1241 7.10608 14.0753 7.15819 13.9732 7.15819C12.9949 7.16099 12.016 7.15994 11.0364 7.15504C10.9015 6.98979 11.0217 6.93575 11.1654 6.90795C11.6811 6.80722 11.7881 6.61206 11.7986 6.11315C11.8165 5.29895 11.8149 4.48475 11.7939 3.67055C11.8121 3.64676 11.8161 3.62211 11.806 3.59658C11.804 3.59131 11.8004 3.58679 11.7958 3.5836C11.7912 3.58041 11.7858 3.57872 11.7803 3.57874H9.1509C9.14911 3.57874 9.14734 3.57909 9.14568 3.57978C9.14403 3.58046 9.14252 3.58147 9.14126 3.58273C9.13999 3.584 9.13899 3.5855 9.1383 3.58716C9.13762 3.58881 9.13726 3.59059 9.13726 3.59238C9.12782 4.47618 9.13044 5.35893 9.14513 6.24064C9.14828 6.42845 9.21333 6.58688 9.34029 6.71594C9.47074 6.82016 9.64229 6.88924 9.85494 6.92316C9.91264 6.93225 9.94902 6.97038 9.96406 7.03753C9.95147 7.11097 9.90303 7.14822 9.81874 7.14927C8.84645 7.16256 7.86927 7.16483 6.88719 7.15609C6.84137 7.11342 6.82546 7.05799 6.83945 6.98979C6.84103 6.98182 6.84474 6.97441 6.85018 6.96833C6.85562 6.96224 6.8626 6.9577 6.8704 6.95516C7.29534 6.81299 7.65103 6.78833 7.65103 6.21808C7.65138 4.51658 7.65243 2.8149 7.65418 1.11305C7.65453 0.955665 7.60119 0.810696 7.49417 0.678144C7.41898 0.592806 7.32699 0.533 7.21822 0.498725C7.10001 0.461652 6.97148 0.432274 6.83263 0.41059C6.82354 0.335745 6.83158 0.278562 6.85676 0.239041C6.87845 0.205465 6.92496 0.188328 6.99631 0.187629C7.92418 0.178885 8.85187 0.178185 9.77939 0.18553C9.86753 0.18623 9.93206 0.225751 9.97297 0.304093ZM19.9428 0.208089C20.1708 0.934855 20.4007 1.6611 20.6326 2.38681C20.6599 2.47285 20.662 2.56204 20.544 2.55784C20.5037 2.5386 20.4786 2.51937 20.4684 2.50013C20.3044 2.18186 20.1197 1.87619 19.9144 1.5831C19.1989 0.605747 18.1281 0.361276 16.9755 0.421082C16.9686 0.421484 16.962 0.424535 16.9573 0.429608C16.9525 0.434681 16.9498 0.441392 16.9498 0.448362L16.9483 3.31433C16.9483 3.32188 16.9509 3.32921 16.9558 3.33504C16.9607 3.34088 16.9675 3.34487 16.975 3.34634C17.0065 3.35228 17.0376 3.35036 17.0684 3.34056C17.8029 3.36102 18.4859 2.9492 18.6239 2.19795C18.6529 2.03882 18.6874 1.90767 18.7272 1.80449C18.7302 1.79674 18.7348 1.78969 18.7407 1.78382C18.7465 1.77794 18.7536 1.77337 18.7613 1.77039C18.8124 1.74941 18.8565 1.76637 18.8935 1.82128C18.9093 3.04503 18.9119 4.15879 18.9014 5.16255C18.9007 5.23425 18.8668 5.28409 18.7996 5.31207C18.6643 5.31207 18.6281 4.9632 18.5893 4.75965C18.5641 4.62675 18.5023 4.4823 18.4041 4.32632C18.0816 3.8017 17.6063 3.55338 16.9782 3.58136C16.971 3.58176 16.9643 3.58485 16.9593 3.59001C16.9544 3.59516 16.9515 3.60201 16.9514 3.60917C16.9483 4.49122 16.9497 5.37397 16.9556 6.25742C16.957 6.43964 17.0117 6.60122 17.1198 6.74217C17.23 6.84709 17.3781 6.90497 17.5642 6.91582C19.0798 7.00448 20.2407 6.0523 20.6594 4.62482C20.6814 4.54963 20.7229 4.48737 20.7837 4.43806C20.8484 4.3856 20.9007 4.41043 20.9406 4.51255L20.3509 7.13983C20.3497 7.14531 20.3467 7.15023 20.3424 7.15376C20.3381 7.15729 20.3328 7.15922 20.3273 7.15924C18.4835 7.15959 16.6384 7.15941 14.7921 7.15871C14.7611 7.15871 14.7134 7.1414 14.6814 7.1351C14.5188 6.94257 14.8529 6.89483 14.9542 6.86965C15.4222 6.75371 15.4646 6.4531 15.4652 6.0182C15.468 4.36671 15.4687 2.71522 15.4673 1.06374C15.4669 0.905302 15.3975 0.762781 15.259 0.636174C15.1048 0.508168 14.9231 0.439619 14.7139 0.430525C14.6478 0.379813 14.6249 0.330324 14.6452 0.282059C14.6728 0.216308 14.7223 0.183432 14.7937 0.183432L19.9113 0.181333C19.9155 0.181349 19.9197 0.182357 19.9234 0.184272C19.9272 0.186188 19.9304 0.188957 19.9328 0.19235L19.9428 0.208089ZM34.3828 0.286781C34.3761 0.375616 34.3239 0.425629 34.2259 0.436821C33.6798 0.497676 33.5717 0.811396 33.5707 1.29666C33.5679 2.86596 33.5672 4.43509 33.5686 6.00403C33.5686 6.25008 33.5723 6.53599 33.7538 6.72223L34.3975 6.99923C34.3786 7.14402 34.334 7.14822 34.2275 7.14979C33.2493 7.16343 32.2682 7.16501 31.2844 7.15452C31.2099 7.09576 31.1496 6.96933 31.2744 6.93733C31.8012 6.80302 32.0252 6.70964 32.0273 6.08063C32.0329 4.44663 32.0355 2.81263 32.0351 1.17863C32.0351 1.02824 31.9988 0.888339 31.926 0.758934C31.7608 0.476167 31.5158 0.494004 31.2587 0.405344C31.1783 0.330499 31.1706 0.271742 31.2356 0.229073C31.2794 0.199984 31.3309 0.184305 31.3836 0.183956C32.3377 0.180459 33.2624 0.180459 34.1577 0.183956C34.2679 0.184306 34.3429 0.218581 34.3828 0.286781ZM37.1632 0.234319L39.0629 5.03664L39.1547 5.26066C39.1638 5.28304 39.1729 5.28286 39.182 5.26013L41.1477 0.214384C41.1506 0.206784 41.1558 0.200229 41.1625 0.195556C41.1692 0.190884 41.1772 0.188306 41.1855 0.188153C41.8318 0.17871 42.4758 0.178011 43.1176 0.186055C43.2075 0.187104 43.2596 0.234319 43.274 0.327701C43.1932 0.399748 43.1008 0.448887 42.997 0.475118C42.4629 0.610468 42.4361 0.907925 42.4351 1.40159C42.432 2.97228 42.4325 4.54281 42.4367 6.11315C42.4374 6.33384 42.4925 6.52078 42.6019 6.67397C42.7373 6.86388 43.0012 6.87962 43.2058 6.94047C43.2219 6.94516 43.2354 6.9559 43.2435 6.97038L43.275 7.02808C43.2652 7.11237 43.2197 7.15504 43.1386 7.15609C42.3545 7.16378 41.3936 7.16308 40.2558 7.15399C40.0203 6.92946 40.4893 6.87594 40.6 6.84289C40.8996 6.75318 41.0123 6.50609 41.0165 6.20181C41.041 4.38735 41.0419 2.83973 41.0192 1.55897C41.0367 1.4502 41.0353 1.33968 41.015 1.22742C41.0118 1.20993 41.0071 1.20958 41.0008 1.22637C40.2226 3.20312 39.445 5.17986 38.6678 7.15661C38.635 7.2402 38.5874 7.28987 38.5251 7.3056C38.4629 7.24125 38.4006 7.12793 38.3384 6.96565C38.0425 6.19657 37.3309 4.41113 36.2037 1.60934L36.0484 1.22742C36.0404 1.20748 36.0364 1.20835 36.0364 1.23004C36.022 2.93014 36.028 4.36007 36.0542 5.51981C36.0612 5.83493 36.1507 6.14236 36.3228 6.44209C36.4372 6.64039 36.5858 6.76543 36.7687 6.81719C37.002 6.88329 37.173 6.95656 37.2818 7.037C37.2458 7.11709 37.1835 7.15731 37.095 7.15766C35.8139 7.16151 35.0228 7.16186 34.7217 7.15871C34.7073 7.15836 34.6767 7.1491 34.6299 7.13091C34.4767 6.92106 34.9006 6.88486 34.9987 6.84499C35.709 6.55698 35.7924 5.80416 35.7971 5.14891C35.8073 3.78631 35.8108 2.42354 35.8076 1.06059C35.8069 0.885366 35.7379 0.74477 35.6004 0.638797C35.4016 0.464625 35.1409 0.432099 34.8959 0.372293C34.8735 0.357254 34.853 0.335045 34.8345 0.305667C34.8302 0.298629 34.8277 0.290638 34.8273 0.282462C34.827 0.274285 34.8287 0.266198 34.8324 0.258976C34.8593 0.206865 34.9088 0.180809 34.9808 0.180809C35.6936 0.179759 36.4066 0.180459 37.1197 0.182907C37.1275 0.182923 37.1351 0.18547 37.1414 0.190184C37.1477 0.194897 37.1524 0.201533 37.1549 0.209138L37.1632 0.234319ZM49.1113 0.26055C49.3408 0.98242 49.5725 1.70359 49.8065 2.42406C49.8222 2.47198 49.8112 2.51325 49.7734 2.54787C49.7675 2.55328 49.7605 2.55731 49.7527 2.55966C49.745 2.56202 49.7369 2.56265 49.7288 2.56151L49.6884 2.55574C49.5748 2.40955 49.4473 2.1997 49.306 1.9262C49.143 1.61073 48.8894 1.31712 48.5453 1.04537C47.8685 0.490331 46.9741 0.375965 46.13 0.421607C46.1235 0.421878 46.1173 0.42465 46.1128 0.429343C46.1083 0.434037 46.1058 0.440288 46.1058 0.446788V3.31801C46.1058 3.32168 46.1066 3.32531 46.108 3.32869C46.1094 3.33207 46.1115 3.33513 46.1142 3.33768C46.1168 3.34022 46.12 3.34221 46.1234 3.34352C46.1268 3.34483 46.1305 3.34543 46.1342 3.34529L46.2632 3.34056C46.8272 3.35263 47.3985 3.08298 47.6561 2.56781C47.761 2.35796 47.8035 2.05998 47.8785 1.80712C47.881 1.79903 47.8851 1.79158 47.8906 1.78525C47.8961 1.77892 47.9029 1.77385 47.9105 1.77039C47.9556 1.75011 47.9967 1.75465 48.0338 1.78403C48.0509 1.81586 48.0597 1.84139 48.06 1.86063C48.0614 2.21457 48.0611 3.32832 48.059 5.2019C48.059 5.28584 48.0112 5.32256 47.9158 5.31207L47.8822 5.28426C47.8692 5.27367 47.8598 5.25918 47.8554 5.24282C47.7416 4.8289 47.7285 4.49 47.4174 4.12749C47.0834 3.73822 46.6553 3.55601 46.1331 3.58084C46.126 3.58124 46.1193 3.58435 46.1145 3.58952C46.1096 3.59469 46.1069 3.60153 46.1069 3.60864C46.1051 4.47181 46.1092 5.33515 46.1189 6.19867C46.1216 6.44786 46.1515 6.71331 46.4054 6.83135C46.4659 6.87017 46.5191 6.89256 46.5649 6.8985C47.7295 7.04487 48.8076 6.50609 49.423 5.52401C49.6118 5.22341 49.7535 4.84831 49.8815 4.49524C49.8885 4.47557 49.901 4.4583 49.9173 4.4454C49.9336 4.4325 49.9532 4.4245 49.9738 4.42232C50.0378 4.41533 50.0782 4.44016 50.095 4.49682L49.5095 7.12986C49.5079 7.13684 49.5039 7.14307 49.4983 7.14755C49.4927 7.15202 49.4858 7.15447 49.4786 7.15452L43.8626 7.15871C43.8335 7.12968 43.8134 7.10048 43.8022 7.0711C43.7739 6.99696 43.7984 6.95114 43.8757 6.93365C44.2917 6.84027 44.6201 6.73482 44.6212 6.23119C44.625 4.52515 44.6261 2.8191 44.6243 1.11305C44.624 0.949369 44.5713 0.809647 44.4664 0.693882C44.3074 0.489807 44.0966 0.479839 43.8762 0.420033C43.8391 0.405344 43.8129 0.379113 43.7975 0.341341C43.7629 0.256703 43.7911 0.211061 43.882 0.204416C43.9743 0.198121 44.0777 0.182907 44.1658 0.182907C45.7967 0.181508 47.4275 0.181333 49.0584 0.182382C49.0667 0.182374 49.0749 0.184439 49.0821 0.188384C49.0894 0.192329 49.0954 0.198025 49.0998 0.204941C49.1103 0.221379 49.1141 0.239915 49.1113 0.26055Z" fill="white"/>
<path d="M47.8276 9.6459C48.6956 11.7444 49.562 13.8432 50.4265 15.9423C50.48 16.0721 50.5533 16.1912 50.6463 16.2996C50.8488 16.5719 51.1458 16.5241 51.3651 16.7203C51.3479 16.7969 51.3119 16.8354 51.257 16.8357C50.2543 16.8382 49.2498 16.8398 48.2436 16.8405C48.1799 16.8006 48.1597 16.7607 48.1827 16.7209C48.2167 16.6631 48.2665 16.6282 48.3323 16.6159C48.6601 16.5551 49.0625 16.4502 48.8889 15.9958C48.6024 15.2442 48.3961 14.7156 48.2698 14.4099C48.2695 14.3875 48.2641 14.3655 48.2536 14.3438C48.2505 14.3371 48.2455 14.3314 48.2393 14.3274C48.2331 14.3234 48.2258 14.3213 48.2184 14.3213L45.9788 14.3176C45.9663 14.3176 45.9541 14.3213 45.9438 14.3284C45.9335 14.3354 45.9256 14.3453 45.9211 14.3569C45.6976 14.934 45.2795 15.8337 45.8545 16.3662C45.9342 16.4554 46.0273 16.5136 46.1336 16.5409C46.2001 16.558 46.2658 16.5775 46.3309 16.5991C46.4277 16.6313 46.4846 16.6761 46.5014 16.7334C46.4968 16.7912 46.4713 16.8233 46.4248 16.83C46.2049 16.8625 45.9022 16.8378 45.7443 16.8384C45.1484 16.8391 44.5526 16.8391 43.957 16.8384L44.0115 16.7408C44.016 16.7329 44.0177 16.7237 44.0163 16.7146C44.0149 16.7056 44.0104 16.6972 44.0037 16.691L43.926 16.6175C43.9237 16.6152 43.9219 16.6124 43.9209 16.6093C43.9199 16.6062 43.9197 16.6029 43.9203 16.5997C43.9208 16.5965 43.9222 16.5935 43.9242 16.5909C43.9262 16.5883 43.9288 16.5863 43.9318 16.585C44.9905 16.1202 45.3315 15.1601 45.7286 14.1712C46.1224 13.1912 46.5061 12.2258 46.8796 11.2748C46.9195 11.1741 46.8967 11.0902 46.8114 11.023L46.5643 10.8294C46.5608 10.8266 46.5579 10.823 46.5559 10.819C46.5539 10.8149 46.5529 10.8105 46.5528 10.8059C46.5528 10.8014 46.5537 10.7969 46.5556 10.7928C46.5575 10.7887 46.5603 10.7851 46.5638 10.7822C47.048 10.3798 47.3077 10.1222 47.5726 9.65062C47.6132 9.57822 47.6702 9.56178 47.7436 9.60131L47.8276 9.6459ZM46.1976 14.082L48.1093 14.081C48.1122 14.0809 48.1151 14.0802 48.1176 14.0788C48.1202 14.0774 48.1224 14.0754 48.124 14.0729C48.1257 14.0704 48.1267 14.0676 48.1271 14.0646C48.1274 14.0617 48.1271 14.0586 48.1261 14.0558C47.8271 13.2427 47.5011 12.4274 47.1482 11.6101C47.1521 11.5516 47.1311 11.4903 47.0852 11.4259C47.0748 11.4109 47.0662 11.4119 47.0595 11.4291L46.0323 14.0495C46.0312 14.0526 46.0307 14.0558 46.0311 14.0591C46.0314 14.0623 46.0326 14.0654 46.0344 14.0681C46.0362 14.0709 46.0386 14.0731 46.0414 14.0747C46.0443 14.0763 46.0475 14.0772 46.0507 14.0773L46.1976 14.082Z" fill="white"/>
<path d="M11.689 11.4349C12.4287 12.6672 12.3694 14.411 11.4875 15.5594C10.1991 17.2376 7.62215 17.4768 6.0142 16.117C5.41125 15.6064 5.02758 14.9844 4.8632 14.251C4.24048 11.4747 6.43862 9.33272 9.19494 9.78808C10.2634 9.96471 11.0947 10.5136 11.689 11.4349ZM7.02199 15.988C7.32382 16.4486 7.75208 16.703 8.30677 16.7513C10.347 16.9291 10.6135 14.3638 10.5285 12.9415C10.4782 12.1043 10.3376 11.0671 9.72113 10.4669C9.27276 10.0165 8.72646 9.85768 8.08224 9.99059C6.3573 10.3473 6.3211 12.984 6.4638 14.2846C6.52728 14.8653 6.67732 15.5053 7.02199 15.988ZM18.0017 9.91347C18.0069 9.95789 18.0163 10.0011 18.03 10.043C18.2479 10.716 18.4649 11.389 18.681 12.0623C18.7031 12.1315 18.6973 12.2433 18.6244 12.2658C18.6003 12.2734 18.5743 12.2722 18.5511 12.2625C18.5279 12.2528 18.5089 12.2352 18.4974 12.2129C18.3007 11.833 18.0803 11.3992 17.8259 11.098C17.1418 10.288 16.1408 10.0588 15.1131 10.0997C15.1064 10.0998 15.1 10.1026 15.0953 10.1074C15.0906 10.1122 15.0879 10.1187 15.0879 10.1254V13.0606C15.0879 13.0641 15.0886 13.0674 15.09 13.0706C15.0913 13.0737 15.0932 13.0766 15.0957 13.079C15.0981 13.0814 15.101 13.0833 15.1042 13.0845C15.1074 13.0858 15.1108 13.0864 15.1142 13.0863L15.1892 13.0853C16.0774 13.0748 16.6843 12.5811 16.7625 11.6541C16.7681 11.587 16.8012 11.5386 16.8617 11.5088C16.8935 11.4927 16.9251 11.4976 16.9566 11.5235C16.9706 11.5354 16.9816 11.5497 16.9897 11.5665L17.0028 11.5943L16.9996 14.9597C16.9996 15.0087 16.9634 15.0425 16.891 15.061C16.7588 14.9886 16.7226 14.6465 16.6885 14.5044C16.6221 14.2267 16.4908 13.9936 16.2946 13.8051C15.9829 13.4599 15.5911 13.2976 15.1189 13.3182C15.1118 13.3185 15.1051 13.3215 15.1001 13.3265C15.0951 13.3316 15.0923 13.3384 15.0921 13.3455C15.0848 14.1705 15.0851 14.9947 15.0932 15.818C15.0953 16.0272 15.1385 16.2012 15.2228 16.34C15.4247 16.6301 15.9997 16.5283 16.048 16.7303C16.0382 16.8024 16.0067 16.8384 15.9536 16.8384C14.9278 16.8356 13.8993 16.8373 12.8683 16.8436C12.767 16.7954 12.7576 16.648 12.8604 16.6191C13.4915 16.4423 13.6022 16.3615 13.6075 15.6611C13.6218 13.5847 13.6236 11.9574 13.6127 10.7791C13.6117 10.6675 13.5767 10.5652 13.5078 10.4722C13.3824 10.1826 13.1133 10.1737 12.8583 10.0992C12.8188 10.082 12.7957 10.0527 12.7891 10.011C12.773 9.90962 12.8162 9.85908 12.9187 9.85943L17.9586 9.8778C17.9647 9.87778 17.9708 9.87931 17.9762 9.88224C17.9816 9.88517 17.9862 9.88941 17.9896 9.89458L18.0017 9.91347ZM25.3594 10.0053L25.3337 10.052C25.3255 10.0662 25.3127 10.077 25.2975 10.0824C24.8888 10.2246 24.6087 10.2036 24.5609 10.7345C24.5368 11.0052 24.53 11.314 24.5405 11.661C24.5565 12.1901 24.5581 13.469 24.5452 15.4975C24.5431 15.8642 24.5001 16.2818 24.8133 16.4559C24.9402 16.5651 25.1417 16.5735 25.2985 16.6312C25.3138 16.6369 25.3264 16.6479 25.3342 16.6621L25.3594 16.7072C25.3674 16.7922 25.3394 16.8349 25.2754 16.8352L22.251 16.8384C22.2178 16.8202 22.1954 16.7931 22.1839 16.7571C22.1615 16.6871 22.1856 16.6417 22.2563 16.6207C22.385 16.5825 22.5137 16.546 22.6424 16.511C22.9325 16.4329 22.9991 16.0137 23.0002 15.7377C23.0075 13.6671 22.9871 12.5124 23.0107 11.2334C23.017 10.916 23.0296 10.5477 22.7998 10.3179C22.6623 10.1758 22.4357 10.1453 22.251 10.0971C22.1807 10.0551 22.1589 10.0048 22.1855 9.94599C22.1954 9.92444 22.2111 9.90611 22.2309 9.89312C22.2507 9.88013 22.2736 9.873 22.2972 9.87255C23.2618 9.85296 24.2248 9.85454 25.1863 9.87727C25.2891 9.87972 25.3468 9.92239 25.3594 10.0053ZM31.1695 10.4512C30.968 10.2298 30.6753 10.1359 30.3862 10.0782L30.3264 10.0048C30.3214 9.99867 30.3183 9.99125 30.3175 9.98342C30.3167 9.97559 30.3181 9.96769 30.3217 9.96068C30.3525 9.89983 30.4189 9.86853 30.5211 9.86678C31.4514 9.85174 32.2383 9.85506 32.8818 9.87675C32.9441 9.87884 32.9756 9.91557 32.9763 9.98691C32.7989 10.1223 32.5713 10.1606 32.4238 10.2508C31.873 10.5897 31.8158 11.3068 31.8137 11.907C31.8074 13.5466 31.8006 15.2014 31.7933 16.8714C31.7932 16.9074 31.7829 16.9427 31.7634 16.9732C31.7375 17.0134 31.6917 17.0084 31.6259 16.958L27.1431 11.2775L27.0455 11.1484C27.0203 11.1148 27.0079 11.119 27.0082 11.161C27.0215 12.3921 27.027 13.6232 27.0245 14.8543C27.024 15.2588 27.0764 15.8495 27.3487 16.2088C27.5743 16.499 27.8183 16.5278 28.1288 16.6217C28.1995 16.6431 28.2425 16.689 28.2579 16.7597C28.2467 16.8073 28.2164 16.8314 28.1671 16.8321C27.3029 16.8429 26.4359 16.8438 25.5661 16.8347C25.4381 16.5897 25.9034 16.5677 26.0346 16.5068C26.7082 16.1936 26.7533 15.3238 26.7564 14.6444C26.7622 13.4179 26.8157 12.1761 26.7722 10.9512C26.7718 10.9342 26.7655 10.9179 26.7543 10.905L26.3934 10.4884C26.1589 10.2261 25.874 10.1611 25.554 10.0598C25.5225 10.0451 25.4988 10.0242 25.4827 9.99688C25.4355 9.91749 25.458 9.87745 25.5503 9.87675L27.7411 9.85733C27.762 9.85717 27.7826 9.86178 27.8014 9.87078C27.8201 9.87979 27.8365 9.89296 27.8492 9.90927L31.5399 14.6591C31.5528 14.6756 31.5595 14.6733 31.5598 14.6523C31.5713 13.723 31.5766 12.7948 31.5755 11.8677C31.575 11.3824 31.511 10.8158 31.1695 10.4512ZM39.599 11.4165C40.5669 13.1183 40.2842 15.5641 38.3887 16.4811C37.8431 16.745 37.1611 16.831 36.5452 16.8352C36.0052 16.8391 34.8979 16.8403 33.2234 16.8389C33.1877 16.8144 33.1671 16.7817 33.1615 16.7408C33.1524 16.673 33.1809 16.6305 33.247 16.6133C33.8518 16.4549 33.9856 16.3426 33.9861 15.6884C33.9875 14.1002 33.9877 12.5119 33.9867 10.9234C33.9867 10.7957 33.9715 10.6888 33.941 10.6028C33.8826 10.3653 33.7319 10.2186 33.4888 10.1627C33.358 10.1326 33.2606 10.1139 33.1966 10.1065C33.156 10.0313 33.1518 9.97118 33.184 9.92606C33.1927 9.91413 33.204 9.90434 33.217 9.89743C33.23 9.89052 33.2444 9.88667 33.259 9.88619C34.4737 9.84772 35.6695 9.85156 36.8464 9.89773C36.9765 9.90263 37.191 9.9362 37.4901 9.99846C38.3871 10.1845 39.0901 10.6572 39.599 11.4165ZM36.0988 16.5609C37.5609 16.8211 38.2901 15.8621 38.4543 14.5663C38.598 13.4321 38.5529 11.3425 37.4963 10.5729C36.956 10.096 36.1633 10.0714 35.4907 10.1616C35.4835 10.1625 35.4769 10.1661 35.4721 10.1716C35.4674 10.1771 35.4649 10.1842 35.465 10.1915C35.4675 11.858 35.4694 13.5247 35.4708 15.1916C35.4708 15.7042 35.4724 16.4197 36.0988 16.5609ZM44.0163 10.0048C43.954 10.082 43.8505 10.1307 43.7057 10.1506C43.2603 10.212 43.1942 10.6222 43.1942 10.9989C43.1942 12.5605 43.1961 14.1223 43.2 15.6842C43.2005 16.0677 43.2215 16.4565 43.6627 16.5315L43.8201 16.5934C43.8226 16.5944 43.8249 16.5958 43.8268 16.5977C43.8288 16.5996 43.8303 16.6019 43.8314 16.6044C43.8325 16.6068 43.8331 16.6095 43.8331 16.6122C43.8331 16.6149 43.8326 16.6176 43.8316 16.6201L43.8237 16.6396C43.7615 16.6486 43.7232 16.6787 43.7088 16.7298C43.7041 16.7463 43.706 16.764 43.7141 16.7791L43.7351 16.8195C43.7366 16.8224 43.7374 16.8256 43.7373 16.8289C43.7372 16.8322 43.7363 16.8354 43.7346 16.8382C43.7329 16.841 43.7305 16.8433 43.7276 16.8449C43.7248 16.8465 43.7216 16.8473 43.7183 16.8473L40.9462 16.8468C40.9039 16.838 40.8693 16.8162 40.8423 16.7812C40.7976 16.7228 40.8074 16.6761 40.8717 16.6411C40.9824 16.5808 41.1251 16.5698 41.2064 16.542C41.4953 16.4434 41.6415 16.2272 41.645 15.8936C41.6618 14.2242 41.6655 12.5544 41.656 10.884C41.655 10.7046 41.6163 10.5524 41.5401 10.4276C41.4037 10.1957 41.1634 10.1637 40.9252 10.1123C40.8899 10.0994 40.8618 10.0735 40.8408 10.0347C40.8327 10.0195 40.831 10.0018 40.836 9.98534C40.8616 9.9056 40.9382 9.86538 41.0658 9.86468C42.0023 9.85943 42.9592 9.82796 43.8935 9.8757C43.9729 9.87989 44.0138 9.92291 44.0163 10.0048Z" fill="white"/>
</svg>
