<svg width="140" height="67" viewBox="0 0 140 67" fill="none" xmlns="http://www.w3.org/2000/svg">
<path d="M55.503 33.1709C55.2751 33.0292 55.0405 32.9263 54.7991 32.8622C54.5566 32.7981 54.3084 32.7457 54.0523 32.702C54.0241 32.6885 53.9949 32.6807 53.9666 32.6807C54.1516 32.6671 54.3512 32.6351 54.5644 32.5846C54.7776 32.5351 54.9704 32.4535 55.1408 32.34C55.6247 32.1138 55.9868 31.7653 56.2293 31.2974C56.4707 30.8295 56.5924 30.2898 56.5924 29.6802C56.5924 28.9288 56.4113 28.2755 56.0482 27.7222C55.685 27.1689 55.17 26.7437 54.5011 26.4457C53.8323 26.1477 53.0505 25.9982 52.1538 25.9982H47.5107C47.3764 25.9982 47.2673 26.1069 47.2673 26.2409V40.2941C47.2673 40.4164 47.3627 40.5212 47.4844 40.5358C48.0744 40.6066 48.5807 40.6581 49.0062 40.6901C49.4823 40.7251 50.0479 40.7503 50.7031 40.7649H51.2367C53.1858 40.7649 54.6686 40.3999 55.686 39.6689C56.7034 38.9389 57.2116 37.8779 57.2116 36.4879C57.2116 35.7501 57.0588 35.0939 56.7521 34.5192C56.4464 33.9446 56.0297 33.4951 55.5039 33.168L55.503 33.1709ZM54.0523 28.3833C54.4787 28.724 54.692 29.1919 54.692 29.7879C54.692 30.4548 54.4573 30.9868 53.9881 31.3838C53.5188 31.7808 52.8996 31.9798 52.1314 31.9798H49.1863V27.8096H52.1528C52.9921 27.8523 53.6249 28.0435 54.0523 28.3843V28.3833ZM54.4155 38.4264C53.804 38.8234 52.8577 39.037 51.5774 39.0642C51.1929 39.0787 50.7878 39.0719 50.3614 39.0428C50.0158 39.0195 49.6935 38.9875 49.3937 38.9457C49.2739 38.9292 49.1873 38.8254 49.1873 38.704V33.7446H52.2609C52.8869 33.7446 53.4273 33.8553 53.8829 34.0746C54.3376 34.295 54.6939 34.6105 54.95 35.0221C55.206 35.4337 55.3345 35.9297 55.3345 36.5112C55.3345 37.3906 55.0278 38.0294 54.4164 38.4264H54.4155Z" fill="white"/>
<path d="M60.4244 29.9122L58.9913 29.8966C58.856 29.8947 58.745 30.0044 58.745 30.1393V40.3106C58.745 40.4445 58.854 40.5532 58.9884 40.5532H60.4215C60.5559 40.5532 60.6649 40.4445 60.6649 40.3106V30.1549C60.6649 30.0219 60.5578 29.9131 60.4244 29.9122Z" fill="white"/>
<path d="M59.6408 26.2128C59.3 26.2128 59.0148 26.3264 58.7879 26.5525C58.5601 26.7797 58.4462 27.0631 58.4462 27.4039C58.4462 27.7446 58.5601 28.028 58.7879 28.2552C59.0936 28.561 59.5035 28.6609 60.0146 28.5551C60.0409 28.5493 60.0701 28.5396 60.0945 28.527C60.5891 28.2736 60.8363 27.898 60.8363 27.4039C60.8363 27.0495 60.7185 26.7622 60.4839 26.5419C60.2493 26.3215 59.9679 26.2118 59.6408 26.2118V26.2128Z" fill="white"/>
<path d="M69.6318 30.1491C68.9133 29.7375 68.1062 29.5326 67.2095 29.5326C66.1424 29.5326 65.2175 29.8093 64.4347 30.3626C63.652 30.9159 63.0581 31.643 62.6531 32.5438C62.2471 33.4447 62.0446 34.4125 62.0446 35.4482C62.0446 36.484 62.2578 37.3877 62.6842 38.2031C63.1107 39.0195 63.726 39.6573 64.5302 40.1184C65.3334 40.5795 66.2768 40.8105 67.3575 40.8105C68.1967 40.8105 68.9902 40.6688 69.7369 40.3853C70.4087 40.13 70.9909 39.7951 71.4836 39.3787C71.578 39.2991 71.5936 39.1583 71.5245 39.0564L70.8955 38.1303C70.8167 38.0148 70.658 37.9925 70.546 38.0769C70.1235 38.3944 69.6795 38.6351 69.2141 38.7992C68.6738 38.9904 68.1256 39.0865 67.5707 39.0865C66.3333 39.0865 65.4327 38.7031 64.8709 37.9372C64.4416 37.3528 64.1777 36.6645 64.0765 35.8734H71.5342C71.6491 35.8734 71.7513 35.7938 71.7757 35.6812C71.875 35.2162 71.9236 34.7338 71.9236 34.2348C71.9236 33.3408 71.7211 32.5399 71.3151 31.8303C70.9101 31.1207 70.3474 30.5606 69.6289 30.1491H69.6318ZM64.4786 32.9574C64.7775 32.3759 65.1679 31.9507 65.6517 31.6809C66.1356 31.412 66.6545 31.277 67.2095 31.277C68.0059 31.277 68.6748 31.543 69.2151 32.075C69.7554 32.6069 70.0261 33.2699 70.0261 34.064V34.2348H64.0959C64.1651 33.7572 64.2877 33.3272 64.4776 32.9583L64.4786 32.9574Z" fill="white"/>
<path d="M81.128 30.1597C80.5302 29.8122 79.8614 29.6384 79.1224 29.6384C78.1693 29.6384 77.2833 29.9258 76.4655 30.5004C76.0166 30.815 75.6106 31.2071 75.2368 31.6605C75.1735 31.3712 75.0927 31.0926 74.9817 30.8295C74.751 30.284 74.4725 29.852 74.1483 29.5346C74.0597 29.4472 73.9108 29.4414 73.8153 29.5229L72.8174 30.3752C72.7201 30.4587 72.7015 30.6043 72.7804 30.7043C72.9917 30.9712 73.1523 31.2654 73.2633 31.5847C73.3986 31.975 73.459 32.44 73.4444 32.9787V40.3319C73.4444 40.4659 73.5534 40.5746 73.6878 40.5746H75.1209C75.2553 40.5746 75.3643 40.4659 75.3643 40.3319V33.8446C75.3643 33.6786 75.4305 33.5262 75.5162 33.3845C75.5162 33.3845 75.5162 33.3835 75.5172 33.3825C75.8784 32.7719 76.3185 32.2934 76.8374 31.9468C77.4206 31.5566 78.0612 31.3615 78.7583 31.3615C79.4982 31.3615 80.0843 31.5925 80.5185 32.0526C80.9528 32.5137 81.1689 33.1981 81.1689 34.1057V40.3523C81.1689 40.4863 81.2779 40.595 81.4123 40.595H82.8454C82.9798 40.595 83.0888 40.4863 83.0888 40.3523V33.7436C83.0888 32.9496 82.9107 32.24 82.5553 31.6158C82.1999 30.9916 81.7229 30.5063 81.1261 30.1578L81.128 30.1597Z" fill="white"/>
<path d="M93.8159 38.8089H86.9618C86.8274 38.8089 86.7184 38.7001 86.7184 38.5662V26.2429C86.7184 26.1089 86.6093 26.0002 86.475 26.0002H85.0623C84.9279 26.0002 84.8189 26.1089 84.8189 26.2429V40.3319C84.8189 40.4659 84.9279 40.5746 85.0623 40.5746H93.8159C93.9502 40.5746 94.0593 40.4659 94.0593 40.3319V39.0515C94.0593 38.9176 93.9502 38.8089 93.8159 38.8089Z" fill="white"/>
<path d="M101.484 30.1491C100.765 29.7375 99.9583 29.5326 99.0616 29.5326C97.9946 29.5326 97.0696 29.8093 96.2869 30.3626C95.5041 30.9159 94.9102 31.643 94.5052 32.5438C94.0992 33.4447 93.8967 34.4125 93.8967 35.4482C93.8967 36.484 94.1099 37.3877 94.5363 38.2031C94.9628 39.0195 95.5781 39.6573 96.3823 40.1184C97.1855 40.5795 98.1289 40.8105 99.2096 40.8105C100.049 40.8105 100.842 40.6688 101.589 40.3853C102.261 40.13 102.843 39.7951 103.336 39.3787C103.43 39.2991 103.446 39.1583 103.377 39.0564L102.748 38.1303C102.669 38.0148 102.51 37.9925 102.398 38.0769C101.976 38.3944 101.532 38.6351 101.066 38.7992C100.526 38.9904 99.9778 39.0865 99.4228 39.0865C98.1854 39.0865 97.2848 38.7031 96.723 37.9372C96.2937 37.3528 96.0298 36.6645 95.9286 35.8734H103.386C103.501 35.8734 103.603 35.7938 103.628 35.6812C103.727 35.2162 103.776 34.7338 103.776 34.2348C103.776 33.3408 103.573 32.5399 103.167 31.8303C102.762 31.1207 102.2 30.5606 101.481 30.1491H101.484ZM96.3307 32.9574C96.6296 32.3759 97.02 31.9507 97.5039 31.6809C97.9877 31.412 98.5067 31.277 99.0616 31.277C99.858 31.277 100.527 31.543 101.067 32.075C101.608 32.6069 101.878 33.2699 101.878 34.064V34.2348H95.9481C96.0172 33.7572 96.1399 33.3272 96.3297 32.9583L96.3307 32.9574Z" fill="white"/>
<path d="M113.441 38.7875C113.291 38.3759 113.217 37.8934 113.217 37.3411V33.1709C113.217 32.0361 112.879 31.1576 112.203 30.5325C111.527 29.9083 110.592 29.5967 109.397 29.5967C108.53 29.5967 107.661 29.7345 106.794 30.0112C106.017 30.2587 105.367 30.5606 104.84 30.9159C104.736 30.9868 104.707 31.1275 104.77 31.2362L105.342 32.2438C105.411 32.3662 105.566 32.4001 105.685 32.3254C106.124 32.0497 106.635 31.8206 107.22 31.6381C107.903 31.4255 108.557 31.3187 109.184 31.3187C109.896 31.3187 110.425 31.4925 110.774 31.84C111.122 32.1875 111.297 32.702 111.297 33.3825V33.8931C110.385 33.8368 109.71 33.8077 109.27 33.8077C107.719 33.7941 106.52 34.1018 105.674 34.7328C104.827 35.3637 104.405 36.2539 104.405 37.4032C104.405 38.0983 104.561 38.7147 104.874 39.2544C105.186 39.7932 105.614 40.2047 106.154 40.4882C106.695 40.7716 107.314 40.9134 108.011 40.9134C108.594 40.9134 109.149 40.7969 109.676 40.5629C110.202 40.329 110.657 40.0203 111.042 39.6378C111.242 39.4379 111.414 39.2301 111.56 39.0146C111.575 39.2767 111.643 39.5408 111.778 39.8077C111.981 40.2135 112.251 40.5872 112.588 40.9289C112.676 41.0192 112.822 41.0221 112.919 40.9415L113.936 40.0853C114.035 40.0019 114.047 39.8563 113.969 39.7524C113.742 39.4505 113.566 39.1282 113.443 38.7865L113.441 38.7875ZM111.296 36.7024C111.296 37.1421 111.163 37.5566 110.9 37.9468C110.638 38.3371 110.274 38.6458 109.812 38.8719C109.35 39.0991 108.855 39.2127 108.329 39.2127C107.717 39.2127 107.223 39.0496 106.846 38.7234C106.47 38.3973 106.281 37.9226 106.281 37.2984C106.281 36.6742 106.515 36.1636 106.985 35.852C107.454 35.5404 108.151 35.3841 109.076 35.3841C109.773 35.3841 110.356 35.3987 110.826 35.4268C111.025 35.4268 111.182 35.4346 111.296 35.4482V36.7033V36.7024Z" fill="white"/>
<path d="M117.772 26.9787C118.014 26.6952 118.384 26.5535 118.882 26.5535C119.271 26.5535 119.622 26.6661 119.933 26.8903C120.042 26.968 120.194 26.9311 120.267 26.8204L120.959 25.7798C121.028 25.676 121.009 25.5323 120.91 25.4556C120.311 24.9964 119.572 24.7664 118.69 24.7664C117.694 24.7664 116.911 25.0644 116.343 25.6604C115.773 26.2564 115.489 27.1214 115.489 28.2561V29.9161H114.495C114.361 29.9161 114.252 30.0248 114.252 30.1588V31.3537C114.252 31.4877 114.361 31.5964 114.495 31.5964H115.489V40.3115C115.489 40.4455 115.598 40.5542 115.732 40.5542H117.166C117.3 40.5542 117.409 40.4455 117.409 40.3115V31.5964H120.175C120.309 31.5964 120.418 31.4877 120.418 31.3537V30.1588C120.418 30.0248 120.309 29.9161 120.175 29.9161H117.409V28.2561C117.409 27.6892 117.53 27.2631 117.772 26.9796V26.9787Z" fill="white"/>
<path d="M37.0465 34.4795C38.4524 32.2817 38.6744 30.0937 38.7056 29.422C38.7143 29.2958 38.7133 29.223 38.7133 29.223C38.7143 24.6887 35.0147 21 30.467 21H22.0376C20.364 21 19.0019 22.3571 19.0019 24.0257V34.4164H19V42.9723C19 43.7411 19.2911 44.4468 19.7662 44.9798C20.3221 45.6059 21.1351 46 22.0366 46H33.4404C35.1295 46 36.7223 45.3448 37.9267 44.1479C39.1232 42.9548 39.7804 41.3677 39.7804 39.6748C39.7804 37.5702 38.7396 35.6424 37.0465 34.4795ZM22.0376 23.1239H30.467C33.379 23.1239 35.8179 25.1654 36.4312 27.8805C29.6579 27.6164 24.7296 29.5317 21.7679 33.5883C21.5411 33.9028 21.3308 34.2212 21.1331 34.5445V24.0257C21.1331 23.5287 21.5391 23.1239 22.0376 23.1239ZM21.1322 42.9723V42.6423C21.1322 41.1726 21.3308 39.7058 21.7747 38.3051C22.1389 37.1538 22.6821 35.9501 23.4912 34.8367C26.0264 31.3596 30.3988 29.7423 36.5013 30.0103C36.3504 30.9674 35.9152 32.639 34.6612 34.1465C32.8542 36.3267 29.9646 37.4334 26.0673 37.447C27.1665 35.0337 29.2315 33.2175 32.3772 32.4167C26.228 33.1408 23.3082 38.0905 23.1621 43.8751H22.0376C21.5401 43.8751 21.1322 43.4722 21.1322 42.9723ZM36.4244 42.6442C35.6241 43.4383 34.5629 43.8751 33.4423 43.8751H25.2047C25.1901 43.7421 25.1775 43.614 25.1667 43.5256C25.047 42.1268 25.1181 40.794 25.379 39.5602C25.5854 39.5651 25.7937 39.5748 25.9963 39.5748C30.2139 39.5748 33.4744 38.4206 35.7166 36.1433C36.9132 36.9072 37.6502 38.2303 37.6502 39.6757C37.6502 40.8018 37.2121 41.856 36.4244 42.6452V42.6442Z" fill="white"/>
</svg>
