<svg width="66" height="16" viewBox="0 0 66 16" fill="none" xmlns="http://www.w3.org/2000/svg">
<path d="M23.293 7.78938C23.1476 7.69867 22.9979 7.63282 22.8438 7.59181C22.6891 7.55081 22.5307 7.51726 22.3673 7.48931C22.3493 7.48061 22.3307 7.47564 22.3126 7.47564C22.4307 7.46694 22.558 7.44644 22.6941 7.41413C22.8302 7.38245 22.9532 7.33026 23.0619 7.25758C23.3706 7.11282 23.6018 6.88979 23.7565 6.59034C23.9105 6.29089 23.9882 5.94547 23.9882 5.55531C23.9882 5.07446 23.8726 4.65635 23.6409 4.30223C23.4092 3.94811 23.0805 3.676 22.6537 3.48527C22.2269 3.29454 21.728 3.19887 21.1558 3.19887H18.193C18.1073 3.19887 18.0377 3.26845 18.0377 3.35418V12.3482C18.0377 12.4265 18.0986 12.4936 18.1763 12.5029C18.5528 12.5482 18.8758 12.5812 19.1473 12.6017C19.4511 12.624 19.8121 12.6402 20.2302 12.6495H20.5706C21.8144 12.6495 22.7606 12.4159 23.4098 11.9481C24.059 11.4809 24.3833 10.8019 24.3833 9.91223C24.3833 9.44007 24.2858 9.0201 24.0901 8.65231C23.895 8.28452 23.6291 7.99688 23.2936 7.78751L23.293 7.78938ZM22.3673 4.72531C22.6394 4.94337 22.7755 5.24282 22.7755 5.62427C22.7755 6.05108 22.6258 6.39153 22.3263 6.64563C22.0269 6.89973 21.6317 7.02709 21.1416 7.02709H19.2622V4.35814H21.1552C21.6908 4.38548 22.0946 4.50787 22.3673 4.72593V4.72531ZM22.599 11.1529C22.2089 11.407 21.605 11.5437 20.7881 11.5611C20.5427 11.5704 20.2842 11.566 20.0121 11.5474C19.7916 11.5325 19.5859 11.512 19.3946 11.4853C19.3182 11.4747 19.2629 11.4082 19.2629 11.3306V8.15654H21.2242C21.6237 8.15654 21.9685 8.22737 22.2592 8.36777C22.5493 8.5088 22.7767 8.71071 22.9401 8.97412C23.1035 9.23754 23.1855 9.555 23.1855 9.92714C23.1855 10.49 22.9898 10.8988 22.5997 11.1529H22.599Z" fill="white"/>
<path d="M26.4335 5.70379L25.519 5.69385C25.4326 5.69261 25.3618 5.76281 25.3618 5.84917V12.3588C25.3618 12.4445 25.4314 12.5141 25.5171 12.5141H26.4316C26.5173 12.5141 26.5869 12.4445 26.5869 12.3588V5.85911C26.5869 5.77399 26.5186 5.70441 26.4335 5.70379Z" fill="white"/>
<path d="M25.9334 3.33618C25.7159 3.33618 25.5339 3.40886 25.3892 3.55362C25.2438 3.69899 25.1711 3.8804 25.1711 4.09847C25.1711 4.31653 25.2438 4.49794 25.3892 4.64331C25.5842 4.83901 25.8458 4.903 26.1719 4.83528C26.1887 4.83156 26.2074 4.82534 26.2229 4.81727C26.5385 4.65512 26.6963 4.41469 26.6963 4.09847C26.6963 3.87171 26.6211 3.68781 26.4714 3.54679C26.3217 3.40576 26.1421 3.33556 25.9334 3.33556V3.33618Z" fill="white"/>
<path d="M32.3088 5.85539C31.8503 5.59198 31.3353 5.46089 30.7631 5.46089C30.0822 5.46089 29.492 5.63795 28.9925 5.99207C28.493 6.34619 28.114 6.81152 27.8556 7.38805C27.5965 7.96458 27.4673 8.58398 27.4673 9.24687C27.4673 9.90975 27.6033 10.4882 27.8754 11.01C28.1476 11.5325 28.5402 11.9407 29.0534 12.2358C29.5659 12.5309 30.1679 12.6787 30.8575 12.6787C31.393 12.6787 31.8994 12.588 32.3759 12.4066C32.8045 12.2432 33.1761 12.0289 33.4904 11.7624C33.5507 11.7114 33.5606 11.6213 33.5165 11.5561L33.1152 10.9634C33.0648 10.8895 32.9636 10.8752 32.8921 10.9292C32.6225 11.1324 32.3392 11.2865 32.0423 11.3915C31.6975 11.5139 31.3477 11.5754 30.9936 11.5754C30.2039 11.5754 29.6293 11.33 29.2708 10.8398C28.9968 10.4658 28.8285 10.0253 28.7638 9.51898H33.5227C33.596 9.51898 33.6613 9.46804 33.6768 9.39597C33.7402 9.09839 33.7712 8.78962 33.7712 8.47029C33.7712 7.89811 33.642 7.38556 33.3829 6.93142C33.1245 6.47728 32.7654 6.11881 32.3069 5.85539H32.3088ZM29.0204 7.65271C29.2112 7.28057 29.4603 7.00846 29.7691 6.83575C30.0778 6.66366 30.409 6.5773 30.7631 6.5773C31.2713 6.5773 31.6981 6.74753 32.0429 7.08798C32.3877 7.42843 32.5604 7.85275 32.5604 8.36095V8.47029H28.7763C28.8204 8.16463 28.8987 7.88941 29.0198 7.65333L29.0204 7.65271Z" fill="white"/>
<path d="M39.6447 5.86222C39.2632 5.63981 38.8364 5.5286 38.3648 5.5286C37.7566 5.5286 37.1913 5.7125 36.6694 6.08029C36.383 6.28158 36.124 6.53257 35.8854 6.82269C35.845 6.63756 35.7934 6.45926 35.7226 6.29089C35.5754 5.94174 35.3977 5.66528 35.1908 5.46213C35.1343 5.40622 35.0392 5.40249 34.9783 5.45467L34.3416 6.00014C34.2794 6.05357 34.2676 6.14676 34.3179 6.21075C34.4528 6.3816 34.5553 6.56984 34.6261 6.77424C34.7124 7.02398 34.751 7.32157 34.7416 7.66637V12.3724C34.7416 12.4582 34.8112 12.5278 34.897 12.5278H35.8115C35.8972 12.5278 35.9668 12.4582 35.9668 12.3724V8.22054C35.9668 8.1143 36.009 8.01676 36.0637 7.92606C36.0637 7.92606 36.0637 7.92544 36.0643 7.92482C36.2948 7.53404 36.5756 7.22776 36.9067 7.00597C37.2789 6.75622 37.6877 6.63135 38.1325 6.63135C38.6047 6.63135 38.9787 6.77921 39.2557 7.07369C39.5328 7.36878 39.6707 7.80677 39.6707 8.38766V12.3855C39.6707 12.4712 39.7403 12.5408 39.8261 12.5408H40.7406C40.8263 12.5408 40.8959 12.4712 40.8959 12.3855V8.15592C40.8959 7.64773 40.7822 7.19359 40.5554 6.79412C40.3287 6.39464 40.0242 6.08401 39.6434 5.86098L39.6447 5.86222Z" fill="white"/>
<path d="M47.7409 11.3977H43.3672C43.2815 11.3977 43.2119 11.3281 43.2119 11.2424V3.35543C43.2119 3.26969 43.1423 3.20011 43.0566 3.20011H42.1552C42.0694 3.20011 41.9998 3.26969 41.9998 3.35543V12.3724C41.9998 12.4582 42.0694 12.5277 42.1552 12.5277H47.7409C47.8267 12.5277 47.8962 12.4582 47.8962 12.3724V11.553C47.8962 11.4673 47.8267 11.3977 47.7409 11.3977Z" fill="white"/>
<path d="M52.634 5.85539C52.1755 5.59198 51.6605 5.46089 51.0883 5.46089C50.4074 5.46089 49.8172 5.63795 49.3177 5.99207C48.8182 6.34619 48.4392 6.81152 48.1808 7.38805C47.9217 7.96458 47.7925 8.58398 47.7925 9.24687C47.7925 9.90975 47.9286 10.4882 48.2007 11.01C48.4728 11.5325 48.8654 11.9407 49.3786 12.2358C49.8911 12.5309 50.4931 12.6787 51.1827 12.6787C51.7183 12.6787 52.2246 12.588 52.7011 12.4066C53.1298 12.2432 53.5013 12.0289 53.8156 11.7624C53.8759 11.7114 53.8859 11.6213 53.8417 11.5561L53.4404 10.9634C53.3901 10.8895 53.2888 10.8752 53.2174 10.9292C52.9477 11.1324 52.6644 11.2865 52.3675 11.3915C52.0227 11.5139 51.6729 11.5754 51.3188 11.5754C50.5292 11.5754 49.9545 11.33 49.596 10.8398C49.3221 10.4658 49.1537 10.0253 49.0891 9.51898H53.848C53.9213 9.51898 53.9865 9.46804 54.002 9.39597C54.0654 9.09839 54.0965 8.78962 54.0965 8.47029C54.0965 7.89811 53.9672 7.38556 53.7082 6.93142C53.4497 6.47728 53.0906 6.11881 52.6321 5.85539H52.634ZM49.3457 7.65271C49.5364 7.28057 49.7855 7.00846 50.0943 6.83575C50.4031 6.66366 50.7342 6.5773 51.0883 6.5773C51.5965 6.5773 52.0233 6.74753 52.3681 7.08798C52.7129 7.42843 52.8856 7.85275 52.8856 8.36095V8.47029H49.1015C49.1456 8.16463 49.2239 7.88941 49.345 7.65333L49.3457 7.65271Z" fill="white"/>
<path d="M60.2637 11.384C60.168 11.1206 60.1208 10.8118 60.1208 10.4583V7.78936C60.1208 7.06311 59.9052 6.50087 59.4741 6.10077C59.0429 5.7013 58.4459 5.50188 57.6836 5.50188C57.1301 5.50188 56.5759 5.5901 56.0224 5.76716C55.5266 5.92558 55.1116 6.11879 54.7755 6.34617C54.709 6.39152 54.691 6.48161 54.7308 6.55119L55.0961 7.19606C55.1402 7.27434 55.2389 7.29608 55.3147 7.24825C55.5949 7.07181 55.9211 6.92519 56.2945 6.80839C56.73 6.67233 57.1475 6.604 57.5476 6.604C58.0017 6.604 58.3397 6.7152 58.5621 6.93761C58.7845 7.16003 58.8957 7.4893 58.8957 7.9248V8.25159C58.3142 8.21555 57.883 8.19691 57.6022 8.19691C56.6126 8.18822 55.8478 8.38516 55.3079 8.78898C54.7674 9.1928 54.4978 9.7625 54.4978 10.4981C54.4978 10.9429 54.5978 11.3374 54.7972 11.6828C54.9967 12.0276 55.2694 12.291 55.6142 12.4724C55.959 12.6539 56.3541 12.7446 56.7989 12.7446C57.1711 12.7446 57.5252 12.67 57.8613 12.5203C58.1974 12.3706 58.4875 12.173 58.7329 11.9282C58.8609 11.8002 58.9702 11.6673 59.0634 11.5294C59.0734 11.6971 59.1169 11.8661 59.2026 12.0369C59.3324 12.2966 59.5045 12.5358 59.7195 12.7545C59.776 12.8123 59.8692 12.8141 59.9307 12.7626L60.5799 12.2146C60.6433 12.1612 60.6508 12.068 60.6011 12.0015C60.4563 11.8083 60.3439 11.6021 60.265 11.3834L60.2637 11.384ZM58.8951 10.0495C58.8951 10.331 58.8106 10.5962 58.6428 10.846C58.4751 11.0957 58.2434 11.2933 57.9483 11.438C57.6532 11.5834 57.3376 11.6561 57.0021 11.6561C56.6113 11.6561 56.2963 11.5517 56.0559 11.343C55.8155 11.1342 55.695 10.8304 55.695 10.431C55.695 10.0315 55.8447 9.70472 56.1441 9.50529C56.4436 9.30587 56.8884 9.20584 57.4786 9.20584C57.9234 9.20584 58.2956 9.21516 58.5956 9.23318C58.7224 9.23318 58.8224 9.23815 58.8951 9.24685V10.0501V10.0495Z" fill="white"/>
<path d="M63.0277 3.82634C63.1818 3.64494 63.4179 3.55423 63.7359 3.55423C63.9844 3.55423 64.2081 3.6263 64.4069 3.76981C64.4759 3.81951 64.5734 3.7959 64.62 3.72508L65.0611 3.05909C65.1052 2.99261 65.0934 2.90066 65.03 2.85158C64.6479 2.55773 64.1764 2.41049 63.6135 2.41049C62.978 2.41049 62.4785 2.60121 62.1157 2.98267C61.7522 3.36413 61.5708 3.91767 61.5708 4.64393V5.70629H60.9365C60.8508 5.70629 60.7812 5.77587 60.7812 5.8616V6.62638C60.7812 6.71211 60.8508 6.78169 60.9365 6.78169H61.5708V12.3594C61.5708 12.4451 61.6404 12.5147 61.7262 12.5147H62.6407C62.7264 12.5147 62.796 12.4451 62.796 12.3594V6.78169H64.561C64.6467 6.78169 64.7163 6.71211 64.7163 6.62638V5.8616C64.7163 5.77587 64.6467 5.70629 64.561 5.70629H62.796V4.64393C62.796 4.28111 62.873 4.00837 63.0277 3.82697V3.82634Z" fill="white"/>
<path d="M11.5157 8.62685C12.4128 7.22031 12.5545 5.81999 12.5744 5.39008C12.5799 5.30931 12.5793 5.26272 12.5793 5.26272C12.5799 2.3608 10.2191 0 7.31723 0H1.93834C0.870389 0 0.00124253 0.868525 0.00124253 1.93648V8.58647H0V14.0623C0 14.5543 0.185758 15.006 0.488934 15.3471C0.843675 15.7478 1.36243 16 1.93772 16H9.21457C10.2925 16 11.3088 15.5806 12.0773 14.8146C12.8409 14.0511 13.2602 13.0353 13.2602 11.9519C13.2602 10.605 12.5961 9.37113 11.5157 8.62685ZM1.93834 1.35932H7.31723C9.17543 1.35932 10.7317 2.66584 11.1231 4.40351C6.80096 4.23453 3.65613 5.46028 1.76625 8.05653C1.6215 8.25782 1.4873 8.4616 1.36119 8.66848V1.93648C1.36119 1.61839 1.62025 1.35932 1.93834 1.35932ZM1.36057 14.0623V13.8511C1.36057 12.9105 1.4873 11.9717 1.7706 11.0753C2.00295 10.3384 2.34962 9.56807 2.86588 8.85548C4.48365 6.63011 7.27374 5.59509 11.1678 5.76656C11.0715 6.37913 10.7938 7.44894 9.99363 8.41376C8.84057 9.80912 6.99666 10.5174 4.50975 10.5261C5.21115 8.9816 6.52885 7.81921 8.53615 7.30667C4.61225 7.77013 2.74909 10.938 2.6559 14.6401H1.93834C1.62087 14.6401 1.36057 14.3822 1.36057 14.0623ZM11.1187 13.8523C10.6081 14.3605 9.93088 14.6401 9.21581 14.6401H3.95931C3.94999 14.5549 3.94191 14.4729 3.93508 14.4164C3.85866 13.5212 3.90401 12.6682 4.07051 11.8785C4.20222 11.8816 4.33517 11.8879 4.46439 11.8879C7.1557 11.8879 9.23631 11.1492 10.6671 9.6917C11.4306 10.1806 11.9009 11.0274 11.9009 11.9525C11.9009 12.6731 11.6213 13.3478 11.1187 13.8529V13.8523Z" fill="white"/>
</svg>
