<svg width="99" height="28" viewBox="0 0 99 28" fill="none" xmlns="http://www.w3.org/2000/svg">
<path d="M8.034 25.147L12.0359 27.9991V10.5877L8.034 13.4407V25.147Z" fill="white"/>
<path d="M16.0698 28L20.0708 25.147V13.4397L16.0698 10.5877V28Z" fill="white"/>
<path d="M0 19.4182L4.00008 22.2703V1.00983H0V19.4182Z" fill="white"/>
<path d="M8.034 9.29979L12.0359 6.44775V1.00983H8.034V9.29979Z" fill="white"/>
<path d="M16.0698 6.44683L20.0708 9.29979V1.00983H16.0698V6.44683Z" fill="white"/>
<path d="M24.1047 1.00983V22.2712L28.1057 19.4182V1.00983H24.1047Z" fill="white"/>
<path d="M44.5925 6.78802H50.1121V6.14772H44.5925V1.58335H50.551V0.94306H43.9525V11.9918H50.7521V11.3515H44.5925V6.78802Z" fill="white"/>
<path d="M32.3911 12.0585H33.0823L37.2424 1.71507L41.4025 12.0585H42.0937L37.2424 0L32.3911 12.0585Z" fill="white"/>
<path d="M58.2686 6.35902C58.8428 5.78459 59.1976 4.99154 59.1976 4.11525C59.1976 2.36359 57.7786 0.94306 56.0268 0.94306H53.3021V11.9918H53.9422V7.28745H56.0268C56.1895 7.28745 56.3495 7.27556 56.5059 7.25177L59.3841 12.0585H60.1302L57.1505 7.08255C57.5738 6.92248 57.9541 6.67368 58.2686 6.35902ZM56.0268 6.64715H53.9422V1.58335H56.0268C57.4229 1.58335 58.5576 2.71941 58.5576 4.11525C58.5576 5.51109 57.4229 6.64715 56.0268 6.64715Z" fill="white"/>
<path d="M66.8832 0.856163C63.8093 0.856163 61.3179 3.34873 61.3179 6.42397C61.3179 9.4992 63.8093 11.9918 66.8832 11.9918C69.9571 11.9918 72.4495 9.4992 72.4495 6.42397C72.4495 3.34873 69.9571 0.856163 66.8832 0.856163ZM66.8832 11.3515C64.1677 11.3515 61.9579 9.14155 61.9579 6.42397C61.9579 3.70638 64.1677 1.49646 66.8832 1.49646C69.5987 1.49646 71.8095 3.70638 71.8095 6.42397C71.8095 9.14155 69.5996 11.3515 66.8832 11.3515Z" fill="white"/>
<path d="M32.3911 28H33.0814L37.2415 17.6565L41.4025 28H42.0928L37.2415 15.9415L32.3911 28Z" fill="white"/>
<path d="M88.6418 23.8802C88.6418 25.7617 87.2631 27.2929 85.5689 27.2929C83.8747 27.2929 82.495 25.7617 82.495 23.8802V17.1983H81.855V24.2186C81.855 26.2703 83.5172 27.9332 85.5689 27.9332C87.6206 27.9332 89.2819 26.2703 89.2819 24.2186V17.1983H88.6418V23.8802Z" fill="white"/>
<path d="M59.6099 23.3963L53.4256 16.2753V27.9332H54.0656V17.9877L59.6108 24.3723L65.1552 17.9877V27.9332H65.7952V16.2753L59.6099 23.3963Z" fill="white"/>
<path d="M48.8952 22.3005C49.4694 21.726 49.8241 20.933 49.8241 20.0567C49.8241 18.3051 48.4042 16.8845 46.6533 16.8845H43.9278V27.9332H44.5678V23.2289H46.6533C46.8161 23.2289 46.9761 23.217 47.1315 23.1932L50.0106 28H50.7558L47.777 23.024C48.2003 22.863 48.5807 22.6151 48.8952 22.3005ZM46.6533 22.5886H44.5678V17.5248H46.6533C48.0485 17.5248 49.1841 18.6609 49.1841 20.0567C49.1841 21.4525 48.0485 22.5886 46.6533 22.5886Z" fill="white"/>
<path d="M96.0212 23.024C96.4445 22.863 96.8249 22.6151 97.1394 22.3005C97.7136 21.726 98.0683 20.933 98.0683 20.0567C98.0683 18.3051 96.6484 16.8845 94.8975 16.8845H92.172V27.9332H92.812V23.2289H94.8975C95.0603 23.2289 95.2203 23.217 95.3757 23.1932L98.2539 28H99L96.0212 23.024ZM94.8975 22.5886H92.812V17.5248H94.8975C96.2927 17.5248 97.4283 18.6609 97.4283 20.0567C97.4283 21.4525 96.2927 22.5886 94.8975 22.5886Z" fill="white"/>
<path d="M73.97 16.7976C70.8961 16.7976 68.4037 19.2902 68.4037 22.3654C68.4037 25.4407 70.8961 27.9332 73.97 27.9332C77.0439 27.9332 79.5354 25.4407 79.5354 22.3654C79.5354 19.2902 77.0439 16.7976 73.97 16.7976ZM73.97 27.2929C71.2536 27.2929 69.0437 25.083 69.0437 22.3654C69.0437 19.6478 71.2536 17.4379 73.97 17.4379C76.6864 17.4379 78.8954 19.6478 78.8954 22.3654C78.8954 25.083 76.6855 27.2929 73.97 27.2929Z" fill="white"/>
</svg>
