<svg width="140" height="67" viewBox="0 0 140 67" fill="none" xmlns="http://www.w3.org/2000/svg">
<path d="M55.1153 31.5747C53.5656 30.1214 51.5499 29.2418 49.3442 29.2418C44.4597 29.2418 40.5 33.5526 40.5 38.8709C40.5 44.1892 44.4597 48.5 49.3442 48.5C51.1138 48.5 52.7626 47.9335 54.1451 46.9583L53.9802 46.834L56.7881 43.1088H61.4336V29.8561H55.1153V31.5747ZM55.1153 40.2668C54.5549 41.8766 53.0231 43.0311 51.2237 43.0311C48.9475 43.0311 47.1039 41.187 47.1039 38.9103C47.1039 36.6336 48.9475 34.7895 51.2237 34.7895C53.0243 34.7895 54.5549 35.9452 55.1153 37.5551C55.2634 37.9793 55.3435 38.4359 55.3435 38.9103C55.3435 39.3848 55.2634 39.8425 55.1153 40.2668Z" fill="white"/>
<path d="M93.1817 29.8561V31.5747C91.7335 30.2146 89.8744 29.3577 87.8348 29.2525C87.6938 29.2454 87.5528 29.2418 87.4106 29.2418C87.0259 29.2418 86.6459 29.2681 86.2731 29.3207C85.4009 29.4426 84.5669 29.7031 83.7938 30.0819L79.6764 34.2003C79.6346 34.2816 79.594 34.3641 79.5545 34.4477C79.551 34.4561 79.5474 34.4633 79.5426 34.4716C79.5187 34.523 79.4936 34.5756 79.4709 34.627C79.4482 34.676 79.4279 34.7238 79.4064 34.7728C79.3813 34.829 79.3574 34.8851 79.3347 34.9425C79.3024 35.0202 79.2714 35.0979 79.2415 35.1756C79.2343 35.1935 79.2283 35.2102 79.2224 35.2281C79.2176 35.2389 79.214 35.2509 79.2092 35.2616C79.1853 35.3238 79.1638 35.3847 79.1411 35.448C79.1411 35.454 79.1375 35.4612 79.1352 35.4672C79.1053 35.5508 79.0778 35.6345 79.0515 35.7193C79.0252 35.8018 79.0001 35.8843 78.975 35.9679C78.9738 35.9739 78.9715 35.9799 78.9703 35.9859C78.9488 36.06 78.9284 36.1341 78.9093 36.2093C78.9081 36.2129 78.9081 36.2165 78.9069 36.2201C78.9045 36.2297 78.9022 36.238 78.8998 36.2476C78.8974 36.2536 78.8962 36.2595 78.895 36.2655C78.8926 36.2727 78.8914 36.2799 78.889 36.287C78.8711 36.3575 78.8532 36.4281 78.8376 36.4998C78.8364 36.5021 78.8364 36.5057 78.8352 36.5081C78.8329 36.5177 78.8305 36.5261 78.8293 36.5356C78.8269 36.5476 78.8233 36.5595 78.8209 36.5715C78.8209 36.5786 78.8185 36.5858 78.8161 36.5918C78.8018 36.6587 78.7863 36.7232 78.7731 36.7914C78.7719 36.7985 78.7695 36.8057 78.7695 36.8129C78.7671 36.8224 78.7659 36.8308 78.7636 36.8404C78.748 36.9204 78.7325 37.0017 78.7193 37.0818C78.705 37.1642 78.6919 37.2455 78.6799 37.3292C78.6775 37.3387 78.6763 37.3495 78.6751 37.3591C78.6739 37.3614 78.6739 37.3638 78.6739 37.3662C78.6727 37.3734 78.6716 37.3818 78.6704 37.3889C78.6584 37.475 78.6477 37.561 78.6369 37.6483C78.6261 37.7439 78.6166 37.8395 78.6082 37.9351C78.5999 38.0319 78.5927 38.1287 78.5867 38.2255C78.5807 38.3223 78.576 38.4191 78.5724 38.5171C78.5688 38.6343 78.5664 38.7526 78.5664 38.8709C78.5664 44.1892 82.5261 48.5 87.4106 48.5C89.6163 48.5 91.6332 47.6204 93.1817 46.1671V47.8224H99.5V29.8561H93.1817ZM93.1817 40.2692C92.6201 41.8778 91.0907 43.0311 89.2901 43.0311C87.0151 43.0311 85.1703 41.187 85.1703 38.9103C85.1703 36.6336 87.0151 34.7895 89.2901 34.7895C91.0895 34.7895 92.6201 35.9428 93.1817 37.5515C93.3298 37.9769 93.4111 38.4347 93.4111 38.9103C93.4111 39.386 93.3298 39.8437 93.1817 40.2692Z" fill="white"/>
<path d="M62.552 45.3795V47.8224H68.5154V41.542H66.3886L62.552 45.3795Z" fill="white"/>
<path d="M62.552 42.1682L64.7839 39.9369L65.4483 39.2713H68.5154V18.7928H62.552V42.1682Z" fill="white"/>
<path d="M71.2026 39.2713H71.3962L80.8091 29.8561H77.497V27.3344C77.497 27.3344 77.4373 26.8718 77.497 26.2886C77.6332 24.9405 78.4027 22.9447 82.0111 24.5294V19.0868C81.0935 18.708 80.0874 18.5 79.0336 18.5C78.2952 18.5 77.5807 18.6028 76.9032 18.7928C73.6126 19.7214 71.2026 22.7451 71.2026 26.3328V29.8561H69.5083V35.1756H71.2026V39.2713Z" fill="white"/>
<path d="M56.0783 47.8224H61.4336V45.3795H57.9196L56.0783 47.8224Z" fill="white"/>
<path d="M71.2026 41.542V47.8224H77.497V36.3802L72.3365 41.542H71.2026Z" fill="white"/>
<path d="M86.5455 25.3074L86.7881 25.3839L86.9996 26.0544L87.1943 26.6687L87.7631 28.4721L89.7728 22.3973L83.6994 24.4075L86.5455 25.3074Z" fill="white"/>
</svg>
