<svg width="76" height="40" viewBox="0 0 76 40" fill="none" xmlns="http://www.w3.org/2000/svg">
<path d="M4.89011 16.6697C4.89011 16.6697 4.84953 16.4847 4.78865 16.2381C4.72776 15.9709 4.64659 15.7036 4.58571 15.4159C4.52482 15.1281 4.46394 14.7787 4.40306 14.3676C4.34218 13.9565 4.32189 13.5659 4.32189 13.2165V9.14658H10.4303V13.2165C10.4303 13.5659 10.3898 13.9359 10.3492 14.3676C10.2883 14.7787 10.2274 15.1281 10.1665 15.4159C10.1056 15.7036 10.0245 15.9709 9.96359 16.2381C9.90271 16.5053 9.86212 16.6492 9.86212 16.6697V16.7519H14.4485V16.6697C14.4485 16.6697 14.408 16.4847 14.3471 16.2381C14.2862 15.9709 14.205 15.7036 14.1441 15.4159C14.0832 15.1281 14.0224 14.7787 13.9615 14.3676C13.9006 13.9565 13.8803 13.5659 13.8803 13.2165V4.15171C13.8803 3.80228 13.9006 3.43229 13.9615 3.00063C14.0224 2.58953 14.0832 2.2401 14.1441 1.95233C14.205 1.66456 14.2862 1.39734 14.3471 1.13013C14.408 0.86291 14.4485 0.719024 14.4485 0.698469V0.616249H9.86212V0.698469C9.86212 0.698469 9.90271 0.883465 9.96359 1.13013C10.0245 1.39734 10.1056 1.66456 10.1665 1.95233C10.2274 2.2401 10.2883 2.58953 10.3492 3.00063C10.4101 3.41173 10.4303 3.80228 10.4303 4.15171V8.13939H4.32189V4.15171C4.32189 3.80228 4.34218 3.43229 4.40306 3.00063C4.46394 2.58953 4.52482 2.2401 4.58571 1.95233C4.64659 1.66456 4.72776 1.39734 4.78865 1.13013C4.84953 0.86291 4.89011 0.719024 4.89011 0.698469V0.616249H0.283401V0.698469L0.364577 1.00679C0.425458 1.19179 0.48634 1.39734 0.526928 1.60289C0.567516 1.80844 0.628397 2.0551 0.689279 2.34287C0.750161 2.63064 0.790748 2.93897 0.831336 3.24729C0.871924 3.57617 0.892218 3.86394 0.892218 4.15171V13.2165C0.892218 13.5043 0.892218 13.8126 0.831336 14.1209C0.790748 14.4498 0.750161 14.7376 0.689279 15.0253C0.628397 15.3131 0.587809 15.5598 0.526928 15.7447C0.48634 15.9503 0.425458 16.1558 0.364577 16.3408L0.283401 16.6492V16.7314H4.89011V16.6492V16.6697Z" fill="white"/>
<path d="M21.1674 16.9987C22.4053 16.9987 23.4606 16.6493 24.3333 15.9709C25.2059 15.2926 25.8147 14.491 26.1597 13.5866L26.0785 13.5454C24.9218 14.4088 23.765 14.8404 22.6286 14.8404C21.5733 14.8404 20.7412 14.491 20.173 13.7715C19.6048 13.0521 19.2598 12.086 19.138 10.8733H26.3018C26.3018 9.31111 25.8756 7.99558 25.0435 6.92672C24.1912 5.85786 22.933 5.32343 21.2283 5.32343C19.5236 5.32343 18.1842 5.83731 17.1492 6.86506C16.1142 7.91336 15.6069 9.33166 15.6069 11.1199C15.6069 12.9082 16.1548 14.4088 17.271 15.4365C18.3871 16.4643 19.6859 16.9781 21.1877 16.9781L21.1674 16.9987ZM19.0771 9.98942C19.0771 8.94112 19.2395 8.05725 19.5642 7.31727C19.8889 6.57729 20.4165 6.2073 21.1471 6.2073C22.3647 6.2073 23.0141 7.35838 23.075 9.63999L19.0771 10.3183V9.98942Z" fill="white"/>
<path d="M38.5987 15.1287L38.5582 15.067C38.3349 15.1698 38.132 15.2315 37.9696 15.2315C37.442 15.2315 37.1782 14.7176 37.1782 13.7104V9.06497C37.1782 7.93444 36.8332 7.03002 36.1432 6.3517C35.4532 5.67339 34.3979 5.34451 32.9976 5.34451C31.5974 5.34451 29.8927 5.63228 27.9647 6.16671V9.27052H28.0865C28.3097 8.96219 28.9997 8.38665 30.1971 7.56445C31.3741 6.74225 32.2468 6.33115 32.815 6.33115C33.5862 6.33115 33.9717 7.1739 33.9717 8.85942V10.1749C33.4441 9.98994 32.8556 9.86661 32.1656 9.84606C31.9626 9.84606 31.7597 9.8255 31.5771 9.8255C30.4609 9.8255 29.4665 10.1133 28.6344 10.6888C27.64 11.3671 27.153 12.2921 27.153 13.4432C27.153 14.3887 27.4777 15.2109 28.1068 15.9303C28.7359 16.6498 29.6086 16.9992 30.7247 16.9992C32.2265 16.9992 33.3426 16.4031 34.0935 15.2109C34.4182 16.3826 35.1894 16.9581 36.4273 16.9581C37.0564 16.9581 37.5638 16.7937 37.9493 16.4442C38.3552 16.1153 38.5784 15.6837 38.6596 15.1493L38.5987 15.1287ZM33.9312 14.4709C33.505 14.9437 32.9976 15.1698 32.4497 15.1698C31.8612 15.1698 31.3944 14.9643 31.0291 14.5326C30.6638 14.1215 30.4812 13.6076 30.4812 12.9704C30.4812 12.251 30.7247 11.7166 31.1712 11.326C31.6379 10.956 32.2062 10.771 32.8759 10.771C33.0788 10.771 33.2615 10.771 33.4644 10.8121C33.5862 10.8121 33.7485 10.8327 33.9312 10.8327V14.4709Z" fill="white"/>
<path d="M39.7761 13.2169C39.7761 13.5663 39.7558 13.9363 39.6949 14.368C39.6341 14.7791 39.5732 15.1285 39.5123 15.4163C39.4514 15.704 39.3702 15.9713 39.3094 16.2385C39.2485 16.5057 39.2079 16.6496 39.2079 16.6701V16.7523H43.5914V16.6701C43.5914 16.6701 43.5508 16.4851 43.4899 16.2385C43.429 15.9713 43.3478 15.704 43.287 15.4163C43.2261 15.1285 43.1652 14.7791 43.1043 14.368C43.0434 13.9569 43.0231 13.5663 43.0231 13.2169V0L39.147 0.452211V0.534431C39.5732 1.8294 39.7964 2.95992 39.7964 3.92601V13.2169H39.7761Z" fill="white"/>
<path d="M45.6002 13.4226C45.6002 14.5531 45.864 15.4164 46.3917 16.0536C46.9193 16.6908 47.6499 16.9991 48.5834 16.9991C50.2069 16.9991 51.3637 16.1153 52.0334 14.3475C51.4652 14.6559 50.8969 14.8203 50.349 14.8203C49.3343 14.8203 48.827 14.2448 48.827 13.1142V6.4544H51.8507V5.46776H48.827V1.66508H48.7052C48.0761 2.52839 47.4064 3.26837 46.6758 3.90558C45.9452 4.54278 45.032 5.09777 43.9767 5.54998V6.4544H45.6002V13.4431V13.4226Z" fill="white"/>
<path d="M52.7447 0.822201C52.8056 1.0072 52.8665 1.19219 52.9071 1.39774C52.9679 1.60329 53.0085 1.84995 53.0694 2.13772C53.1303 2.40494 53.1709 2.71326 53.2115 3.02159C53.252 3.32991 53.2723 3.63824 53.2723 3.92601V13.2169C53.2723 13.9569 53.0694 15.1079 52.7041 16.6701V16.7523H57.0876V16.6701C57.0876 16.6701 57.047 16.4851 56.9861 16.2385C56.9252 15.9713 56.8441 15.704 56.7832 15.4163C56.7223 15.1285 56.6614 14.7791 56.6005 14.368C56.5397 13.9569 56.5194 13.5663 56.5194 13.2169V8.01646C57.1688 7.60536 57.8182 7.37925 58.4473 7.37925C59.0358 7.37925 59.5229 7.56425 59.9084 7.91368C60.294 8.26312 60.4767 8.81811 60.4767 9.53753V13.2169C60.4767 13.9569 60.294 15.1079 59.9084 16.6701V16.7523H64.2919V16.6701C64.2919 16.6701 64.2716 16.4851 64.1905 16.2385C64.1093 15.9918 64.0484 15.704 63.9875 15.4163C63.9266 15.1285 63.8658 14.7791 63.8049 14.368C63.744 13.9569 63.7237 13.5663 63.7237 13.2169V9.08532C63.7237 7.87258 63.3787 6.9476 62.6887 6.28984C61.9987 5.63208 61.1261 5.3032 60.0911 5.3032C58.6502 5.3032 57.4732 5.96096 56.5194 7.27648V0L52.6432 0.452211V0.534431C52.6432 0.534431 52.7041 0.637206 52.765 0.822201H52.7447Z" fill="white"/>
<path d="M65.9762 8.65399L69.8523 17.1843L69.5479 17.9449C69.3449 18.4176 69.1217 18.7465 68.8579 18.9109C68.5738 19.0754 68.3303 19.1782 68.0664 19.1782C67.965 19.1782 67.7823 19.1576 67.5388 19.0959C67.2953 19.0343 66.9909 18.8904 66.6053 18.6437C66.2197 18.3971 65.8341 18.0682 65.4485 17.6776H65.3876L64.7382 20.7609C65.5703 21.0898 66.3212 21.2542 66.9706 21.2542C67.3764 21.2542 67.9041 21.1309 68.5535 20.9048C69.1826 20.6787 69.7711 19.8976 70.3191 18.5615L74.4184 8.46899C74.7837 7.60568 75.3113 6.61904 75.981 5.55018V5.46796H73.2617V5.52962C73.4849 6.20794 73.5864 6.80403 73.5864 7.33847C73.5864 7.79068 73.5052 8.18122 73.3631 8.55121L71.4961 13.1761L69.4058 8.5101C69.2029 8.03734 69.1014 7.56457 69.1014 7.07125C69.1014 6.57793 69.2232 6.06405 69.4261 5.52962V5.46796H64.1497V5.55018C64.3121 5.73517 64.5759 6.16683 64.9615 6.80403C65.347 7.44124 65.6718 8.05789 65.9559 8.67454L65.9762 8.65399Z" fill="white"/>
<path d="M7.58992 19.1569C5.43876 19.1569 3.63261 19.938 2.19174 21.4591C0.73058 23.0007 0 24.974 0 27.3995C0 29.825 0.73058 31.8394 2.19174 33.4221C3.6529 34.9843 5.45906 35.7859 7.58992 35.7859C9.72077 35.7859 11.5269 35.0048 13.0084 33.4221C14.4695 31.8599 15.2001 29.8455 15.2001 27.3995C15.2001 24.9534 14.4695 23.0007 13.0084 21.4591C11.5472 19.9175 9.74107 19.1569 7.58992 19.1569ZM11.1008 29.9278C10.9384 30.7705 10.7152 31.5722 10.4108 32.3327C10.1064 33.0727 9.72078 33.6893 9.23372 34.1415C8.74667 34.6143 8.19873 34.8404 7.61021 34.8404C6.81875 34.8404 6.14905 34.4499 5.56053 33.6482C4.972 32.8466 4.54583 31.9216 4.28201 30.8116C4.01819 29.7222 3.87613 28.5917 3.87613 27.4406C3.87613 26.2895 4.01819 25.1795 4.28201 24.0901C4.54583 23.0007 4.972 22.0552 5.56053 21.2535C6.14905 20.4519 6.83904 20.0613 7.61021 20.0613C8.38138 20.0613 9.09166 20.4519 9.68019 21.233C10.2687 22.0141 10.6949 22.9596 10.9587 24.0285C11.2225 25.0973 11.3646 26.2073 11.3646 27.3584C11.3646 28.2011 11.2834 29.0439 11.1211 29.8866L11.1008 29.9278Z" fill="white"/>
<path d="M23.3375 24.0904C21.9372 24.0904 20.8414 24.666 20.0905 25.7965V24.2343L16.2549 24.3165V24.3782C16.2549 24.3782 16.3361 24.6043 16.4376 25.0154C16.539 25.4265 16.6405 25.8787 16.7217 26.3926C16.8029 26.9065 16.8638 27.3998 16.8638 27.8314V36.4645C16.8638 36.814 16.8435 37.184 16.7826 37.6156C16.7217 38.0267 16.6608 38.3967 16.5999 38.6639C16.539 38.9517 16.4579 39.2189 16.397 39.4861C16.3361 39.7533 16.2955 39.8972 16.2955 39.9178V40H20.679V39.9178C20.679 39.9178 20.6384 39.7328 20.5775 39.4861C20.5167 39.2189 20.4355 38.9517 20.3746 38.6639C20.3137 38.3762 20.2528 38.0267 20.1919 37.6156C20.1311 37.2045 20.1108 36.814 20.1108 36.4645V34.3268C20.8819 35.2518 21.8966 35.7246 23.094 35.7246C24.2913 35.7246 25.3872 35.2107 26.3207 34.1624C27.2339 33.1141 27.7007 31.6547 27.7007 29.7225C27.7007 27.9342 27.2745 26.5365 26.4425 25.5498C25.6104 24.5632 24.5754 24.0699 23.3578 24.0699L23.3375 24.0904ZM23.581 32.8674C23.1751 33.6896 22.546 34.1007 21.714 34.1007C21.1863 34.1007 20.6384 33.8952 20.0905 33.5252V26.742C20.679 26.2281 21.2675 25.9609 21.856 25.9609C22.6475 25.9609 23.236 26.3309 23.6216 27.0503C24.0072 27.7698 24.1898 28.6947 24.1898 29.8253C24.1898 31.0586 23.9869 32.0658 23.581 32.888V32.8674Z" fill="white"/>
<path d="M32.6533 25.2209H35.6771V24.2343H32.6533V20.4316H32.5315C31.9024 21.2949 31.2327 22.0349 30.5021 22.6721C29.7715 23.3093 28.8583 23.8643 27.803 24.3165V25.2209H29.4265V32.2096C29.4265 33.3401 29.6904 34.2034 30.218 34.8407C30.7456 35.4779 31.4762 35.7862 32.4097 35.7862C34.0333 35.7862 35.19 34.9023 35.8597 33.1346C35.2915 33.4429 34.7232 33.6073 34.1753 33.6073C33.1606 33.6073 32.6533 33.0318 32.6533 31.9013V25.2209Z" fill="white"/>
<path d="M40.8102 34.5526C40.7696 34.347 40.7087 34.1004 40.6478 33.8332C40.5869 33.5454 40.5463 33.2371 40.5057 32.9288C40.4652 32.5999 40.4449 32.3121 40.4449 32.0243V24.2545H36.6499V24.3368C37.0355 25.8989 37.2181 27.05 37.2181 27.79V32.0038C37.2181 32.3532 37.1978 32.7232 37.137 33.1549C37.0761 33.5865 37.0152 33.9154 36.9543 34.2032C36.8934 34.4909 36.8123 34.7581 36.7717 35.0048C36.6905 35.272 36.6499 35.4159 36.6499 35.457V35.5392H41.0334V35.457L40.9522 35.1487C40.8913 34.9637 40.8304 34.7581 40.7899 34.5526H40.8102Z" fill="white"/>
<path d="M36.6499 20.5139C36.6499 21.0895 36.8528 21.5622 37.2587 21.9528C37.6646 22.3433 38.1516 22.5489 38.7199 22.5489C39.2881 22.5489 39.7346 22.3433 40.1607 21.9528C40.5666 21.5622 40.7696 21.0689 40.7696 20.5139C40.7696 19.9589 40.5666 19.4862 40.181 19.0956C39.7752 18.7051 39.3084 18.4995 38.7402 18.4995C38.1719 18.4995 37.7052 18.7051 37.279 19.0956C36.8731 19.4862 36.6702 19.9589 36.6702 20.5139H36.6499Z" fill="white"/>
<path d="M47.6102 24.0909C45.9461 24.0909 44.5864 24.5843 43.4702 25.5914C42.3744 26.5781 41.8264 28.0169 41.8264 29.8669C41.8264 31.7168 42.3744 33.1763 43.4905 34.204C44.6067 35.2523 45.9664 35.7662 47.6102 35.7662C49.254 35.7662 50.634 35.2523 51.7501 34.204C52.8663 33.1763 53.4345 31.7374 53.4345 29.8669C53.4345 27.9964 52.8866 26.5986 51.7704 25.612C50.6543 24.6048 49.2743 24.1115 47.6102 24.1115V24.0909ZM49.2743 33.3818C48.909 34.3479 48.3611 34.8412 47.6102 34.8412C47.1028 34.8412 46.6767 34.5946 46.3317 34.0807C45.9867 33.5668 45.7634 32.9501 45.6214 32.2513C45.4793 31.5319 45.4184 30.7302 45.4184 29.8669C45.4184 28.5308 45.6011 27.3797 45.9664 26.4137C46.3317 25.4681 46.8796 24.9954 47.6102 24.9954C48.3408 24.9954 48.909 25.4681 49.2743 26.4137C49.6396 27.3592 49.8222 28.5103 49.8222 29.8669C49.8222 31.2235 49.6396 32.4157 49.2743 33.3818Z" fill="white"/>
<path d="M65.5502 34.204C65.4893 33.9162 65.4285 33.5668 65.3676 33.1557C65.3067 32.7446 65.2661 32.3541 65.2661 32.0046V27.8731C65.2661 26.6603 64.9211 25.7353 64.2311 25.0776C63.5411 24.4198 62.6685 24.0909 61.6335 24.0909C60.1318 24.0909 58.9344 24.7898 58.0415 26.1875V24.2348H54.2465V24.317C54.2465 24.317 54.2668 24.502 54.348 24.7487C54.4089 25.0159 54.4901 25.2831 54.5509 25.5709C54.6118 25.8587 54.6727 26.2081 54.7336 26.6192C54.7945 27.0303 54.8351 27.4208 54.8351 27.7703V31.9841C54.8351 32.3335 54.8148 32.7035 54.7336 33.1351C54.6727 33.5462 54.6118 33.8957 54.5509 34.1834C54.4901 34.4712 54.4089 34.7384 54.348 35.0057C54.2871 35.2729 54.2465 35.4168 54.2465 35.4373V35.5195H58.63V35.4373L58.5285 35.129C58.4677 34.944 58.4271 34.7384 58.3662 34.5329C58.3256 34.3273 58.2647 34.0807 58.2038 33.8135C58.143 33.5257 58.1024 33.2174 58.0618 32.909C58.0212 32.5802 58.0009 32.2924 58.0009 32.0046V26.907C58.6706 26.3931 59.3403 26.1464 59.9897 26.1464H60.0506C60.6188 26.1464 61.0653 26.352 61.4306 26.7014C61.7959 27.0509 61.9785 27.6058 61.9785 28.3253V32.0046C61.9785 32.7446 61.7959 33.8957 61.4103 35.4579V35.5401H65.7938V35.4579C65.7938 35.4579 65.7735 35.2729 65.6923 35.0262C65.6314 34.759 65.5502 34.4918 65.4893 34.204H65.5502Z" fill="white"/>
<path d="M72.5094 28.3253C72.5094 28.3253 72.4283 28.2842 72.3471 28.2842C71.3527 27.9348 70.6221 27.647 70.1959 27.3798C69.7698 27.1126 69.5465 26.7631 69.5465 26.2904C69.5465 25.8793 69.7089 25.5709 70.0133 25.3654C70.338 25.1393 70.7033 25.0365 71.1498 25.0365C71.8398 25.0365 72.5297 25.3037 73.1994 25.8176C73.8691 26.3315 74.5997 27.0509 75.3912 27.9553H75.4724V24.9543C74.133 24.3993 72.8139 24.1321 71.4542 24.1321C70.0945 24.1321 68.9377 24.4404 68.0854 25.0365C67.2533 25.6326 66.8272 26.4754 66.8272 27.5648C66.8272 28.4281 67.1316 29.1681 67.7404 29.7642C68.3492 30.3603 69.2827 30.8947 70.5004 31.3263C71.0686 31.5319 71.4948 31.6963 71.7586 31.7991C72.0224 31.9019 72.3065 32.0458 72.5906 32.2102C72.8747 32.3746 73.098 32.5596 73.2197 32.7446C73.3415 32.9296 73.3821 33.1557 73.3821 33.4024C73.3821 33.8546 73.2197 34.204 72.895 34.4302C72.5703 34.6768 72.1645 34.7796 71.6977 34.7796C71.4948 34.7796 71.2715 34.7385 71.0686 34.6974C70.8454 34.6357 70.6627 34.574 70.5004 34.5124C70.338 34.4507 70.1351 34.3274 69.8915 34.1629C69.648 33.9985 69.4654 33.8546 69.3436 33.7518C69.2015 33.6491 69.0189 33.4846 68.7551 33.238C68.4913 32.9913 68.3289 32.8269 68.2477 32.7241L67.6998 32.1897C67.4157 31.9019 67.2533 31.7374 67.2127 31.6758H67.1316V34.8207C68.7551 35.4579 70.2162 35.7868 71.5151 35.7868C72.8139 35.7868 73.8286 35.4785 74.7012 34.8413C75.5738 34.204 76 33.2791 76 32.0663C76 31.2236 75.7362 30.5041 75.2085 29.908C74.6809 29.312 73.7677 28.7775 72.5094 28.3459V28.3253Z" fill="white"/>
</svg>
