<svg width="140" height="67" viewBox="0 0 140 67" fill="none" xmlns="http://www.w3.org/2000/svg">
<path d="M54.3659 33.1446C54.1203 32.9915 53.8672 32.8804 53.6068 32.8112C53.3454 32.742 53.0776 32.6854 52.8015 32.6382C52.7711 32.6235 52.7396 32.6151 52.7091 32.6151C52.9086 32.6005 53.1238 32.5659 53.3538 32.5113C53.5837 32.4579 53.7916 32.3698 53.9754 32.2472C54.4972 32.0029 54.8878 31.6265 55.1492 31.1212C55.4096 30.6159 55.5408 30.033 55.5408 29.3746C55.5408 28.5631 55.3455 27.8576 54.9539 27.26C54.5623 26.6624 54.0069 26.2032 53.2855 25.8814C52.5642 25.5595 51.7211 25.3981 50.7541 25.3981H45.7469C45.602 25.3981 45.4844 25.5155 45.4844 25.6602V40.8376C45.4844 40.9697 45.5873 41.0829 45.7185 41.0986C46.3548 41.1752 46.9008 41.2307 47.3596 41.2653C47.873 41.3031 48.483 41.3303 49.1897 41.3461H49.765C51.867 41.3461 53.4661 40.9519 54.5633 40.1624C55.6605 39.3741 56.2086 38.2282 56.2086 36.7269C56.2086 35.9301 56.0438 35.2214 55.713 34.6008C55.3833 33.9801 54.934 33.4947 54.367 33.1414L54.3659 33.1446ZM52.8015 27.974C53.2614 28.3419 53.4913 28.8473 53.4913 29.491C53.4913 30.2112 53.2383 30.7857 52.7322 31.2145C52.2261 31.6433 51.5584 31.8582 50.7299 31.8582H47.5538V27.3544H50.753C51.6581 27.4005 52.3406 27.607 52.8015 27.975V27.974ZM53.1931 38.8205C52.5338 39.2493 51.5132 39.4799 50.1325 39.5093C49.7178 39.525 49.281 39.5177 48.8211 39.4862C48.4484 39.4611 48.1009 39.4265 47.7775 39.3814C47.6483 39.3636 47.5549 39.2514 47.5549 39.1203V33.7642H50.8696C51.5447 33.7642 52.1274 33.8837 52.6188 34.1206C53.1091 34.3586 53.4934 34.6993 53.7696 35.1438C54.0457 35.5883 54.1843 36.1241 54.1843 36.752C54.1843 37.7019 53.8536 38.3917 53.1942 38.8205H53.1931Z" fill="white"/>
<path d="M59.6734 29.6251L58.1279 29.6084C57.9819 29.6063 57.8623 29.7247 57.8623 29.8705V40.8554C57.8623 41.0001 57.9798 41.1175 58.1247 41.1175H59.6703C59.8152 41.1175 59.9328 41.0001 59.9328 40.8554V29.8872C59.9328 29.7436 59.8173 29.6262 59.6734 29.6251Z" fill="white"/>
<path d="M58.8283 25.6298C58.4608 25.6298 58.1532 25.7525 57.9085 25.9967C57.6628 26.2421 57.54 26.5482 57.54 26.9162C57.54 27.2841 57.6628 27.5903 57.9085 27.8356C58.2382 28.1658 58.6802 28.2738 59.2315 28.1595C59.2598 28.1533 59.2913 28.1428 59.3176 28.1291C59.8509 27.8555 60.1176 27.4498 60.1176 26.9162C60.1176 26.5335 59.9906 26.2232 59.7375 25.9852C59.4845 25.7472 59.1811 25.6287 58.8283 25.6287V25.6298Z" fill="white"/>
<path d="M69.6029 29.881C68.828 29.4365 67.9576 29.2153 66.9906 29.2153C65.8399 29.2153 64.8424 29.514 63.9983 30.1116C63.1541 30.7092 62.5136 31.4944 62.0768 32.4673C61.639 33.4402 61.4206 34.4855 61.4206 35.6041C61.4206 36.7227 61.6506 37.6988 62.1104 38.5794C62.5703 39.4611 63.2339 40.1499 64.1012 40.6478C64.9674 41.1458 65.9848 41.3953 67.1502 41.3953C68.0553 41.3953 68.911 41.2423 69.7163 40.9362C70.4408 40.6604 71.0687 40.2987 71.5999 39.849C71.7018 39.763 71.7186 39.611 71.644 39.5009L70.9658 38.5008C70.8807 38.376 70.7096 38.3519 70.5888 38.4431C70.1331 38.7859 69.6544 39.0459 69.1525 39.2231C68.5698 39.4296 67.9786 39.5334 67.3802 39.5334C66.0457 39.5334 65.0745 39.1193 64.4686 38.2921C64.0056 37.661 63.7211 36.9177 63.6119 36.0633H71.6545C71.7784 36.0633 71.8887 35.9773 71.9149 35.8557C72.022 35.3535 72.0745 34.8325 72.0745 34.2936C72.0745 33.3281 71.8561 32.4631 71.4183 31.6968C70.9815 30.9304 70.3746 30.3255 69.5998 29.881H69.6029ZM64.0455 32.9139C64.3678 32.286 64.7889 31.8268 65.3107 31.5353C65.8325 31.2449 66.3922 31.0992 66.9906 31.0992C67.8495 31.0992 68.5708 31.3865 69.1535 31.961C69.7363 32.5355 70.0281 33.2515 70.0281 34.1091V34.2936H63.6329C63.7074 33.7778 63.8397 33.3134 64.0445 32.915L64.0455 32.9139Z" fill="white"/>
<path d="M82.0008 29.8925C81.3561 29.5172 80.6348 29.3295 79.8379 29.3295C78.81 29.3295 77.8545 29.6398 76.9726 30.2605C76.4885 30.6002 76.0507 31.0237 75.6475 31.5133C75.5793 31.2009 75.4921 30.9 75.3724 30.6159C75.1236 30.0267 74.8233 29.5602 74.4737 29.2173C74.3781 29.123 74.2175 29.1167 74.1146 29.2048L73.0384 30.1252C72.9334 30.2154 72.9134 30.3727 72.9985 30.4806C73.2263 30.7689 73.3996 31.0866 73.5193 31.4315C73.6652 31.853 73.7303 32.3551 73.7146 32.937V40.8785C73.7146 41.0232 73.8321 41.1406 73.977 41.1406H75.5226C75.6675 41.1406 75.7851 41.0232 75.7851 40.8785V33.8722C75.7851 33.6929 75.8565 33.5283 75.9489 33.3752C75.9489 33.3752 75.9489 33.3742 75.9499 33.3731C76.3394 32.7137 76.814 32.1968 77.3736 31.8226C78.0026 31.4011 78.6934 31.1904 79.4452 31.1904C80.2432 31.1904 80.8752 31.4399 81.3435 31.9368C81.8118 32.4348 82.0449 33.1739 82.0449 34.1542V40.9005C82.0449 41.0452 82.1625 41.1626 82.3074 41.1626H83.8529C83.9978 41.1626 84.1154 41.0452 84.1154 40.9005V33.7631C84.1154 32.9055 83.9233 32.1392 83.54 31.4651C83.1568 30.791 82.6423 30.2668 81.9987 29.8904L82.0008 29.8925Z" fill="white"/>
<path d="M95.6838 39.2336H88.2921C88.1472 39.2336 88.0296 39.1162 88.0296 38.9715V25.6623C88.0296 25.5176 87.912 25.4002 87.7671 25.4002H86.2436C86.0987 25.4002 85.9811 25.5176 85.9811 25.6623V40.8785C85.9811 41.0232 86.0987 41.1406 86.2436 41.1406H95.6838C95.8287 41.1406 95.9463 41.0232 95.9463 40.8785V39.4957C95.9463 39.351 95.8287 39.2336 95.6838 39.2336Z" fill="white"/>
<path d="M103.953 29.881C103.178 29.4365 102.308 29.2153 101.341 29.2153C100.19 29.2153 99.1928 29.514 98.3486 30.1116C97.5044 30.7092 96.864 31.4944 96.4272 32.4673C95.9893 33.4402 95.771 34.4855 95.771 35.6041C95.771 36.7227 96.0009 37.6988 96.4608 38.5794C96.9206 39.4611 97.5842 40.1499 98.4515 40.6478C99.3177 41.1458 100.335 41.3953 101.501 41.3953C102.406 41.3953 103.261 41.2423 104.067 40.9362C104.791 40.6604 105.419 40.2987 105.95 39.849C106.052 39.763 106.069 39.611 105.994 39.5009L105.316 38.5008C105.231 38.376 105.06 38.3519 104.939 38.4431C104.483 38.7859 104.005 39.0459 103.503 39.2231C102.92 39.4296 102.329 39.5334 101.73 39.5334C100.396 39.5334 99.4248 39.1193 98.819 38.2921C98.3559 37.661 98.0714 36.9177 97.9622 36.0633H106.005C106.129 36.0633 106.239 35.9773 106.265 35.8557C106.372 35.3535 106.425 34.8325 106.425 34.2936C106.425 33.3281 106.206 32.4631 105.769 31.6968C105.332 30.9304 104.725 30.3255 103.95 29.881H103.953ZM98.3958 32.9139C98.7182 32.286 99.1392 31.8268 99.661 31.5353C100.183 31.2449 100.742 31.0992 101.341 31.0992C102.2 31.0992 102.921 31.3865 103.504 31.961C104.087 32.5355 104.378 33.2515 104.378 34.1091V34.2936H97.9832C98.0578 33.7778 98.19 33.3134 98.3948 32.915L98.3958 32.9139Z" fill="white"/>
<path d="M116.848 39.2105C116.686 38.766 116.606 38.2449 116.606 37.6484V33.1446C116.606 31.919 116.242 30.9702 115.513 30.2951C114.785 29.6209 113.776 29.2844 112.487 29.2844C111.552 29.2844 110.615 29.4333 109.68 29.7321C108.842 29.9994 108.14 30.3255 107.572 30.7092C107.46 30.7857 107.43 30.9377 107.497 31.0551L108.114 32.1433C108.189 32.2754 108.356 32.3121 108.484 32.2314C108.957 31.9337 109.509 31.6863 110.14 31.4892C110.876 31.2596 111.581 31.1442 112.257 31.1442C113.025 31.1442 113.596 31.3319 113.972 31.7072C114.348 32.0825 114.536 32.6382 114.536 33.3731V33.9245C113.553 33.8637 112.824 33.8323 112.35 33.8323C110.677 33.8176 109.385 34.15 108.472 34.8314C107.559 35.5128 107.103 36.4742 107.103 37.7155C107.103 38.4661 107.272 39.1319 107.609 39.7148C107.946 40.2966 108.407 40.7411 108.99 41.0472C109.573 41.3534 110.24 41.5064 110.992 41.5064C111.621 41.5064 112.22 41.3806 112.788 41.128C113.356 40.8753 113.846 40.5419 114.261 40.1289C114.477 39.9129 114.662 39.6885 114.819 39.4558C114.836 39.7389 114.909 40.024 115.054 40.3123C115.274 40.7506 115.565 41.1542 115.928 41.5232C116.023 41.6207 116.181 41.6239 116.285 41.5368L117.382 40.6122C117.489 40.522 117.502 40.3647 117.418 40.2526C117.173 39.9265 116.983 39.5785 116.85 39.2094L116.848 39.2105ZM114.535 36.9586C114.535 37.4335 114.392 37.8811 114.108 38.3026C113.825 38.724 113.433 39.0574 112.935 39.3017C112.436 39.547 111.902 39.6697 111.335 39.6697C110.675 39.6697 110.143 39.4935 109.736 39.1413C109.33 38.789 109.126 38.2764 109.126 37.6023C109.126 36.9282 109.379 36.3767 109.885 36.0402C110.392 35.7036 111.143 35.5349 112.141 35.5349C112.893 35.5349 113.521 35.5506 114.029 35.581C114.243 35.581 114.412 35.5894 114.535 35.6041V36.9596V36.9586Z" fill="white"/>
<path d="M121.519 26.457C121.779 26.1508 122.178 25.9978 122.716 25.9978C123.136 25.9978 123.514 26.1194 123.85 26.3616C123.966 26.4454 124.131 26.4056 124.21 26.2861L124.955 25.1622C125.03 25.05 125.01 24.8949 124.903 24.812C124.257 24.3162 123.46 24.0677 122.509 24.0677C121.435 24.0677 120.591 24.3895 119.978 25.0333C119.363 25.677 119.057 26.6111 119.057 27.8366V29.6294H117.985C117.84 29.6294 117.722 29.7468 117.722 29.8915V31.182C117.722 31.3267 117.84 31.4441 117.985 31.4441H119.057V40.8565C119.057 41.0011 119.174 41.1186 119.319 41.1186H120.865C121.01 41.1186 121.127 41.0011 121.127 40.8565V31.4441H124.11C124.255 31.4441 124.373 31.3267 124.373 31.182V29.8915C124.373 29.7468 124.255 29.6294 124.11 29.6294H121.127V27.8366C121.127 27.2244 121.257 26.7641 121.519 26.458V26.457Z" fill="white"/>
<path d="M34.462 34.5578C35.9781 32.1843 36.2175 29.8212 36.2511 29.0958C36.2605 28.9595 36.2595 28.8808 36.2595 28.8808C36.2605 23.9838 32.2707 20 27.3664 20H18.2759C16.471 20 15.0021 21.4656 15.0021 23.2678V34.4897H15V43.7301C15 44.5604 15.3139 45.3226 15.8263 45.8981C16.4258 46.5744 17.3026 47 18.2748 47H30.5729C32.3946 47 34.1123 46.2923 35.4111 44.9997C36.7015 43.7112 37.4102 41.9971 37.4102 40.1688C37.4102 37.8959 36.2878 35.8138 34.462 34.5578ZM18.2759 22.2939H27.3664C30.5068 22.2939 33.1369 24.4986 33.7984 27.4309C26.4939 27.1458 21.179 29.2142 17.985 33.5954C17.7404 33.9351 17.5136 34.2789 17.3005 34.6281V23.2678C17.3005 22.731 17.7383 22.2939 18.2759 22.2939ZM17.2994 43.7301V43.3736C17.2994 41.7864 17.5136 40.2023 17.9924 38.6895C18.3851 37.4461 18.9709 36.1461 19.8434 34.9436C22.5775 31.1883 27.2929 29.4417 33.874 29.7311C33.7112 30.7648 33.2419 32.5701 31.8896 34.1982C29.9409 36.5529 26.8246 37.748 22.6216 37.7627C23.807 35.1564 26.034 33.1949 29.4264 32.33C22.7949 33.1121 19.6461 38.4578 19.4886 44.7051H18.2759C17.7393 44.7051 17.2994 44.27 17.2994 43.7301ZM33.791 43.3757C32.928 44.2333 31.7835 44.7051 30.575 44.7051H21.6914C21.6756 44.5615 21.662 44.4231 21.6504 44.3277C21.5213 42.817 21.5979 41.3775 21.8793 40.045C22.1019 40.0503 22.3266 40.0608 22.545 40.0608C27.0934 40.0608 30.6097 38.8142 33.0277 36.3547C34.3181 37.1798 35.1129 38.6088 35.1129 40.1698C35.1129 41.3859 34.6405 42.5245 33.791 43.3768V43.3757Z" fill="white"/>
</svg>
