<svg width="140" height="67" viewBox="0 0 140 67" fill="none" xmlns="http://www.w3.org/2000/svg">
<path d="M45.6032 31.0855C45.6032 31.0855 45.5733 30.9514 45.5285 30.7726C45.4836 30.5789 45.4238 30.3851 45.3789 30.1765C45.3341 29.9679 45.2892 29.7145 45.2444 29.4165C45.1995 29.1184 45.1845 28.8353 45.1845 28.5819V25.6313H49.6855V28.5819C49.6855 28.8353 49.6556 29.1035 49.6257 29.4165C49.5808 29.7145 49.536 29.9679 49.4911 30.1765C49.4463 30.3851 49.3865 30.5789 49.3416 30.7726C49.2967 30.9663 49.2668 31.0706 49.2668 31.0855V31.1452H52.6463V31.0855C52.6463 31.0855 52.6164 30.9514 52.5715 30.7726C52.5267 30.5789 52.4669 30.3851 52.422 30.1765C52.3771 29.9679 52.3323 29.7145 52.2874 29.4165C52.2425 29.1184 52.2276 28.8353 52.2276 28.5819V22.01C52.2276 21.7567 52.2425 21.4884 52.2874 21.1755C52.3323 20.8774 52.3771 20.6241 52.422 20.4154C52.4669 20.2068 52.5267 20.0131 52.5715 19.8193C52.6164 19.6256 52.6463 19.5213 52.6463 19.5064V19.4468H49.2668V19.5064C49.2668 19.5064 49.2967 19.6405 49.3416 19.8193C49.3865 20.0131 49.4463 20.2068 49.4911 20.4154C49.536 20.6241 49.5808 20.8774 49.6257 21.1755C49.6706 21.4735 49.6855 21.7567 49.6855 22.01V24.9011H45.1845V22.01C45.1845 21.7567 45.1995 21.4884 45.2444 21.1755C45.2892 20.8774 45.3341 20.6241 45.3789 20.4154C45.4238 20.2068 45.4836 20.0131 45.5285 19.8193C45.5733 19.6256 45.6032 19.5213 45.6032 19.5064V19.4468H42.2088V19.5064L42.2686 19.7299C42.3135 19.864 42.3584 20.0131 42.3883 20.1621C42.4182 20.3111 42.463 20.4899 42.5079 20.6986C42.5527 20.9072 42.5827 21.1308 42.6126 21.3543C42.6425 21.5927 42.6574 21.8014 42.6574 22.01V28.5819C42.6574 28.7906 42.6574 29.0141 42.6126 29.2377C42.5827 29.4761 42.5527 29.6847 42.5079 29.8934C42.463 30.102 42.4331 30.2808 42.3883 30.4149C42.3584 30.564 42.3135 30.713 42.2686 30.8471L42.2088 31.0706V31.1303H45.6032V31.0706V31.0855Z" fill="white"/>
<path d="M57.597 31.324C58.5092 31.324 59.2868 31.0707 59.9298 30.5789C60.5728 30.0871 61.0214 29.506 61.2756 28.8503L61.2158 28.8204C60.3634 29.4463 59.5111 29.7593 58.6737 29.7593C57.8961 29.7593 57.283 29.506 56.8643 28.9844C56.4456 28.4628 56.1914 27.7624 56.1017 26.8831H61.3802C61.3802 25.7506 61.0662 24.7968 60.4531 24.0219C59.8251 23.2469 58.898 22.8595 57.6419 22.8595C56.3858 22.8595 55.3989 23.232 54.6363 23.9772C53.8736 24.7372 53.4998 25.7655 53.4998 27.062C53.4998 28.3585 53.9035 29.4463 54.726 30.1915C55.5484 30.9366 56.5054 31.3091 57.612 31.3091L57.597 31.324ZM56.0568 26.2423C56.0568 25.4823 56.1765 24.8415 56.4157 24.305C56.655 23.7685 57.0438 23.5003 57.5821 23.5003C58.4793 23.5003 58.9578 24.3348 59.0027 25.989L56.0568 26.4808V26.2423Z" fill="white"/>
<path d="M70.4412 29.9683L70.4113 29.9236C70.2468 29.9981 70.0973 30.0428 69.9776 30.0428C69.5888 30.0428 69.3944 29.6703 69.3944 28.94V25.5721C69.3944 24.7525 69.1402 24.0968 68.6318 23.605C68.1234 23.1132 67.3458 22.8748 66.314 22.8748C65.2823 22.8748 64.0262 23.0834 62.6056 23.4709V25.7211H62.6953C62.8598 25.4976 63.3682 25.0803 64.2505 24.4842C65.1178 23.8881 65.7608 23.5901 66.1795 23.5901C66.7477 23.5901 67.0318 24.2011 67.0318 25.4231V26.3768C66.643 26.2427 66.2094 26.1533 65.701 26.1384C65.5514 26.1384 65.4019 26.1235 65.2673 26.1235C64.4449 26.1235 63.7122 26.3321 63.0991 26.7494C62.3663 27.2412 62.0075 27.9118 62.0075 28.7463C62.0075 29.4318 62.2467 30.0279 62.7103 30.5495C63.1738 31.0711 63.8168 31.3244 64.6393 31.3244C65.7458 31.3244 66.5683 30.8923 67.1215 30.0279C67.3608 30.8774 67.929 31.2946 68.8412 31.2946C69.3047 31.2946 69.6786 31.1754 69.9627 30.9221C70.2617 30.6836 70.4262 30.3707 70.486 29.9832L70.4412 29.9683ZM67.0019 29.4914C66.6879 29.8342 66.314 29.9981 65.9103 29.9981C65.4767 29.9981 65.1327 29.8491 64.8636 29.5361C64.5944 29.2381 64.4598 28.8655 64.4598 28.4036C64.4598 27.882 64.6393 27.4945 64.9682 27.2114C65.3122 26.9431 65.7309 26.809 66.2243 26.809C66.3739 26.809 66.5084 26.809 66.658 26.8388C66.7477 26.8388 66.8673 26.8537 67.0019 26.8537V29.4914Z" fill="white"/>
<path d="M71.3087 28.5822C71.3087 28.8356 71.2938 29.1038 71.2489 29.4168C71.204 29.7148 71.1592 29.9682 71.1143 30.1768C71.0695 30.3854 71.0096 30.5792 70.9648 30.7729C70.9199 30.9666 70.89 31.0709 70.89 31.0858V31.1455H74.1199V31.0858C74.1199 31.0858 74.09 30.9517 74.0452 30.7729C74.0003 30.5792 73.9405 30.3854 73.8956 30.1768C73.8508 29.9682 73.8059 29.7148 73.7611 29.4168C73.7162 29.1187 73.7013 28.8356 73.7013 28.5822V19L70.8452 19.3279V19.3875C71.1592 20.3263 71.3237 21.1459 71.3237 21.8464V28.5822H71.3087Z" fill="white"/>
<path d="M75.6002 28.7314C75.6002 29.551 75.7946 30.1769 76.1833 30.6389C76.5721 31.1008 77.1105 31.3244 77.7983 31.3244C78.9946 31.3244 79.8469 30.6836 80.3404 29.402C79.9217 29.6255 79.503 29.7447 79.0993 29.7447C78.3516 29.7447 77.9778 29.3274 77.9778 28.5078V23.6794H80.2058V22.9641H77.9778V20.2072H77.888C77.4245 20.8331 76.931 21.3696 76.3927 21.8315C75.8544 22.2935 75.1815 22.6959 74.4039 23.0237V23.6794H75.6002V28.7463V28.7314Z" fill="white"/>
<path d="M80.8645 19.5961C80.9094 19.7302 80.9542 19.8643 80.9841 20.0134C81.029 20.1624 81.0589 20.3412 81.1038 20.5498C81.1486 20.7436 81.1785 20.9671 81.2084 21.1907C81.2383 21.4142 81.2533 21.6377 81.2533 21.8464V28.5822C81.2533 29.1187 81.1038 29.9533 80.8346 31.0858V31.1455H84.0645V31.0858C84.0645 31.0858 84.0346 30.9517 83.9898 30.7729C83.9449 30.5792 83.8851 30.3854 83.8402 30.1768C83.7954 29.9682 83.7505 29.7148 83.7057 29.4168C83.6608 29.1187 83.6458 28.8356 83.6458 28.5822V24.8119C84.1244 24.5139 84.6029 24.35 85.0664 24.35C85.5001 24.35 85.859 24.4841 86.1431 24.7374C86.4272 24.9908 86.5618 25.3931 86.5618 25.9147V28.5822C86.5618 29.1187 86.4272 29.9533 86.1431 31.0858V31.1455H89.373V31.0858C89.373 31.0858 89.358 30.9517 89.2982 30.7729C89.2384 30.5941 89.1936 30.3854 89.1487 30.1768C89.1038 29.9682 89.059 29.7148 89.0141 29.4168C88.9693 29.1187 88.9543 28.8356 88.9543 28.5822V25.5869C88.9543 24.7076 88.7001 24.037 88.1917 23.5601C87.6833 23.0833 87.0403 22.8448 86.2776 22.8448C85.216 22.8448 84.3487 23.3217 83.6458 24.2754V19L80.7897 19.3279V19.3875C80.7897 19.3875 80.8346 19.462 80.8795 19.5961H80.8645Z" fill="white"/>
<path d="M90.614 25.2741L93.4701 31.4586L93.2458 32.01C93.0963 32.3528 92.9318 32.5912 92.7374 32.7104C92.528 32.8297 92.3486 32.9042 92.1542 32.9042C92.0794 32.9042 91.9449 32.8893 91.7654 32.8446C91.586 32.7998 91.3617 32.6955 91.0776 32.5167C90.7935 32.3379 90.5093 32.0994 90.2252 31.8163H90.1804L89.7019 34.0517C90.3149 34.2901 90.8682 34.4093 91.3467 34.4093C91.6458 34.4093 92.0346 34.3199 92.5131 34.156C92.9766 33.992 93.4103 33.4257 93.814 32.4571L96.8346 25.14C97.1038 24.5141 97.4926 23.7988 97.986 23.0239V22.9643H95.9823V23.009C96.1468 23.5008 96.2215 23.9329 96.2215 24.3204C96.2215 24.6482 96.1617 24.9314 96.057 25.1996L94.6813 28.5527L93.1411 25.1698C92.9916 24.8271 92.9168 24.4843 92.9168 24.1267C92.9168 23.769 93.0066 23.3964 93.1561 23.009V22.9643H89.2682V23.0239C89.3878 23.158 89.5822 23.471 89.8663 23.9329C90.1505 24.3949 90.3897 24.842 90.5991 25.289L90.614 25.2741Z" fill="white"/>
<path d="M47.5926 32.8888C46.0075 32.8888 44.6767 33.4551 43.615 34.5578C42.5383 35.6755 42 37.1061 42 38.8646C42 40.6231 42.5383 42.0835 43.615 43.231C44.6916 44.3636 46.0225 44.9448 47.5926 44.9448C49.1627 44.9448 50.4935 44.3785 51.5851 43.231C52.6618 42.0984 53.2001 40.638 53.2001 38.8646C53.2001 37.0912 52.6618 35.6755 51.5851 34.5578C50.5085 33.4402 49.1776 32.8888 47.5926 32.8888ZM50.1795 40.6976C50.0599 41.3086 49.8954 41.8898 49.6711 42.4412C49.4468 42.9777 49.1627 43.4248 48.8038 43.7526C48.4449 44.0954 48.0412 44.2593 47.6075 44.2593C47.0243 44.2593 46.5309 43.9762 46.0972 43.395C45.6636 42.8138 45.3496 42.1432 45.1552 41.3384C44.9608 40.5486 44.8561 39.729 44.8561 38.8944C44.8561 38.0599 44.9608 37.2552 45.1552 36.4653C45.3496 35.6755 45.6636 34.99 46.0972 34.4088C46.5309 33.8276 47.0393 33.5445 47.6075 33.5445C48.1758 33.5445 48.6991 33.8276 49.1328 34.3939C49.5664 34.9602 49.8804 35.6457 50.0748 36.4206C50.2692 37.1956 50.3739 38.0003 50.3739 38.8348C50.3739 39.4458 50.3141 40.0568 50.1945 40.6678L50.1795 40.6976Z" fill="white"/>
<path d="M59.1961 36.4655C58.1643 36.4655 57.3568 36.8828 56.8035 37.7024V36.5699L53.9773 36.6295V36.6742C53.9773 36.6742 54.0371 36.8381 54.1119 37.1362C54.1867 37.4342 54.2614 37.7621 54.3212 38.1346C54.3811 38.5072 54.4259 38.8648 54.4259 39.1778V45.4368C54.4259 45.6901 54.411 45.9584 54.3661 46.2713C54.3212 46.5694 54.2764 46.8376 54.2315 47.0313C54.1867 47.24 54.1269 47.4337 54.082 47.6274C54.0371 47.8212 54.0072 47.9255 54.0072 47.9404V48H57.2372V47.9404C57.2372 47.9404 57.2073 47.8063 57.1624 47.6274C57.1175 47.4337 57.0577 47.24 57.0129 47.0313C56.968 46.8227 56.9231 46.5694 56.8783 46.2713C56.8334 45.9733 56.8185 45.6901 56.8185 45.4368V43.8869C57.3867 44.5576 58.1344 44.9003 59.0166 44.9003C59.8989 44.9003 60.7063 44.5277 61.3942 43.7677C62.0671 43.0077 62.411 41.9496 62.411 40.5488C62.411 39.2523 62.097 38.2389 61.4839 37.5236C60.8708 36.8083 60.1082 36.4506 59.211 36.4506L59.1961 36.4655ZM59.3755 42.8289C59.0764 43.425 58.6129 43.723 57.9998 43.723C57.611 43.723 57.2073 43.574 56.8035 43.3057V38.388C57.2372 38.0154 57.6708 37.8217 58.1045 37.8217C58.6876 37.8217 59.1213 38.0899 59.4054 38.6115C59.6895 39.1331 59.8241 39.8037 59.8241 40.6233C59.8241 41.5175 59.6746 42.2477 59.3755 42.8438V42.8289Z" fill="white"/>
<path d="M66.0603 37.2852H68.2884V36.5698H66.0603V33.8129H65.9706C65.507 34.4388 65.0136 34.9753 64.4752 35.4373C63.9369 35.8992 63.264 36.3016 62.4864 36.6294V37.2852H63.6827V42.352C63.6827 43.1716 63.8771 43.7975 64.2659 44.2595C64.6547 44.7214 65.193 44.945 65.8809 44.945C67.0771 44.945 67.9295 44.3042 68.4229 43.0226C68.0042 43.2461 67.5856 43.3653 67.1818 43.3653C66.4341 43.3653 66.0603 42.9481 66.0603 42.1284V37.2852Z" fill="white"/>
<path d="M72.0706 44.0506C72.0407 43.9016 71.9959 43.7228 71.951 43.529C71.9061 43.3204 71.8762 43.0969 71.8463 42.8733C71.8164 42.6349 71.8015 42.4263 71.8015 42.2176V36.5845H69.0052V36.6441C69.2893 37.7767 69.4239 38.6113 69.4239 39.1477V42.2027C69.4239 42.4561 69.4089 42.7243 69.3641 43.0373C69.3192 43.3502 69.2743 43.5887 69.2295 43.7973C69.1846 44.0059 69.1248 44.1997 69.0949 44.3785C69.0351 44.5722 69.0052 44.6765 69.0052 44.7063V44.766H72.2351V44.7063L72.1753 44.4828C72.1304 44.3487 72.0856 44.1997 72.0557 44.0506H72.0706Z" fill="white"/>
<path d="M69.0052 33.8726C69.0052 34.2899 69.1547 34.6326 69.4538 34.9158C69.7529 35.1989 70.1117 35.3479 70.5304 35.3479C70.9491 35.3479 71.2781 35.1989 71.5921 34.9158C71.8912 34.6326 72.0407 34.275 72.0407 33.8726C72.0407 33.4702 71.8912 33.1275 71.6071 32.8443C71.308 32.5612 70.9641 32.4122 70.5454 32.4122C70.1267 32.4122 69.7828 32.5612 69.4687 32.8443C69.1697 33.1275 69.0201 33.4702 69.0201 33.8726H69.0052Z" fill="white"/>
<path d="M77.0812 36.4659C75.855 36.4659 74.8531 36.8236 74.0307 37.5538C73.2232 38.2691 72.8195 39.3123 72.8195 40.6535C72.8195 41.9947 73.2232 43.0528 74.0457 43.7979C74.8681 44.5579 75.87 44.9305 77.0812 44.9305C78.2924 44.9305 79.3092 44.5579 80.1317 43.7979C80.9541 43.0528 81.3728 42.0096 81.3728 40.6535C81.3728 39.2974 80.9691 38.284 80.1466 37.5687C79.3242 36.8385 78.3074 36.4808 77.0812 36.4808V36.4659ZM78.3074 43.2018C78.0382 43.9022 77.6345 44.2599 77.0812 44.2599C76.7074 44.2599 76.3933 44.081 76.1391 43.7085C75.8849 43.3359 75.7204 42.8889 75.6158 42.3822C75.5111 41.8606 75.4662 41.2794 75.4662 40.6535C75.4662 39.6848 75.6008 38.8503 75.87 38.1499C76.1391 37.4644 76.5429 37.1216 77.0812 37.1216C77.6195 37.1216 78.0382 37.4644 78.3074 38.1499C78.5765 38.8354 78.7111 39.6699 78.7111 40.6535C78.7111 41.6371 78.5765 42.5014 78.3074 43.2018Z" fill="white"/>
<path d="M90.3002 43.7979C90.2553 43.5893 90.2104 43.3359 90.1656 43.0379C90.1207 42.7398 90.0908 42.4567 90.0908 42.2033V39.208C90.0908 38.3287 89.8366 37.6581 89.3282 37.1812C88.8198 36.7044 88.1768 36.4659 87.4142 36.4659C86.3076 36.4659 85.4254 36.9726 84.7674 37.986V36.5702H81.9711V36.6299C81.9711 36.6299 81.9861 36.764 82.0459 36.9428C82.0908 37.1365 82.1506 37.3303 82.1954 37.5389C82.2403 37.7475 82.2851 38.0009 82.33 38.2989C82.3749 38.597 82.4048 38.8801 82.4048 39.1335V42.1884C82.4048 42.4418 82.3898 42.71 82.33 43.023C82.2851 43.321 82.2403 43.5744 82.1954 43.783C82.1506 43.9916 82.0908 44.1854 82.0459 44.3791C82.001 44.5728 81.9711 44.6771 81.9711 44.692V44.7517H85.2011V44.692L85.1263 44.4685C85.0814 44.3344 85.0515 44.1854 85.0067 44.0363C84.9768 43.8873 84.9319 43.7085 84.887 43.5148C84.8422 43.3061 84.8123 43.0826 84.7824 42.8591C84.7525 42.6206 84.7375 42.412 84.7375 42.2033V38.5076C85.231 38.135 85.7244 37.9562 86.2029 37.9562H86.2478C86.6665 37.9562 86.9955 38.1052 87.2646 38.3585C87.5338 38.6119 87.6684 39.0142 87.6684 39.5358V42.2033C87.6684 42.7398 87.5338 43.5744 87.2497 44.7069V44.7666H90.4796V44.7069C90.4796 44.7069 90.4647 44.5728 90.4048 44.394C90.36 44.2003 90.3002 44.0065 90.2553 43.7979H90.3002Z" fill="white"/>
<path d="M95.428 39.5358C95.428 39.5358 95.3682 39.506 95.3084 39.506C94.5757 39.2527 94.0373 39.0441 93.7233 38.8503C93.4093 38.6566 93.2448 38.4033 93.2448 38.0605C93.2448 37.7625 93.3644 37.5389 93.5887 37.3899C93.828 37.226 94.0972 37.1515 94.4261 37.1515C94.9346 37.1515 95.443 37.3452 95.9364 37.7178C96.4299 38.0903 96.9682 38.6119 97.5514 39.2676H97.6112V37.0919C96.6243 36.6895 95.6523 36.4958 94.6504 36.4958C93.6486 36.4958 92.7962 36.7193 92.1682 37.1515C91.5551 37.5836 91.2411 38.1946 91.2411 38.9845C91.2411 39.6104 91.4654 40.1468 91.914 40.579C92.3626 41.0112 93.0504 41.3986 93.9476 41.7116C94.3663 41.8606 94.6803 41.9798 94.8747 42.0544C95.0691 42.1289 95.2785 42.2332 95.4878 42.3524C95.6972 42.4716 95.8617 42.6057 95.9514 42.7399C96.0411 42.874 96.071 43.0379 96.071 43.2167C96.071 43.5446 95.9514 43.7979 95.7121 43.9619C95.4729 44.1407 95.1738 44.2152 94.8299 44.2152C94.6803 44.2152 94.5159 44.1854 94.3663 44.1556C94.2018 44.1109 94.0673 44.0662 93.9476 44.0215C93.828 43.9768 93.6785 43.8873 93.499 43.7681C93.3196 43.6489 93.185 43.5446 93.0953 43.4701C92.9906 43.3956 92.856 43.2764 92.6616 43.0975C92.4672 42.9187 92.3476 42.7995 92.2878 42.725L91.8841 42.3375C91.6747 42.1289 91.5551 42.0096 91.5252 41.9649H91.4654V44.245C92.6616 44.707 93.7383 44.9454 94.6953 44.9454C95.6523 44.9454 96.4 44.7219 97.043 44.2599C97.686 43.7979 98 43.1273 98 42.2481C98 41.6371 97.8056 41.1155 97.4168 40.6833C97.028 40.2512 96.3551 39.8637 95.428 39.5508V39.5358Z" fill="white"/>
</svg>
