<svg width="58" height="12" viewBox="0 0 58 12" fill="none" xmlns="http://www.w3.org/2000/svg">
<path d="M13.3833 5.46649L10.5356 0.533514C10.3449 0.203273 9.99275 0 9.61122 0H3.9152C3.53429 0 3.18154 0.203273 2.9914 0.533514L0.143073 5.46649C-0.047691 5.79673 -0.047691 6.20327 0.143073 6.53351L2.9914 11.4665C3.18154 11.7967 3.53429 12 3.9152 12H9.61122C9.99275 12 10.3449 11.7967 10.5356 11.4665L13.3833 6.53351C13.5741 6.20327 13.5741 5.79673 13.3833 5.46649ZM8.53356 8.30919C6.61529 10.6034 3.52116 10.1218 2.01944 9.00094C3.44673 9.83405 4.89091 9.9091 6.32883 9.37684C7.06187 9.10602 7.65417 8.63505 8.16079 8.05713C8.58548 7.57302 8.91321 7.02637 9.09647 6.39466C9.42359 5.26446 9.39732 4.11988 8.8907 2.96716C8.80564 2.7739 8.69368 2.59001 8.60737 2.42614C9.63874 3.76462 10.059 6.48473 8.53356 8.30919ZM11.0398 2.18284C11.0204 2.22975 10.9753 2.25977 10.9247 2.25977C10.9047 2.25977 10.8872 2.25665 10.869 2.25352L10.8559 2.25164C9.99463 2.12342 9.134 1.99458 8.27337 1.86574C8.26274 1.86386 8.25211 1.86011 8.23835 1.85573C8.22709 1.85198 8.21458 1.8476 8.19957 1.84322L8.0995 1.8132L8.09387 1.91765C8.09324 1.93516 8.09262 1.94955 8.09199 1.96268C8.09199 1.98144 8.09199 1.9952 8.08949 2.00897L8.05759 2.22037C7.94001 3.01282 7.82179 3.80527 7.70108 4.59773C7.69545 4.63651 7.67669 4.67904 7.65292 4.70968C7.63666 4.72907 7.60976 4.74033 7.57724 4.74033C7.55848 4.74033 7.53971 4.73658 7.52283 4.72907C7.47529 4.70781 7.4459 4.6609 7.44777 4.60961C7.44777 4.59398 7.4509 4.57834 7.4534 4.5627L7.87683 1.72751C7.89747 1.58803 7.94876 1.57677 8.01381 1.57677C8.03195 1.57677 8.05321 1.57865 8.07573 1.58178L8.5886 1.65808C9.35979 1.77379 10.1316 1.88888 10.9028 2.00584C10.9434 2.01209 10.9866 2.02961 11.0172 2.05337C11.0498 2.07777 11.0598 2.13468 11.0398 2.18284Z" fill="white"/>
<path d="M17.219 9.88533C17.1433 9.82091 17.0633 9.77275 16.9794 9.74023C16.8956 9.7077 16.8068 9.69207 16.7136 9.69207C16.5341 9.69207 16.3878 9.74961 16.2752 9.86469C16.1626 9.97978 16.1063 10.1293 16.1063 10.3125C16.1063 10.4958 16.1613 10.6365 16.2708 10.7516C16.3803 10.8667 16.5185 10.9242 16.6855 10.9242C16.7831 10.9242 16.8756 10.9067 16.9632 10.8723C17.0507 10.8379 17.1358 10.786 17.2165 10.7159V11.018C17.1446 11.0699 17.0664 11.1081 16.9819 11.1337C16.8975 11.1594 16.8056 11.1719 16.7067 11.1719C16.581 11.1719 16.4647 11.1513 16.3584 11.11C16.2514 11.0687 16.1576 11.008 16.0769 10.928C15.9969 10.8492 15.9349 10.7566 15.8924 10.6503C15.8499 10.5439 15.828 10.4301 15.828 10.3094C15.828 10.1887 15.8492 10.0755 15.8924 9.96977C15.9356 9.86407 15.9975 9.77087 16.0794 9.69082C16.1607 9.61013 16.2545 9.54884 16.3602 9.50693C16.4659 9.46565 16.5798 9.44439 16.703 9.44439C16.7993 9.44439 16.8919 9.45815 16.9794 9.48629C17.067 9.51444 17.1521 9.55697 17.2346 9.61389L17.2202 9.88346L17.219 9.88533Z" fill="white"/>
<path d="M19.2361 10.3113C19.2361 10.4282 19.2142 10.5383 19.1704 10.6428C19.1266 10.7466 19.0628 10.8398 18.979 10.9211C18.8946 11.0024 18.7989 11.0649 18.6926 11.1087C18.5862 11.1519 18.4749 11.1738 18.358 11.1738C18.241 11.1738 18.1265 11.1519 18.0196 11.1081C17.912 11.0643 17.8169 11.0018 17.735 10.9211C17.6512 10.8392 17.5874 10.7472 17.5442 10.6434C17.5011 10.5396 17.4792 10.4295 17.4792 10.3113C17.4792 10.1931 17.5011 10.083 17.5442 9.97853C17.5874 9.8747 17.6512 9.78151 17.735 9.69895C17.8188 9.61764 17.9139 9.55509 18.0202 9.51256C18.1265 9.47003 18.2391 9.44876 18.358 9.44876C18.4768 9.44876 18.5881 9.47003 18.6944 9.51256C18.8001 9.55509 18.8952 9.61764 18.979 9.69895C19.0628 9.78213 19.1266 9.87595 19.1704 9.9804C19.2142 10.0849 19.2361 10.1949 19.2361 10.3113ZM18.9578 10.3113C18.9578 10.2281 18.9428 10.1493 18.9121 10.0742C18.8821 9.99917 18.8383 9.93287 18.7814 9.87407C18.7257 9.81653 18.6619 9.77213 18.5887 9.74085C18.5156 9.70958 18.4386 9.69394 18.358 9.69394C18.2773 9.69394 18.2003 9.70958 18.1272 9.74023C18.054 9.77087 17.9889 9.81528 17.932 9.87407C17.8751 9.93162 17.8319 9.99792 17.8019 10.073C17.7719 10.148 17.7569 10.2275 17.7569 10.3113C17.7569 10.3951 17.7719 10.4726 17.8019 10.5471C17.8319 10.6215 17.8751 10.6872 17.932 10.746C17.9889 10.8048 18.054 10.8492 18.1265 10.8798C18.1991 10.9105 18.276 10.9261 18.358 10.9261C18.4399 10.9261 18.5143 10.9105 18.5862 10.8798C18.6582 10.8492 18.7232 10.8048 18.7814 10.746C18.8383 10.6878 18.8821 10.6209 18.9121 10.5464C18.9421 10.472 18.9578 10.3938 18.9578 10.3113Z" fill="white"/>
<path d="M19.5426 11.13V9.42062L20.5871 10.4257C20.6158 10.4545 20.6446 10.4845 20.6734 10.5164C20.7022 10.5483 20.7334 10.5852 20.7653 10.6252V9.48567H21.0124V11.1938L19.9466 10.1705C19.9178 10.143 19.8909 10.1136 19.864 10.083C19.8378 10.0523 19.8121 10.0198 19.7884 9.98666V11.13H19.5426Z" fill="white"/>
<path d="M21.2957 10.801L21.509 10.7022C21.529 10.7754 21.5665 10.8316 21.6203 10.8698C21.6741 10.9086 21.7429 10.9273 21.8267 10.9273C21.9062 10.9273 21.9693 10.9055 22.0162 10.861C22.0632 10.8166 22.0863 10.7578 22.0863 10.6834C22.0863 10.5871 22.0062 10.5008 21.8461 10.4251C21.8236 10.4138 21.8067 10.4057 21.7942 10.4001C21.6128 10.3119 21.4921 10.2318 21.4321 10.1605C21.372 10.0892 21.3414 10.0017 21.3414 9.89847C21.3414 9.76462 21.387 9.65579 21.4777 9.57261C21.5684 9.48942 21.6879 9.44814 21.8355 9.44814C21.9568 9.44814 22.0581 9.47128 22.1401 9.51819C22.2214 9.5651 22.2783 9.63202 22.3096 9.71959L22.1007 9.82717C22.0675 9.77525 22.0319 9.73773 21.9925 9.71396C21.9531 9.69019 21.908 9.67831 21.8574 9.67831C21.7854 9.67831 21.7285 9.69707 21.686 9.7346C21.6435 9.77213 21.6228 9.82216 21.6228 9.88533C21.6228 9.98416 21.7154 10.0761 21.9012 10.1618C21.9155 10.1687 21.9268 10.1737 21.9349 10.1774C22.0976 10.2525 22.2089 10.3257 22.2696 10.397C22.3302 10.4683 22.3602 10.5577 22.3602 10.6647C22.3602 10.8204 22.3115 10.9442 22.2133 11.0355C22.1151 11.1275 21.9825 11.1731 21.8155 11.1731C21.6754 11.1731 21.5609 11.1406 21.4715 11.0768C21.382 11.0124 21.3232 10.9211 21.2957 10.801Z" fill="white"/>
<path d="M22.9094 9.48567V10.4839C22.9094 10.6321 22.9438 10.7435 23.012 10.8179C23.0808 10.8923 23.1827 10.9298 23.3191 10.9298C23.4554 10.9298 23.5567 10.8929 23.6249 10.8179C23.6931 10.7428 23.7275 10.6321 23.7275 10.4839V9.48567H23.9946V10.5089C23.9946 10.7316 23.9383 10.8979 23.8263 11.008C23.7137 11.1187 23.5449 11.1738 23.3184 11.1738C23.092 11.1738 22.9238 11.1187 22.8118 11.0087C22.7005 10.8986 22.6442 10.7322 22.6442 10.5089V9.48567H22.9094Z" fill="white"/>
<path d="M24.3636 11.13V9.48567H24.6306V10.8904H25.228V11.1294H24.363L24.3636 11.13Z" fill="white"/>
<path d="M25.8503 9.71271V11.13H25.5832V9.71271H25.1466V9.48567H26.2856V9.71271H25.8503Z" fill="white"/>
<path d="M27.4708 9.37246H27.671V11.6723H27.4708V9.37246Z" fill="white"/>
<path d="M30.3467 9.88533C30.271 9.82091 30.191 9.77275 30.1071 9.74023C30.0233 9.7077 29.9345 9.69207 29.8413 9.69207C29.6618 9.69207 29.5155 9.74961 29.4029 9.86469C29.2903 9.97978 29.234 10.1293 29.234 10.3125C29.234 10.4958 29.289 10.6365 29.3985 10.7516C29.508 10.8667 29.6468 10.9242 29.8138 10.9242C29.9114 10.9242 30.0039 10.9067 30.0915 10.8723C30.1791 10.8379 30.2641 10.786 30.3448 10.7159V11.018C30.2729 11.0699 30.1947 11.1081 30.1103 11.1337C30.0258 11.1594 29.9339 11.1719 29.8351 11.1719C29.7094 11.1719 29.593 11.1513 29.4867 11.11C29.3797 11.0687 29.2859 11.008 29.2052 10.928C29.1252 10.8492 29.0633 10.7566 29.0207 10.6503C28.9782 10.5439 28.9563 10.4301 28.9563 10.3094C28.9563 10.1887 28.9776 10.0755 29.0207 9.96977C29.0639 9.86407 29.1258 9.77087 29.2077 9.69082C29.2897 9.61013 29.3829 9.54884 29.4886 9.50693C29.5943 9.46503 29.7081 9.44439 29.8313 9.44439C29.9276 9.44439 30.0196 9.45815 30.1078 9.48629C30.196 9.51444 30.2804 9.55697 30.363 9.61389L30.3486 9.88346L30.3467 9.88533Z" fill="white"/>
<path d="M30.9352 9.48567V10.4839C30.9352 10.6321 30.9696 10.7435 31.0378 10.8179C31.106 10.8923 31.2086 10.9298 31.3449 10.9298C31.4813 10.9298 31.5826 10.8929 31.6508 10.8179C31.7189 10.7435 31.7533 10.6321 31.7533 10.4839V9.48567H32.0204V10.5089C32.0204 10.7316 31.9641 10.8979 31.8522 11.008C31.7396 11.1187 31.5707 11.1738 31.3443 11.1738C31.1179 11.1738 30.9496 11.1187 30.8377 11.0087C30.7257 10.8986 30.67 10.7322 30.67 10.5089V9.48567H30.9352Z" fill="white"/>
<path d="M32.6402 10.3945V11.13H32.3901V9.48567H32.7628C32.8723 9.48567 32.9567 9.49255 33.0174 9.50693C33.0774 9.52132 33.1293 9.54446 33.1719 9.57761C33.2225 9.61764 33.2619 9.6683 33.2901 9.73147C33.3176 9.79464 33.3314 9.86344 33.3314 9.93787C33.3314 10.0698 33.2995 10.173 33.2357 10.2475C33.1719 10.3219 33.0781 10.3669 32.9536 10.3819L33.5196 11.13H33.2175L32.6703 10.3945H32.6402ZM32.6571 10.1868H32.7053C32.8466 10.1868 32.9405 10.1705 32.9874 10.1374C33.0343 10.1042 33.0568 10.0461 33.0568 9.96227C33.0568 9.87157 33.0318 9.80778 32.9824 9.77087C32.9323 9.73397 32.8404 9.71521 32.7053 9.71521H32.6571V10.1868Z" fill="white"/>
<path d="M34.7637 11.13L34.5773 10.7066H33.9262L33.7354 11.13H33.4546L34.2508 9.42062L35.0457 11.13H34.7637ZM34.025 10.4845H34.4835L34.3152 10.1092C34.3052 10.0855 34.2952 10.058 34.2846 10.0267C34.2739 9.99541 34.2633 9.96101 34.2533 9.92286C34.2445 9.95851 34.2345 9.99229 34.2245 10.0236C34.2145 10.0548 34.2039 10.083 34.1939 10.1092L34.025 10.4845Z" fill="white"/>
<path d="M35.6062 9.71271V11.13H35.3391V9.71271H34.9025V9.48567H36.0415V9.71271H35.6062Z" fill="white"/>
<path d="M36.2447 11.13V9.48567H37.1623V9.71271H36.5118V10.1249H37.1623V10.3594H36.5118V10.8904H37.1623V11.1294L36.2447 11.13Z" fill="white"/>
<path d="M38.4507 9.37246H38.6509V11.6723H38.4507V9.37246Z" fill="white"/>
<path d="M41.3266 9.88533C41.2509 9.82091 41.1708 9.77275 41.087 9.74023C41.0032 9.7077 40.9144 9.69207 40.8212 9.69207C40.6417 9.69207 40.4953 9.74961 40.3828 9.86469C40.2702 9.97978 40.2139 10.1293 40.2139 10.3125C40.2139 10.4958 40.2689 10.6365 40.3784 10.7516C40.4878 10.8667 40.6267 10.9242 40.7937 10.9242C40.8913 10.9242 40.9838 10.9067 41.0714 10.8723C41.159 10.8379 41.244 10.786 41.3247 10.7159V11.018C41.2528 11.0699 41.1746 11.1081 41.0902 11.1337C41.0057 11.1594 40.9138 11.1719 40.815 11.1719C40.6892 11.1719 40.5729 11.1513 40.4666 11.11C40.3596 11.0687 40.2658 11.008 40.1851 10.928C40.1051 10.8492 40.0431 10.7566 40.0006 10.6503C39.9581 10.5439 39.9362 10.4301 39.9362 10.3094C39.9362 10.1887 39.9575 10.0755 40.0006 9.96977C40.0438 9.86407 40.1057 9.77087 40.1876 9.69082C40.2696 9.61013 40.3628 9.54884 40.4685 9.50693C40.5742 9.46503 40.688 9.44439 40.8112 9.44439C40.9075 9.44439 40.9995 9.45815 41.0877 9.48629C41.1758 9.51444 41.2603 9.55697 41.3428 9.61389L41.3285 9.88346L41.3266 9.88533Z" fill="white"/>
<path d="M43.3437 10.3113C43.3437 10.4282 43.3218 10.5383 43.278 10.6428C43.2342 10.7466 43.1704 10.8398 43.0866 10.9211C43.0022 11.0024 42.9065 11.0649 42.8001 11.1087C42.6938 11.1519 42.5825 11.1738 42.4655 11.1738C42.3486 11.1738 42.2341 11.1519 42.1271 11.1081C42.0196 11.0643 41.9251 11.0018 41.8426 10.9211C41.7588 10.8392 41.695 10.7472 41.6518 10.6434C41.6086 10.5396 41.5867 10.4295 41.5867 10.3113C41.5867 10.1931 41.6086 10.083 41.6518 9.97853C41.6956 9.8747 41.7588 9.78151 41.8426 9.69895C41.9264 9.61764 42.0214 9.55509 42.1278 9.51256C42.2341 9.47003 42.3467 9.44876 42.4661 9.44876C42.5856 9.44876 42.6963 9.47003 42.8026 9.51256C42.9083 9.55509 43.0034 9.61764 43.0872 9.69895C43.171 9.78213 43.2348 9.87595 43.2786 9.9804C43.3224 10.0849 43.3437 10.1949 43.3437 10.3113ZM43.0653 10.3113C43.0653 10.2281 43.0503 10.1493 43.0197 10.0742C42.989 9.99917 42.9459 9.93287 42.8889 9.87407C42.8333 9.81653 42.7695 9.77213 42.6963 9.74085C42.6231 9.70958 42.5462 9.69394 42.4655 9.69394C42.3848 9.69394 42.3079 9.70958 42.2347 9.74023C42.1615 9.77087 42.0965 9.81528 42.0396 9.87407C41.9827 9.93162 41.9389 9.99792 41.9095 10.073C41.8795 10.148 41.8644 10.2275 41.8644 10.3113C41.8644 10.3951 41.8795 10.4726 41.9095 10.5471C41.9395 10.6215 41.9827 10.6872 42.0396 10.746C42.0965 10.8041 42.1609 10.8492 42.2335 10.8798C42.306 10.9105 42.383 10.9261 42.4649 10.9261C42.5468 10.9261 42.6213 10.9105 42.6932 10.8798C42.7657 10.8492 42.8302 10.8048 42.8883 10.746C42.9452 10.6878 42.989 10.6209 43.019 10.5464C43.0491 10.472 43.0653 10.3938 43.0653 10.3113Z" fill="white"/>
<path d="M44.9911 10.3181C44.988 10.3056 44.983 10.27 44.9767 10.2124C44.9705 10.1643 44.9655 10.1249 44.9611 10.0936C44.9542 10.1311 44.9448 10.1687 44.9323 10.2062C44.9198 10.2437 44.9042 10.2819 44.886 10.3207L44.4557 11.1963L44.0254 10.3025C44.0073 10.2656 43.9923 10.23 43.9791 10.1956C43.966 10.1612 43.9547 10.1268 43.9447 10.0936C43.9441 10.128 43.941 10.1643 43.9366 10.2018C43.9316 10.2393 43.9241 10.2794 43.9147 10.32L43.7383 11.13H43.4925L43.8809 9.41624L44.3663 10.4539C44.3738 10.4701 44.3851 10.4977 44.4007 10.5358C44.4163 10.574 44.4345 10.6209 44.4564 10.6772C44.472 10.6303 44.497 10.5702 44.5308 10.4977C44.5395 10.4783 44.5464 10.4633 44.5508 10.4526L45.0249 9.41624L45.4221 11.13H45.1738L44.9911 10.3181Z" fill="white"/>
<path d="M46.9751 10.3181C46.9719 10.3056 46.9669 10.27 46.9607 10.2124C46.9544 10.1643 46.9494 10.1249 46.945 10.0936C46.9382 10.1311 46.9288 10.1687 46.9163 10.2062C46.9038 10.2437 46.8888 10.2819 46.87 10.3207L46.4397 11.1963L46.01 10.3025C45.9918 10.2656 45.9762 10.23 45.9631 10.1956C45.9499 10.1612 45.9387 10.1268 45.9287 10.0936C45.9281 10.128 45.9256 10.1643 45.9205 10.2018C45.9155 10.2393 45.9087 10.2794 45.8987 10.32L45.7223 11.13H45.4765L45.8649 9.41624L46.3502 10.4539C46.3577 10.4701 46.369 10.4977 46.3846 10.5358C46.4003 10.574 46.4184 10.6209 46.4403 10.6772C46.4559 10.6303 46.481 10.5702 46.5147 10.4977C46.5235 10.4783 46.5304 10.4633 46.5347 10.4526L47.0088 9.41624L47.4066 11.13H47.1583L46.9763 10.3181H46.9751Z" fill="white"/>
<path d="M47.6118 9.48567H47.8757V10.4839C47.8757 10.6321 47.9101 10.7435 47.9783 10.8179C48.0471 10.8923 48.1491 10.9298 48.2854 10.9298C48.4218 10.9298 48.5231 10.8929 48.5912 10.8179C48.6594 10.7435 48.6938 10.6321 48.6938 10.4839V9.48567H48.9609V10.5089C48.9609 10.7316 48.9046 10.8979 48.7926 11.008C48.6801 11.1187 48.5112 11.1738 48.2848 11.1738C48.0584 11.1738 47.8895 11.1187 47.7782 11.0087C47.6668 10.8986 47.6112 10.7322 47.6112 10.5089L47.6118 9.48567Z" fill="white"/>
<path d="M49.3299 11.13V9.42062L50.3744 10.4257C50.4032 10.4545 50.4319 10.4845 50.4607 10.5164C50.4895 10.5483 50.5208 10.5852 50.5527 10.6252V9.48567H50.7997V11.1938L49.7339 10.1705C49.7058 10.143 49.6783 10.1136 49.6514 10.083C49.6245 10.0523 49.5995 10.0198 49.5757 9.98666V11.13H49.3299Z" fill="white"/>
<path d="M51.1819 11.13V9.48567H51.449V11.13H51.1819Z" fill="white"/>
<path d="M53.1527 9.88533C53.077 9.82091 52.997 9.77275 52.9131 9.74023C52.8293 9.7077 52.7405 9.69207 52.6473 9.69207C52.4678 9.69207 52.3215 9.74961 52.2089 9.86469C52.0963 9.97978 52.04 10.1293 52.04 10.3125C52.04 10.4958 52.0951 10.6365 52.2045 10.7516C52.314 10.8667 52.4522 10.9242 52.6192 10.9242C52.7168 10.9242 52.8093 10.9067 52.8975 10.8723C52.9851 10.8379 53.0701 10.786 53.1508 10.7159V11.018C53.0789 11.0699 53.0007 11.1081 52.9163 11.1337C52.8318 11.1594 52.7399 11.1719 52.6411 11.1719C52.5154 11.1719 52.399 11.1513 52.2921 11.11C52.1857 11.0687 52.0919 11.008 52.0106 10.928C51.9306 10.8492 51.8686 10.7566 51.8261 10.6503C51.783 10.5433 51.7617 10.4301 51.7617 10.3094C51.7617 10.1887 51.783 10.0755 51.8261 9.96977C51.8693 9.86407 51.9312 9.77087 52.0131 9.69082C52.0944 9.61013 52.1882 9.54884 52.2939 9.50693C52.3997 9.46503 52.5135 9.44439 52.6367 9.44439C52.7336 9.44439 52.8256 9.45815 52.9131 9.48629C53.0007 9.51444 53.0858 9.55697 53.1683 9.61389L53.1539 9.88346L53.1527 9.88533Z" fill="white"/>
<path d="M54.57 11.13L54.3836 10.7066H53.7318L53.5411 11.13H53.2603L54.0565 9.42062L54.8514 11.13H54.57ZM53.8313 10.4845H54.2891L54.1209 10.1092C54.1109 10.0855 54.1009 10.058 54.0909 10.0267C54.0802 9.99541 54.0696 9.96101 54.0596 9.92286C54.0508 9.95851 54.0408 9.99229 54.0308 10.0236C54.0208 10.0548 54.0102 10.083 54.0002 10.1092L53.8313 10.4845Z" fill="white"/>
<path d="M55.4125 9.71271V11.13H55.1454V9.71271H54.7088V9.48567H55.8478V9.71271H55.4125Z" fill="white"/>
<path d="M56.0517 11.13V9.48567H56.9692V9.71271H56.3188V10.1249H56.9692V10.3594H56.3188V10.8904H56.9692V11.1294L56.0517 11.13Z" fill="white"/>
<path d="M17.2991 1.10706H15.5328V7.52423H17.2991V1.10706Z" fill="white"/>
<path d="M23.3047 4.27562C23.3047 4.43636 23.3128 4.62024 23.3291 4.82789C23.3447 5.03554 23.371 5.27197 23.4054 5.53779C23.2765 5.25758 23.1589 5.01553 23.0526 4.81226C22.9457 4.60898 22.8694 4.47389 22.8224 4.40696L20.3982 1.10643H18.7107V7.52361H20.3982V4.35442C20.3982 4.19368 20.3901 4.0098 20.3744 3.80215C20.3582 3.59449 20.3325 3.35682 20.2975 3.08788C20.4232 3.36245 20.5389 3.60138 20.6459 3.80465C20.7522 4.00792 20.8304 4.14302 20.8804 4.20994L23.3047 7.52361H24.9834V1.10706H23.3047V4.27562Z" fill="white"/>
<path d="M29.3497 0.953195C28.8819 0.953195 28.4578 1.03075 28.0763 1.18524C27.6948 1.34035 27.352 1.57427 27.048 1.88638C26.7266 2.21349 26.4864 2.57813 26.3269 2.9803C26.1674 3.38184 26.088 3.82842 26.088 4.3194C26.088 4.93047 26.2137 5.47962 26.4651 5.96748C26.7165 6.45533 27.0818 6.86 27.5609 7.18149C27.8092 7.35098 28.0819 7.47733 28.3784 7.56051C28.6748 7.6437 28.9988 7.6856 29.3497 7.6856C29.6299 7.6856 29.9076 7.65183 30.1822 7.5849C30.4568 7.51798 30.7332 7.41666 31.0109 7.28218V5.36641C30.7714 5.63536 30.5325 5.83175 30.2942 5.95622C30.0559 6.08068 29.8013 6.1426 29.5292 6.1426C29.0382 6.1426 28.6342 5.9731 28.3171 5.63411C28 5.29511 27.8411 4.86855 27.8411 4.3538C27.8411 3.80152 27.9969 3.35369 28.3083 3.01032C28.6198 2.66694 29.0264 2.49494 29.5292 2.49494C29.8013 2.49494 30.0559 2.55686 30.2942 2.68133C30.5325 2.8058 30.7714 3.00031 31.0109 3.26676V1.35536C30.7332 1.22089 30.4568 1.12019 30.1822 1.05264C29.9076 0.985719 29.6299 0.951944 29.3497 0.951944V0.953195Z" fill="white"/>
<path d="M33.8073 1.10706H32.041V7.52423H33.8073V1.10706Z" fill="white"/>
<path d="M34.7061 2.62316H36.1441V7.52423H37.8928V2.62316H39.3308V1.10706H34.7061V2.62316Z" fill="white"/>
<path d="M40.1851 7.52423H44.1174V6.08631H41.8907V5.00365H43.9898V3.62702H41.8907V2.51371H44.1174V1.10706H40.1851V7.52423Z" fill="white"/>
<path d="M57.2644 6.82498L55.7946 5.67539V6.12572H53.1733L56.4038 1.10643H51.0036V2.4962H53.603L50.3638 7.52361L48.615 4.93735C49.0828 4.83478 49.4381 4.62838 49.6826 4.3169C49.9266 4.00542 50.0485 3.602 50.0485 3.10476C50.0485 2.77765 49.9866 2.47806 49.8621 2.20598C49.7377 1.93391 49.5601 1.71062 49.3299 1.53549C49.1254 1.38101 48.8821 1.2703 48.6 1.20463C48.3179 1.13896 47.8188 1.10581 47.1033 1.10581H45.2757V7.52299H46.915V5.01115L48.388 7.52299H55.7958V7.97331L57.2657 6.82373L57.2644 6.82498ZM48.064 3.94725C47.8901 4.0761 47.6149 4.13989 47.2377 4.13989H46.9131V2.45241H47.264C47.6468 2.45241 47.9195 2.52059 48.0815 2.65631C48.2435 2.79204 48.3248 3.02095 48.3248 3.34244C48.3248 3.61701 48.2378 3.81903 48.064 3.94725Z" fill="white"/>
<path d="M13.3833 5.46649L10.5356 0.533514C10.3449 0.203273 9.99275 0 9.61122 0H3.9152C3.53429 0 3.18154 0.203273 2.9914 0.533514L0.143073 5.46649C-0.047691 5.79673 -0.047691 6.20327 0.143073 6.53351L2.9914 11.4665C3.18154 11.7967 3.53429 12 3.9152 12H9.61122C9.99275 12 10.3449 11.7967 10.5356 11.4665L13.3833 6.53351C13.5741 6.20327 13.5741 5.79673 13.3833 5.46649ZM8.53356 8.30919C6.61529 10.6034 3.52116 10.1218 2.01944 9.00094C3.44673 9.83405 4.89091 9.9091 6.32883 9.37684C7.06187 9.10602 7.65417 8.63505 8.16079 8.05713C8.58548 7.57302 8.91321 7.02637 9.09647 6.39466C9.42359 5.26446 9.39732 4.11988 8.8907 2.96716C8.80564 2.7739 8.69368 2.59001 8.60737 2.42614C9.63874 3.76462 10.059 6.48473 8.53356 8.30919ZM11.0398 2.18284C11.0204 2.22975 10.9753 2.25977 10.9247 2.25977C10.9047 2.25977 10.8872 2.25665 10.869 2.25352L10.8559 2.25164C9.99463 2.12342 9.134 1.99458 8.27337 1.86574C8.26274 1.86386 8.25211 1.86011 8.23835 1.85573C8.22709 1.85198 8.21458 1.8476 8.19957 1.84322L8.0995 1.8132L8.09387 1.91765C8.09324 1.93516 8.09262 1.94955 8.09199 1.96268C8.09199 1.98144 8.09199 1.9952 8.08949 2.00897L8.05759 2.22037C7.94001 3.01282 7.82179 3.80527 7.70108 4.59773C7.69545 4.63651 7.67669 4.67904 7.65292 4.70968C7.63666 4.72907 7.60976 4.74033 7.57724 4.74033C7.55848 4.74033 7.53971 4.73658 7.52283 4.72907C7.47529 4.70781 7.4459 4.6609 7.44777 4.60961C7.44777 4.59398 7.4509 4.57834 7.4534 4.5627L7.87683 1.72751C7.89747 1.58803 7.94876 1.57677 8.01381 1.57677C8.03195 1.57677 8.05321 1.57865 8.07573 1.58178L8.5886 1.65808C9.35979 1.77379 10.1316 1.88888 10.9028 2.00584C10.9434 2.01209 10.9866 2.02961 11.0172 2.05337C11.0498 2.07777 11.0598 2.13468 11.0398 2.18284Z" fill="white"/>
<path d="M17.219 9.88533C17.1433 9.82091 17.0633 9.77275 16.9794 9.74023C16.8956 9.7077 16.8068 9.69207 16.7136 9.69207C16.5341 9.69207 16.3878 9.74961 16.2752 9.86469C16.1626 9.97978 16.1063 10.1293 16.1063 10.3125C16.1063 10.4958 16.1613 10.6365 16.2708 10.7516C16.3803 10.8667 16.5185 10.9242 16.6855 10.9242C16.7831 10.9242 16.8756 10.9067 16.9632 10.8723C17.0507 10.8379 17.1358 10.786 17.2165 10.7159V11.018C17.1446 11.0699 17.0664 11.1081 16.9819 11.1337C16.8975 11.1594 16.8056 11.1719 16.7067 11.1719C16.581 11.1719 16.4647 11.1513 16.3584 11.11C16.2514 11.0687 16.1576 11.008 16.0769 10.928C15.9969 10.8492 15.9349 10.7566 15.8924 10.6503C15.8499 10.5439 15.828 10.4301 15.828 10.3094C15.828 10.1887 15.8492 10.0755 15.8924 9.96977C15.9356 9.86407 15.9975 9.77087 16.0794 9.69082C16.1607 9.61013 16.2545 9.54884 16.3602 9.50693C16.4659 9.46565 16.5798 9.44439 16.703 9.44439C16.7993 9.44439 16.8919 9.45815 16.9794 9.48629C17.067 9.51444 17.1521 9.55697 17.2346 9.61389L17.2202 9.88346L17.219 9.88533Z" fill="white"/>
<path d="M19.2361 10.3113C19.2361 10.4282 19.2142 10.5383 19.1704 10.6428C19.1266 10.7466 19.0628 10.8398 18.979 10.9211C18.8946 11.0024 18.7989 11.0649 18.6926 11.1087C18.5862 11.1519 18.4749 11.1738 18.358 11.1738C18.241 11.1738 18.1265 11.1519 18.0196 11.1081C17.912 11.0643 17.8169 11.0018 17.735 10.9211C17.6512 10.8392 17.5874 10.7472 17.5442 10.6434C17.5011 10.5396 17.4792 10.4295 17.4792 10.3113C17.4792 10.1931 17.5011 10.083 17.5442 9.97853C17.5874 9.8747 17.6512 9.78151 17.735 9.69895C17.8188 9.61764 17.9139 9.55509 18.0202 9.51256C18.1265 9.47003 18.2391 9.44876 18.358 9.44876C18.4768 9.44876 18.5881 9.47003 18.6944 9.51256C18.8001 9.55509 18.8952 9.61764 18.979 9.69895C19.0628 9.78213 19.1266 9.87595 19.1704 9.9804C19.2142 10.0849 19.2361 10.1949 19.2361 10.3113ZM18.9578 10.3113C18.9578 10.2281 18.9428 10.1493 18.9121 10.0742C18.8821 9.99917 18.8383 9.93287 18.7814 9.87407C18.7257 9.81653 18.6619 9.77213 18.5887 9.74085C18.5156 9.70958 18.4386 9.69394 18.358 9.69394C18.2773 9.69394 18.2003 9.70958 18.1272 9.74023C18.054 9.77087 17.9889 9.81528 17.932 9.87407C17.8751 9.93162 17.8319 9.99792 17.8019 10.073C17.7719 10.148 17.7569 10.2275 17.7569 10.3113C17.7569 10.3951 17.7719 10.4726 17.8019 10.5471C17.8319 10.6215 17.8751 10.6872 17.932 10.746C17.9889 10.8048 18.054 10.8492 18.1265 10.8798C18.1991 10.9105 18.276 10.9261 18.358 10.9261C18.4399 10.9261 18.5143 10.9105 18.5862 10.8798C18.6582 10.8492 18.7232 10.8048 18.7814 10.746C18.8383 10.6878 18.8821 10.6209 18.9121 10.5464C18.9421 10.472 18.9578 10.3938 18.9578 10.3113Z" fill="white"/>
<path d="M19.5426 11.13V9.42062L20.5871 10.4257C20.6158 10.4545 20.6446 10.4845 20.6734 10.5164C20.7022 10.5483 20.7334 10.5852 20.7653 10.6252V9.48567H21.0124V11.1938L19.9466 10.1705C19.9178 10.143 19.8909 10.1136 19.864 10.083C19.8378 10.0523 19.8121 10.0198 19.7884 9.98666V11.13H19.5426Z" fill="white"/>
<path d="M21.2957 10.801L21.509 10.7022C21.529 10.7754 21.5665 10.8316 21.6203 10.8698C21.6741 10.9086 21.7429 10.9273 21.8267 10.9273C21.9062 10.9273 21.9693 10.9055 22.0162 10.861C22.0632 10.8166 22.0863 10.7578 22.0863 10.6834C22.0863 10.5871 22.0062 10.5008 21.8461 10.4251C21.8236 10.4138 21.8067 10.4057 21.7942 10.4001C21.6128 10.3119 21.4921 10.2318 21.4321 10.1605C21.372 10.0892 21.3414 10.0017 21.3414 9.89847C21.3414 9.76462 21.387 9.65579 21.4777 9.57261C21.5684 9.48942 21.6879 9.44814 21.8355 9.44814C21.9568 9.44814 22.0581 9.47128 22.1401 9.51819C22.2214 9.5651 22.2783 9.63202 22.3096 9.71959L22.1007 9.82717C22.0675 9.77525 22.0319 9.73773 21.9925 9.71396C21.9531 9.69019 21.908 9.67831 21.8574 9.67831C21.7854 9.67831 21.7285 9.69707 21.686 9.7346C21.6435 9.77213 21.6228 9.82216 21.6228 9.88533C21.6228 9.98416 21.7154 10.0761 21.9012 10.1618C21.9155 10.1687 21.9268 10.1737 21.9349 10.1774C22.0976 10.2525 22.2089 10.3257 22.2696 10.397C22.3302 10.4683 22.3602 10.5577 22.3602 10.6647C22.3602 10.8204 22.3115 10.9442 22.2133 11.0355C22.1151 11.1275 21.9825 11.1731 21.8155 11.1731C21.6754 11.1731 21.5609 11.1406 21.4715 11.0768C21.382 11.0124 21.3232 10.9211 21.2957 10.801Z" fill="white"/>
<path d="M22.9094 9.48567V10.4839C22.9094 10.6321 22.9438 10.7435 23.012 10.8179C23.0808 10.8923 23.1827 10.9298 23.3191 10.9298C23.4554 10.9298 23.5567 10.8929 23.6249 10.8179C23.6931 10.7428 23.7275 10.6321 23.7275 10.4839V9.48567H23.9946V10.5089C23.9946 10.7316 23.9383 10.8979 23.8263 11.008C23.7137 11.1187 23.5449 11.1738 23.3184 11.1738C23.092 11.1738 22.9238 11.1187 22.8118 11.0087C22.7005 10.8986 22.6442 10.7322 22.6442 10.5089V9.48567H22.9094Z" fill="white"/>
<path d="M24.3636 11.13V9.48567H24.6306V10.8904H25.228V11.1294H24.363L24.3636 11.13Z" fill="white"/>
<path d="M25.8503 9.71271V11.13H25.5832V9.71271H25.1466V9.48567H26.2856V9.71271H25.8503Z" fill="white"/>
<path d="M27.4708 9.37246H27.671V11.6723H27.4708V9.37246Z" fill="white"/>
<path d="M30.3467 9.88533C30.271 9.82091 30.191 9.77275 30.1071 9.74023C30.0233 9.7077 29.9345 9.69207 29.8413 9.69207C29.6618 9.69207 29.5155 9.74961 29.4029 9.86469C29.2903 9.97978 29.234 10.1293 29.234 10.3125C29.234 10.4958 29.289 10.6365 29.3985 10.7516C29.508 10.8667 29.6468 10.9242 29.8138 10.9242C29.9114 10.9242 30.0039 10.9067 30.0915 10.8723C30.1791 10.8379 30.2641 10.786 30.3448 10.7159V11.018C30.2729 11.0699 30.1947 11.1081 30.1103 11.1337C30.0258 11.1594 29.9339 11.1719 29.8351 11.1719C29.7094 11.1719 29.593 11.1513 29.4867 11.11C29.3797 11.0687 29.2859 11.008 29.2052 10.928C29.1252 10.8492 29.0633 10.7566 29.0207 10.6503C28.9782 10.5439 28.9563 10.4301 28.9563 10.3094C28.9563 10.1887 28.9776 10.0755 29.0207 9.96977C29.0639 9.86407 29.1258 9.77087 29.2077 9.69082C29.2897 9.61013 29.3829 9.54884 29.4886 9.50693C29.5943 9.46503 29.7081 9.44439 29.8313 9.44439C29.9276 9.44439 30.0196 9.45815 30.1078 9.48629C30.196 9.51444 30.2804 9.55697 30.363 9.61389L30.3486 9.88346L30.3467 9.88533Z" fill="white"/>
<path d="M30.9352 9.48567V10.4839C30.9352 10.6321 30.9696 10.7435 31.0378 10.8179C31.106 10.8923 31.2086 10.9298 31.3449 10.9298C31.4813 10.9298 31.5826 10.8929 31.6508 10.8179C31.7189 10.7435 31.7533 10.6321 31.7533 10.4839V9.48567H32.0204V10.5089C32.0204 10.7316 31.9641 10.8979 31.8522 11.008C31.7396 11.1187 31.5707 11.1738 31.3443 11.1738C31.1179 11.1738 30.9496 11.1187 30.8377 11.0087C30.7257 10.8986 30.67 10.7322 30.67 10.5089V9.48567H30.9352Z" fill="white"/>
<path d="M32.6402 10.3945V11.13H32.3901V9.48567H32.7628C32.8723 9.48567 32.9567 9.49255 33.0174 9.50693C33.0774 9.52132 33.1293 9.54446 33.1719 9.57761C33.2225 9.61764 33.2619 9.6683 33.2901 9.73147C33.3176 9.79464 33.3314 9.86344 33.3314 9.93787C33.3314 10.0698 33.2995 10.173 33.2357 10.2475C33.1719 10.3219 33.0781 10.3669 32.9536 10.3819L33.5196 11.13H33.2175L32.6703 10.3945H32.6402ZM32.6571 10.1868H32.7053C32.8466 10.1868 32.9405 10.1705 32.9874 10.1374C33.0343 10.1042 33.0568 10.0461 33.0568 9.96227C33.0568 9.87157 33.0318 9.80778 32.9824 9.77087C32.9323 9.73397 32.8404 9.71521 32.7053 9.71521H32.6571V10.1868Z" fill="white"/>
<path d="M34.7637 11.13L34.5773 10.7066H33.9262L33.7354 11.13H33.4546L34.2508 9.42062L35.0457 11.13H34.7637ZM34.025 10.4845H34.4835L34.3152 10.1092C34.3052 10.0855 34.2952 10.058 34.2846 10.0267C34.2739 9.99541 34.2633 9.96101 34.2533 9.92286C34.2445 9.95851 34.2345 9.99229 34.2245 10.0236C34.2145 10.0548 34.2039 10.083 34.1939 10.1092L34.025 10.4845Z" fill="white"/>
<path d="M35.6062 9.71271V11.13H35.3391V9.71271H34.9025V9.48567H36.0415V9.71271H35.6062Z" fill="white"/>
<path d="M36.2447 11.13V9.48567H37.1623V9.71271H36.5118V10.1249H37.1623V10.3594H36.5118V10.8904H37.1623V11.1294L36.2447 11.13Z" fill="white"/>
<path d="M38.4507 9.37246H38.6509V11.6723H38.4507V9.37246Z" fill="white"/>
<path d="M41.3266 9.88533C41.2509 9.82091 41.1708 9.77275 41.087 9.74023C41.0032 9.7077 40.9144 9.69207 40.8212 9.69207C40.6417 9.69207 40.4953 9.74961 40.3828 9.86469C40.2702 9.97978 40.2139 10.1293 40.2139 10.3125C40.2139 10.4958 40.2689 10.6365 40.3784 10.7516C40.4878 10.8667 40.6267 10.9242 40.7937 10.9242C40.8913 10.9242 40.9838 10.9067 41.0714 10.8723C41.159 10.8379 41.244 10.786 41.3247 10.7159V11.018C41.2528 11.0699 41.1746 11.1081 41.0902 11.1337C41.0057 11.1594 40.9138 11.1719 40.815 11.1719C40.6892 11.1719 40.5729 11.1513 40.4666 11.11C40.3596 11.0687 40.2658 11.008 40.1851 10.928C40.1051 10.8492 40.0431 10.7566 40.0006 10.6503C39.9581 10.5439 39.9362 10.4301 39.9362 10.3094C39.9362 10.1887 39.9575 10.0755 40.0006 9.96977C40.0438 9.86407 40.1057 9.77087 40.1876 9.69082C40.2696 9.61013 40.3628 9.54884 40.4685 9.50693C40.5742 9.46503 40.688 9.44439 40.8112 9.44439C40.9075 9.44439 40.9995 9.45815 41.0877 9.48629C41.1758 9.51444 41.2603 9.55697 41.3428 9.61389L41.3285 9.88346L41.3266 9.88533Z" fill="white"/>
<path d="M43.3437 10.3113C43.3437 10.4282 43.3218 10.5383 43.278 10.6428C43.2342 10.7466 43.1704 10.8398 43.0866 10.9211C43.0022 11.0024 42.9065 11.0649 42.8001 11.1087C42.6938 11.1519 42.5825 11.1738 42.4655 11.1738C42.3486 11.1738 42.2341 11.1519 42.1271 11.1081C42.0196 11.0643 41.9251 11.0018 41.8426 10.9211C41.7588 10.8392 41.695 10.7472 41.6518 10.6434C41.6086 10.5396 41.5867 10.4295 41.5867 10.3113C41.5867 10.1931 41.6086 10.083 41.6518 9.97853C41.6956 9.8747 41.7588 9.78151 41.8426 9.69895C41.9264 9.61764 42.0214 9.55509 42.1278 9.51256C42.2341 9.47003 42.3467 9.44876 42.4661 9.44876C42.5856 9.44876 42.6963 9.47003 42.8026 9.51256C42.9083 9.55509 43.0034 9.61764 43.0872 9.69895C43.171 9.78213 43.2348 9.87595 43.2786 9.9804C43.3224 10.0849 43.3437 10.1949 43.3437 10.3113ZM43.0653 10.3113C43.0653 10.2281 43.0503 10.1493 43.0197 10.0742C42.989 9.99917 42.9459 9.93287 42.8889 9.87407C42.8333 9.81653 42.7695 9.77213 42.6963 9.74085C42.6231 9.70958 42.5462 9.69394 42.4655 9.69394C42.3848 9.69394 42.3079 9.70958 42.2347 9.74023C42.1615 9.77087 42.0965 9.81528 42.0396 9.87407C41.9827 9.93162 41.9389 9.99792 41.9095 10.073C41.8795 10.148 41.8644 10.2275 41.8644 10.3113C41.8644 10.3951 41.8795 10.4726 41.9095 10.5471C41.9395 10.6215 41.9827 10.6872 42.0396 10.746C42.0965 10.8041 42.1609 10.8492 42.2335 10.8798C42.306 10.9105 42.383 10.9261 42.4649 10.9261C42.5468 10.9261 42.6213 10.9105 42.6932 10.8798C42.7657 10.8492 42.8302 10.8048 42.8883 10.746C42.9452 10.6878 42.989 10.6209 43.019 10.5464C43.0491 10.472 43.0653 10.3938 43.0653 10.3113Z" fill="white"/>
<path d="M44.9911 10.3181C44.988 10.3056 44.983 10.27 44.9767 10.2124C44.9705 10.1643 44.9655 10.1249 44.9611 10.0936C44.9542 10.1311 44.9448 10.1687 44.9323 10.2062C44.9198 10.2437 44.9042 10.2819 44.886 10.3207L44.4557 11.1963L44.0254 10.3025C44.0073 10.2656 43.9923 10.23 43.9791 10.1956C43.966 10.1612 43.9547 10.1268 43.9447 10.0936C43.9441 10.128 43.941 10.1643 43.9366 10.2018C43.9316 10.2393 43.9241 10.2794 43.9147 10.32L43.7383 11.13H43.4925L43.8809 9.41624L44.3663 10.4539C44.3738 10.4701 44.3851 10.4977 44.4007 10.5358C44.4163 10.574 44.4345 10.6209 44.4564 10.6772C44.472 10.6303 44.497 10.5702 44.5308 10.4977C44.5395 10.4783 44.5464 10.4633 44.5508 10.4526L45.0249 9.41624L45.4221 11.13H45.1738L44.9911 10.3181Z" fill="white"/>
<path d="M46.9751 10.3181C46.9719 10.3056 46.9669 10.27 46.9607 10.2124C46.9544 10.1643 46.9494 10.1249 46.945 10.0936C46.9382 10.1311 46.9288 10.1687 46.9163 10.2062C46.9038 10.2437 46.8888 10.2819 46.87 10.3207L46.4397 11.1963L46.01 10.3025C45.9918 10.2656 45.9762 10.23 45.9631 10.1956C45.9499 10.1612 45.9387 10.1268 45.9287 10.0936C45.9281 10.128 45.9256 10.1643 45.9205 10.2018C45.9155 10.2393 45.9087 10.2794 45.8987 10.32L45.7223 11.13H45.4765L45.8649 9.41624L46.3502 10.4539C46.3577 10.4701 46.369 10.4977 46.3846 10.5358C46.4003 10.574 46.4184 10.6209 46.4403 10.6772C46.4559 10.6303 46.481 10.5702 46.5147 10.4977C46.5235 10.4783 46.5304 10.4633 46.5347 10.4526L47.0088 9.41624L47.4066 11.13H47.1583L46.9763 10.3181H46.9751Z" fill="white"/>
<path d="M47.6118 9.48567H47.8757V10.4839C47.8757 10.6321 47.9101 10.7435 47.9783 10.8179C48.0471 10.8923 48.1491 10.9298 48.2854 10.9298C48.4218 10.9298 48.5231 10.8929 48.5912 10.8179C48.6594 10.7435 48.6938 10.6321 48.6938 10.4839V9.48567H48.9609V10.5089C48.9609 10.7316 48.9046 10.8979 48.7926 11.008C48.6801 11.1187 48.5112 11.1738 48.2848 11.1738C48.0584 11.1738 47.8895 11.1187 47.7782 11.0087C47.6668 10.8986 47.6112 10.7322 47.6112 10.5089L47.6118 9.48567Z" fill="white"/>
<path d="M49.3299 11.13V9.42062L50.3744 10.4257C50.4032 10.4545 50.4319 10.4845 50.4607 10.5164C50.4895 10.5483 50.5208 10.5852 50.5527 10.6252V9.48567H50.7997V11.1938L49.7339 10.1705C49.7058 10.143 49.6783 10.1136 49.6514 10.083C49.6245 10.0523 49.5995 10.0198 49.5757 9.98666V11.13H49.3299Z" fill="white"/>
<path d="M51.1819 11.13V9.48567H51.449V11.13H51.1819Z" fill="white"/>
<path d="M53.1527 9.88533C53.077 9.82091 52.997 9.77275 52.9131 9.74023C52.8293 9.7077 52.7405 9.69207 52.6473 9.69207C52.4678 9.69207 52.3215 9.74961 52.2089 9.86469C52.0963 9.97978 52.04 10.1293 52.04 10.3125C52.04 10.4958 52.0951 10.6365 52.2045 10.7516C52.314 10.8667 52.4522 10.9242 52.6192 10.9242C52.7168 10.9242 52.8093 10.9067 52.8975 10.8723C52.9851 10.8379 53.0701 10.786 53.1508 10.7159V11.018C53.0789 11.0699 53.0007 11.1081 52.9163 11.1337C52.8318 11.1594 52.7399 11.1719 52.6411 11.1719C52.5154 11.1719 52.399 11.1513 52.2921 11.11C52.1857 11.0687 52.0919 11.008 52.0106 10.928C51.9306 10.8492 51.8686 10.7566 51.8261 10.6503C51.783 10.5433 51.7617 10.4301 51.7617 10.3094C51.7617 10.1887 51.783 10.0755 51.8261 9.96977C51.8693 9.86407 51.9312 9.77087 52.0131 9.69082C52.0944 9.61013 52.1882 9.54884 52.2939 9.50693C52.3997 9.46503 52.5135 9.44439 52.6367 9.44439C52.7336 9.44439 52.8256 9.45815 52.9131 9.48629C53.0007 9.51444 53.0858 9.55697 53.1683 9.61389L53.1539 9.88346L53.1527 9.88533Z" fill="white"/>
<path d="M54.57 11.13L54.3836 10.7066H53.7318L53.5411 11.13H53.2603L54.0565 9.42062L54.8514 11.13H54.57ZM53.8313 10.4845H54.2891L54.1209 10.1092C54.1109 10.0855 54.1009 10.058 54.0909 10.0267C54.0802 9.99541 54.0696 9.96101 54.0596 9.92286C54.0508 9.95851 54.0408 9.99229 54.0308 10.0236C54.0208 10.0548 54.0102 10.083 54.0002 10.1092L53.8313 10.4845Z" fill="white"/>
<path d="M55.4125 9.71271V11.13H55.1454V9.71271H54.7088V9.48567H55.8478V9.71271H55.4125Z" fill="white"/>
<path d="M56.0517 11.13V9.48567H56.9692V9.71271H56.3188V10.1249H56.9692V10.3594H56.3188V10.8904H56.9692V11.1294L56.0517 11.13Z" fill="white"/>
<path d="M17.2991 1.10706H15.5328V7.52423H17.2991V1.10706Z" fill="white"/>
<path d="M23.3047 4.27562C23.3047 4.43636 23.3128 4.62024 23.3291 4.82789C23.3447 5.03554 23.371 5.27197 23.4054 5.53779C23.2765 5.25758 23.1589 5.01553 23.0526 4.81226C22.9457 4.60898 22.8694 4.47389 22.8224 4.40696L20.3982 1.10643H18.7107V7.52361H20.3982V4.35442C20.3982 4.19368 20.3901 4.0098 20.3744 3.80215C20.3582 3.59449 20.3325 3.35682 20.2975 3.08788C20.4232 3.36245 20.5389 3.60138 20.6459 3.80465C20.7522 4.00792 20.8304 4.14302 20.8804 4.20994L23.3047 7.52361H24.9834V1.10706H23.3047V4.27562Z" fill="white"/>
<path d="M29.3497 0.953195C28.8819 0.953195 28.4578 1.03075 28.0763 1.18524C27.6948 1.34035 27.352 1.57427 27.048 1.88638C26.7266 2.21349 26.4864 2.57813 26.3269 2.9803C26.1674 3.38184 26.088 3.82842 26.088 4.3194C26.088 4.93047 26.2137 5.47962 26.4651 5.96748C26.7165 6.45533 27.0818 6.86 27.5609 7.18149C27.8092 7.35098 28.0819 7.47733 28.3784 7.56051C28.6748 7.6437 28.9988 7.6856 29.3497 7.6856C29.6299 7.6856 29.9076 7.65183 30.1822 7.5849C30.4568 7.51798 30.7332 7.41666 31.0109 7.28218V5.36641C30.7714 5.63536 30.5325 5.83175 30.2942 5.95622C30.0559 6.08068 29.8013 6.1426 29.5292 6.1426C29.0382 6.1426 28.6342 5.9731 28.3171 5.63411C28 5.29511 27.8411 4.86855 27.8411 4.3538C27.8411 3.80152 27.9969 3.35369 28.3083 3.01032C28.6198 2.66694 29.0264 2.49494 29.5292 2.49494C29.8013 2.49494 30.0559 2.55686 30.2942 2.68133C30.5325 2.8058 30.7714 3.00031 31.0109 3.26676V1.35536C30.7332 1.22089 30.4568 1.12019 30.1822 1.05264C29.9076 0.985719 29.6299 0.951944 29.3497 0.951944V0.953195Z" fill="white"/>
<path d="M33.8073 1.10706H32.041V7.52423H33.8073V1.10706Z" fill="white"/>
<path d="M34.7061 2.62316H36.1441V7.52423H37.8928V2.62316H39.3308V1.10706H34.7061V2.62316Z" fill="white"/>
<path d="M40.1851 7.52423H44.1174V6.08631H41.8907V5.00365H43.9898V3.62702H41.8907V2.51371H44.1174V1.10706H40.1851V7.52423Z" fill="white"/>
<path d="M57.2644 6.82498L55.7946 5.67539V6.12572H53.1733L56.4038 1.10643H51.0036V2.4962H53.603L50.3638 7.52361L48.615 4.93735C49.0828 4.83478 49.4381 4.62838 49.6826 4.3169C49.9266 4.00542 50.0485 3.602 50.0485 3.10476C50.0485 2.77765 49.9866 2.47806 49.8621 2.20598C49.7377 1.93391 49.5601 1.71062 49.3299 1.53549C49.1254 1.38101 48.8821 1.2703 48.6 1.20463C48.3179 1.13896 47.8188 1.10581 47.1033 1.10581H45.2757V7.52299H46.915V5.01115L48.388 7.52299H55.7958V7.97331L57.2657 6.82373L57.2644 6.82498ZM48.064 3.94725C47.8901 4.0761 47.6149 4.13989 47.2377 4.13989H46.9131V2.45241H47.264C47.6468 2.45241 47.9195 2.52059 48.0815 2.65631C48.2435 2.79204 48.3248 3.02095 48.3248 3.34244C48.3248 3.61701 48.2378 3.81903 48.064 3.94725Z" fill="white"/>
</svg>
