<svg width="72" height="17" viewBox="0 0 72 17" fill="none" xmlns="http://www.w3.org/2000/svg">
<path d="M32.9847 5.84894L34.9397 1.24194H35.7472L32.9847 7.48944L30.2222 1.24194H31.0297L32.9847 5.84894Z" fill="white"/>
<path d="M39.7044 7.19194L38.9479 5.40694H36.5509L35.7944 7.19194H34.9869L37.7494 0.944444L40.5119 7.19194H39.7044ZM37.7494 2.58494L36.8399 4.72694H38.6589L37.7494 2.58494Z" fill="white"/>
<path d="M41.2357 1.24194H41.9582V6.51194H44.2957V7.19194H41.2357V1.24194Z" fill="white"/>
<path d="M45.0199 1.24194H45.7424V5.23694C45.7424 5.64494 45.8529 5.97361 46.0739 6.22294C46.2949 6.47228 46.6179 6.59694 47.0429 6.59694C47.4679 6.59694 47.7909 6.47228 48.0119 6.22294C48.2329 5.97361 48.3434 5.64494 48.3434 5.23694V1.24194H49.0659V5.23694C49.0659 5.62794 48.9809 5.97928 48.8109 6.29094C48.6465 6.59694 48.4142 6.83778 48.1139 7.01344C47.8135 7.18911 47.4565 7.27694 47.0429 7.27694C46.6349 7.27694 46.2779 7.18911 45.9719 7.01344C45.6715 6.83778 45.4364 6.59694 45.2664 6.29094C45.102 5.97928 45.0199 5.62794 45.0199 5.23694V1.24194Z" fill="white"/>
<path d="M50.3832 1.24194H53.7832V1.92194H51.1057V3.62194H53.6132V4.30194H51.1057V6.51194H53.7832V7.19194H50.3832V1.24194Z" fill="white"/>
<path d="M31.2847 13.6614C31.2847 14.1204 31.3867 14.5256 31.5907 14.8769C31.8004 15.2282 32.0724 15.5031 32.4067 15.7014C32.7411 15.8997 33.1037 15.9989 33.4947 15.9989C33.9141 15.9989 34.2852 15.9167 34.6082 15.7524C34.9312 15.5881 35.1976 15.3756 35.4072 15.1149V16.0669C35.1579 16.2879 34.8859 16.4522 34.5912 16.5599C34.2966 16.6676 33.9311 16.7214 33.4947 16.7214C33.0811 16.7214 32.6929 16.6477 32.3302 16.5004C31.9732 16.3474 31.6587 16.1349 31.3867 15.8629C31.1147 15.5852 30.9022 15.2594 30.7492 14.8854C30.5962 14.5114 30.5197 14.1034 30.5197 13.6614C30.5197 13.2194 30.5962 12.8114 30.7492 12.4374C30.9022 12.0634 31.1147 11.7404 31.3867 11.4684C31.6587 11.1907 31.9732 10.9782 32.3302 10.8309C32.6929 10.6779 33.0811 10.6014 33.4947 10.6014C33.9311 10.6014 34.2966 10.6552 34.5912 10.7629C34.8859 10.8706 35.1579 11.0349 35.4072 11.2559V12.2079C35.1976 11.9416 34.9312 11.7291 34.6082 11.5704C34.2852 11.4061 33.9141 11.3239 33.4947 11.3239C33.1037 11.3239 32.7411 11.4231 32.4067 11.6214C32.0724 11.8197 31.8004 12.0946 31.5907 12.4459C31.3867 12.7916 31.2847 13.1967 31.2847 13.6614Z" fill="white"/>
<path d="M36.6786 10.6864H38.2936C38.6789 10.6864 39.0217 10.7601 39.3221 10.9074C39.6281 11.0491 39.8689 11.2531 40.0446 11.5194C40.2259 11.7857 40.3166 12.1031 40.3166 12.4714C40.3166 12.9191 40.1834 13.2931 39.9171 13.5934C39.6564 13.8881 39.3164 14.0864 38.8971 14.1884L40.6736 16.6364H39.7811L38.1236 14.2564H37.4011V16.6364H36.6786V10.6864ZM38.2936 11.3239H37.4011V13.6189H38.2936C38.6789 13.6189 38.9906 13.5197 39.2286 13.3214C39.4722 13.1174 39.5941 12.8341 39.5941 12.4714C39.5941 12.1031 39.4722 11.8197 39.2286 11.6214C38.9906 11.4231 38.6789 11.3239 38.2936 11.3239Z" fill="white"/>
<path d="M41.4349 10.6864H44.8349V11.3664H42.1574V13.0664H44.6649V13.7464H42.1574V15.9564H44.8349V16.6364H41.4349V10.6864Z" fill="white"/>
<path d="M50.1883 16.6364L49.4318 14.8514H47.0348L46.2783 16.6364H45.4708L48.2333 10.3889L50.9958 16.6364H50.1883ZM48.2333 12.0294L47.3238 14.1714H49.1428L48.2333 12.0294Z" fill="white"/>
<path d="M50.5269 11.3664V10.6864H54.3094V11.3664H52.7794V16.6364H52.0569V11.3664H50.5269Z" fill="white"/>
<path d="M55.0731 10.6864H55.7956V16.6364H55.0731V10.6864Z" fill="white"/>
<path d="M59.2816 15.2934L61.2366 10.6864H62.0441L59.2816 16.9339L56.5191 10.6864H57.3266L59.2816 15.2934Z" fill="white"/>
<path d="M62.7679 10.6864H66.1679V11.3664H63.4904V13.0664H65.9979V13.7464H63.4904V15.9564H66.1679V16.6364H62.7679V10.6864Z" fill="white"/>
<path d="M67.6623 14.8344C67.8606 15.1971 68.0816 15.4889 68.3253 15.7099C68.5746 15.9309 68.8778 16.0414 69.2348 16.0414C69.5521 16.0414 69.8071 15.9536 69.9998 15.7779C70.1924 15.6022 70.2888 15.3784 70.2888 15.1064C70.2888 14.8401 70.2264 14.6276 70.1018 14.4689C69.9771 14.3102 69.8128 14.1827 69.6088 14.0864C69.4104 13.9844 69.1979 13.8937 68.9713 13.8144C68.8239 13.7634 68.6596 13.6982 68.4783 13.6189C68.2969 13.5339 68.1241 13.4291 67.9598 13.3044C67.7954 13.1741 67.6594 13.0154 67.5518 12.8284C67.4498 12.6414 67.3988 12.4119 67.3988 12.1399C67.3988 11.8452 67.4724 11.5817 67.6198 11.3494C67.7671 11.1171 67.9711 10.9357 68.2318 10.8054C68.4924 10.6694 68.7899 10.6014 69.1243 10.6014C69.4473 10.6014 69.7278 10.6637 69.9658 10.7884C70.2094 10.9074 70.4163 11.0632 70.5863 11.2559C70.7563 11.4429 70.8894 11.6412 70.9858 11.8509L70.3653 12.2079C70.2916 12.0606 70.1981 11.9161 70.0848 11.7744C69.9714 11.6327 69.8326 11.5166 69.6683 11.4259C69.5096 11.3352 69.3141 11.2899 69.0818 11.2899C68.7588 11.2899 68.5236 11.3692 68.3763 11.5279C68.2289 11.6809 68.1553 11.8537 68.1553 12.0464C68.1553 12.2957 68.2544 12.5139 68.4528 12.7009C68.6511 12.8879 69.0109 13.0721 69.5323 13.2534C69.6909 13.3101 69.8581 13.3837 70.0338 13.4744C70.2094 13.5651 70.3709 13.6812 70.5183 13.8229C70.6713 13.9589 70.7959 14.1261 70.8923 14.3244C70.9886 14.5171 71.0368 14.7494 71.0368 15.0214C71.0368 15.3671 70.9489 15.6674 70.7733 15.9224C70.6033 16.1774 70.3794 16.3757 70.1018 16.5174C69.8241 16.6534 69.5266 16.7214 69.2093 16.7214C68.8863 16.7214 68.5859 16.6534 68.3083 16.5174C68.0363 16.3757 67.7954 16.1916 67.5858 15.9649C67.3818 15.7326 67.2146 15.4861 67.0843 15.2254L67.6623 14.8344Z" fill="white"/>
<path fill-rule="evenodd" clip-rule="evenodd" d="M13.1573 4.36089L0 9.66794V11.693L13.1573 17V13.9205L5.12435 10.6804L13.1573 7.44036V4.36089Z" fill="white"/>
<path fill-rule="evenodd" clip-rule="evenodd" d="M13.2871 0L26.4444 5.30705V7.33206L13.2871 12.6391V9.55964L21.3201 6.31956L13.2871 3.07947V0Z" fill="white"/>
</svg>
