<svg width="70" height="36" viewBox="0 0 70 36" fill="none" xmlns="http://www.w3.org/2000/svg">
<path d="M17.3402 15.6896C15.5015 13.9457 13.11 12.8901 10.4931 12.8901C4.69795 12.8901 0 18.0631 0 24.4451C0 30.827 4.69795 36 10.4931 36C12.5926 36 14.5489 35.3202 16.1891 34.1499L15.9934 34.0008L19.3248 29.5306H24.8365V13.6273H17.3402V15.6896ZM17.3402 26.1201C16.6753 28.0519 14.8579 29.4373 12.723 29.4373C10.0225 29.4373 7.83511 27.2244 7.83511 24.4924C7.83511 21.7603 10.0225 19.5474 12.723 19.5474C14.8594 19.5474 16.6753 20.9343 17.3402 22.8661C17.5159 23.3752 17.6109 23.923 17.6109 24.4924C17.6109 25.0617 17.5159 25.611 17.3402 26.1201Z" fill="white"/>
<path d="M62.5037 13.6273V15.6896C60.7856 14.0575 58.5798 13.0292 56.1599 12.903C55.9926 12.8944 55.8253 12.8901 55.6567 12.8901C55.2002 12.8901 54.7494 12.9217 54.3071 12.9848C53.2722 13.1311 52.2827 13.4437 51.3656 13.8983L46.4805 18.8404C46.4309 18.9379 46.3827 19.0369 46.3359 19.1373C46.3316 19.1473 46.3274 19.1559 46.3217 19.166C46.2934 19.2276 46.2636 19.2907 46.2367 19.3524C46.2097 19.4112 46.1856 19.4686 46.1601 19.5274C46.1303 19.5948 46.102 19.6622 46.0751 19.731C46.0368 19.8242 45.9999 19.9175 45.9645 20.0107C45.956 20.0322 45.9489 20.0523 45.9418 20.0738C45.9361 20.0867 45.9319 20.101 45.9262 20.1139C45.8979 20.1885 45.8723 20.2617 45.8454 20.3377C45.8454 20.3448 45.8411 20.3534 45.8383 20.3606C45.8029 20.461 45.7703 20.5614 45.7391 20.6632C45.7079 20.7622 45.6781 20.8611 45.6484 20.9615C45.6469 20.9687 45.6441 20.9759 45.6427 20.983C45.6172 21.0719 45.5931 21.1609 45.5704 21.2512C45.569 21.2555 45.569 21.2598 45.5675 21.2641C45.5647 21.2756 45.5619 21.2856 45.559 21.2971C45.5562 21.3043 45.5548 21.3114 45.5534 21.3186C45.5505 21.3272 45.5491 21.3358 45.5463 21.3444C45.525 21.429 45.5038 21.5137 45.4853 21.5997C45.4839 21.6026 45.4839 21.6069 45.4825 21.6097C45.4797 21.6212 45.4768 21.6313 45.4754 21.6427C45.4726 21.6571 45.4683 21.6714 45.4655 21.6858C45.4655 21.6944 45.4626 21.703 45.4598 21.7101C45.4428 21.7905 45.4244 21.8679 45.4088 21.9496C45.4074 21.9582 45.4045 21.9669 45.4045 21.9755C45.4017 21.9869 45.4003 21.997 45.3974 22.0084C45.379 22.1045 45.3606 22.2021 45.345 22.2981C45.328 22.3971 45.3124 22.4946 45.2982 22.595C45.2954 22.6065 45.2939 22.6194 45.2925 22.6309C45.2911 22.6337 45.2911 22.6366 45.2911 22.6395C45.2897 22.6481 45.2883 22.6581 45.2869 22.6667C45.2727 22.77 45.2599 22.8732 45.2472 22.9779C45.2344 23.0927 45.2231 23.2074 45.2131 23.3221C45.2032 23.4383 45.1947 23.5545 45.1876 23.6706C45.1805 23.7868 45.1749 23.903 45.1706 24.0206C45.1664 24.1611 45.1635 24.3031 45.1635 24.4451C45.1635 30.827 49.8615 36 55.6567 36C58.2736 36 60.6665 34.9445 62.5037 33.2005V35.1868H70V13.6273H62.5037ZM62.5037 26.123C61.8374 28.0534 60.0229 29.4373 57.8865 29.4373C55.1874 29.4373 52.9986 27.2244 52.9986 24.4924C52.9986 21.7603 55.1874 19.5474 57.8865 19.5474C60.0215 19.5474 61.8374 20.9314 62.5037 22.8618C62.6795 23.3723 62.7759 23.9216 62.7759 24.4924C62.7759 25.0632 62.6795 25.6125 62.5037 26.123Z" fill="white"/>
<path d="M26.1633 32.2554V35.1868H33.2386V27.6504H30.7153L26.1633 32.2554Z" fill="white"/>
<path d="M26.1633 28.4019L28.8114 25.7243L29.5996 24.9255H33.2386V0.351366H26.1633V28.4019Z" fill="white"/>
<path d="M36.4268 24.9255H36.6565L47.8244 13.6273H43.8948V10.6012C43.8948 10.6012 43.8239 10.0462 43.8948 9.34635C44.0564 7.72863 44.9693 5.3336 49.2505 7.23528V0.704167C48.1618 0.249542 46.9681 0 45.7178 0C44.8417 0 43.994 0.123337 43.1902 0.351366C39.2861 1.4657 36.4268 5.0941 36.4268 9.39941V13.6273H34.4167V20.0107H36.4268V24.9255Z" fill="white"/>
<path d="M18.4828 35.1868H24.8365V32.2554H20.6673L18.4828 35.1868Z" fill="white"/>
<path d="M36.4268 27.6504V35.1868H43.8948V21.4563L37.7721 27.6504H36.4268Z" fill="white"/>
<path d="M54.6303 8.16891L54.9181 8.2607L55.169 9.06525L55.4001 9.80241L56.0748 11.9665L58.4593 4.67676L51.2536 7.089L54.6303 8.16891Z" fill="white"/>
</svg>
