<svg width="98" height="18" viewBox="0 0 98 18" fill="none" xmlns="http://www.w3.org/2000/svg">
<path d="M2.7407 11.2242C2.7407 12.2027 2.95336 12.9538 3.23131 13.4083C3.59574 14.0036 4.13929 14.2557 4.69343 14.2557C5.40817 14.2557 6.06202 14.0766 7.32207 12.3167C8.33152 10.9061 9.52098 8.9261 10.3213 7.6848L11.6767 5.58182C12.6182 4.12131 13.7079 2.49774 14.9574 1.39724C15.9774 0.499013 17.0778 0 18.1852 0C20.0444 0 21.8153 1.08803 23.1707 3.12863C24.654 5.3635 25.374 8.17847 25.374 11.0834C25.374 12.8104 25.0369 14.0793 24.4634 15.0818C23.9092 16.0513 22.8292 17.0199 21.0123 17.0199V14.2557C22.568 14.2557 22.9563 12.8122 22.9563 11.1601C22.9563 8.8058 22.4127 6.19311 21.2153 4.32627C20.3656 3.0021 19.2643 2.19298 18.0528 2.19298C16.7425 2.19298 15.688 3.19101 14.503 4.97053C13.8729 5.91598 13.2261 7.06816 12.4999 8.36827L11.7005 9.79848C10.0945 12.674 9.68776 13.329 8.88478 14.4099C7.47737 16.3026 6.27556 17.0199 4.69343 17.0199C2.81659 17.0199 1.62977 16.1992 0.894743 14.9624C0.294718 13.9545 0 12.6322 0 11.1253L2.7407 11.2242Z" fill="#0081FB"/>
<path d="M2.16309 3.32378C3.41961 1.36783 5.23292 0 7.31272 0C8.51718 0 9.71458 0.360002 10.9649 1.391C12.3326 2.51823 13.7903 4.37438 15.6089 7.43351L16.261 8.53134C17.8352 11.1797 18.7308 12.5422 19.255 13.1846C19.9291 14.0098 20.4012 14.2557 21.0145 14.2557C22.5701 14.2557 22.9584 12.8122 22.9584 11.1601L25.3761 11.0834C25.3761 12.8104 25.039 14.0793 24.4655 15.0818C23.9114 16.0513 22.8313 17.0199 21.0145 17.0199C19.885 17.0199 18.8844 16.7722 17.7779 15.718C16.9272 14.9089 15.9328 13.4716 15.1678 12.1795L12.8921 8.34065C11.7503 6.4141 10.7029 4.97766 10.0967 4.32716C9.44457 3.62765 8.6063 2.78289 7.2686 2.78289C6.1859 2.78289 5.26645 3.55012 4.49701 4.72369L2.16309 3.32378Z" fill="url(#paint0_linear_908_3447)"/>
<path d="M7.26648 2.78289C6.18379 2.78289 5.26434 3.55012 4.49489 4.72369C3.40691 6.38202 2.7407 8.85213 2.7407 11.2242C2.7407 12.2026 2.95336 12.9538 3.23131 13.4083L0.894744 14.9624C0.294718 13.9545 0 12.6322 0 11.1253C0 8.3852 0.744737 5.52924 2.16097 3.32378C3.4175 1.36783 5.23081 0 7.3106 0L7.26648 2.78289Z" fill="url(#paint1_linear_908_3447)"/>
<path d="M30.7031 0.561035H33.8735L39.2641 10.4094L44.6555 0.561035H47.7571V16.7433H45.1708V4.34106L40.4429 12.9294H38.0164L33.2894 4.34106V16.7433H30.7031V0.561035ZM55.8609 6.59464C54.0061 6.59464 52.889 8.00436 52.6217 9.75001H58.9166C58.7869 7.95178 57.7598 6.59464 55.8609 6.59464ZM50.0575 10.7445C50.0575 7.07138 52.4081 4.39809 55.9059 4.39809C59.3464 4.39809 61.4006 7.03752 61.4006 10.9405V11.6578H52.6217C52.9332 13.5568 54.1809 14.8364 56.1927 14.8364C57.7978 14.8364 58.8011 14.3418 59.7523 13.4374L61.1261 15.1367C59.8317 16.3388 58.1851 17.032 56.1009 17.032C52.3146 17.032 50.0575 14.2438 50.0575 10.7445ZM64.5366 6.82633H62.1559V4.6877H64.5366V1.15094H67.032V4.6877H70.6489V6.82633H67.032V12.2469C67.032 14.0977 67.6179 14.7553 69.0579 14.7553C69.7153 14.7553 70.0921 14.6983 70.6489 14.6047V16.7202C69.9553 16.918 69.2935 17.0089 68.577 17.0089C65.8831 17.0089 64.5366 15.5225 64.5366 12.5472V6.82633ZM81.1564 8.90615C80.6552 7.62831 79.5372 6.68732 77.8942 6.68732C75.7588 6.68732 74.392 8.21733 74.392 10.7097C74.392 13.1397 75.6503 14.7437 77.7918 14.7437C79.4754 14.7437 80.6772 13.7546 81.1564 12.524V8.90615ZM83.6518 16.7433H81.2023V15.0556C80.5175 16.0492 79.2716 17.032 77.2536 17.032C74.0081 17.032 71.8392 14.2884 71.8392 10.7097C71.8392 7.09722 74.0602 4.39809 77.3912 4.39809C79.0378 4.39809 80.3296 5.06285 81.2023 6.23642V4.6877H83.6518V16.7433Z" fill="white"/>
<path d="M85.5083 16.7379L87.4579 11.3982H88.0743L90.0239 16.7379H89.4218L88.9631 15.4334H86.5763L86.1104 16.7379H85.5083ZM86.7626 14.8959H88.7624L87.6801 11.8282H87.8521L86.7626 14.8959Z" fill="white"/>
<path d="M92.2517 16.8239C91.8933 16.8239 91.5707 16.7379 91.284 16.5659C90.9973 16.3891 90.7704 16.1502 90.6031 15.8491C90.4407 15.5433 90.3594 15.1993 90.3594 14.817C90.3594 14.43 90.4407 14.086 90.6031 13.7849C90.7704 13.4839 90.9949 13.2474 91.2769 13.0754C91.5636 12.8986 91.8885 12.8102 92.2517 12.8102C92.5814 12.8102 92.8753 12.8818 93.1333 13.0252C93.3913 13.1685 93.5944 13.3621 93.7425 13.6057L93.6565 13.7563V11.3122H94.1941V16.7379H93.6565V15.8778L93.7425 15.9567C93.6087 16.2338 93.4081 16.4488 93.1405 16.6017C92.8776 16.7498 92.5814 16.8239 92.2517 16.8239ZM92.2803 16.2864C92.5384 16.2864 92.7701 16.2218 92.9756 16.0928C93.1859 15.9638 93.3507 15.7894 93.4702 15.5696C93.5944 15.345 93.6565 15.0942 93.6565 14.817C93.6565 14.5399 93.5944 14.2914 93.4702 14.0716C93.3507 13.847 93.1859 13.6703 92.9756 13.5412C92.7701 13.4122 92.5384 13.3477 92.2803 13.3477C92.0271 13.3477 91.7977 13.4122 91.5923 13.5412C91.3868 13.6703 91.2243 13.8447 91.1049 14.0645C90.9902 14.2843 90.9328 14.5351 90.9328 14.817C90.9328 15.0942 90.9902 15.345 91.1049 15.5696C91.2243 15.7894 91.3844 15.9638 91.5851 16.0928C91.7906 16.2218 92.0223 16.2864 92.2803 16.2864Z" fill="white"/>
<path d="M96.631 16.8239C96.2631 16.8239 95.9406 16.7307 95.6634 16.5444C95.3863 16.358 95.1856 16.1048 95.0613 15.7846L95.5129 15.5696C95.6228 15.8037 95.7757 15.9901 95.9716 16.1287C96.1723 16.2672 96.3921 16.3365 96.631 16.3365C96.8604 16.3365 97.0539 16.2816 97.2116 16.1717C97.3693 16.057 97.4482 15.9089 97.4482 15.7273C97.4482 15.5935 97.4099 15.4884 97.3335 15.4119C97.257 15.3307 97.1686 15.2686 97.0683 15.2256C96.9679 15.1826 96.8795 15.1515 96.8031 15.1324L96.2512 14.9747C95.8976 14.8744 95.6419 14.7334 95.4842 14.5518C95.3265 14.3703 95.2477 14.16 95.2477 13.9211C95.2477 13.6965 95.305 13.5006 95.4197 13.3334C95.5344 13.1661 95.6897 13.0371 95.8856 12.9463C96.0815 12.8556 96.2989 12.8102 96.5379 12.8102C96.8628 12.8102 97.1567 12.8962 97.4195 13.0682C97.6871 13.2354 97.8758 13.4696 97.9857 13.7706L97.527 13.9856C97.4314 13.7706 97.2928 13.6034 97.1113 13.4839C96.9345 13.3597 96.7362 13.2975 96.5164 13.2975C96.3013 13.2975 96.1293 13.3525 96.0003 13.4624C95.8713 13.5723 95.8068 13.7109 95.8068 13.8781C95.8068 14.0071 95.8402 14.1099 95.9071 14.1863C95.974 14.2628 96.0505 14.3201 96.1365 14.3583C96.2273 14.3965 96.3061 14.4252 96.373 14.4443L97.0109 14.6307C97.3215 14.7215 97.5628 14.8624 97.7348 15.0536C97.9117 15.2447 98.0001 15.4693 98.0001 15.7273C98.0001 15.9375 97.9403 16.1263 97.8209 16.2935C97.7062 16.4608 97.5461 16.5922 97.3406 16.6877C97.1352 16.7785 96.8986 16.8239 96.631 16.8239Z" fill="white"/>
<defs>
<linearGradient id="paint0_linear_908_3447" x1="5.38469" y1="10.4258" x2="22.8569" y2="11.2996" gradientUnits="userSpaceOnUse">
<stop stop-color="#0064E1"/>
<stop offset="0.4" stop-color="#0064E1"/>
<stop offset="0.83" stop-color="#0073EE"/>
<stop offset="1" stop-color="#0082FB"/>
</linearGradient>
<linearGradient id="paint1_linear_908_3447" x1="3.97075" y1="12.3862" x2="3.97075" y2="5.88122" gradientUnits="userSpaceOnUse">
<stop stop-color="#0082FB"/>
<stop offset="1" stop-color="#0064E0"/>
</linearGradient>
</defs>
</svg>
