<svg width="82" height="31" viewBox="0 0 82 31" fill="none" xmlns="http://www.w3.org/2000/svg">
<path d="M11.3597 3.84055C11.6824 2.99358 12.126 2.21383 12.7848 1.58196C15.4198 -0.985837 19.7757 -0.340526 21.5637 2.88603C22.9081 5.33283 24.3332 7.72586 25.7179 10.1458L32.655 22.2185C34.5775 25.5929 32.4937 29.8546 28.6756 30.4327C26.3363 30.7823 24.145 29.7067 22.935 27.6095L16.8314 17.0156C16.7911 16.935 16.7373 16.8678 16.6836 16.8005C16.4685 16.6258 16.3743 16.3703 16.2399 16.1418L11.7496 8.35772C11.2253 7.44353 10.9833 6.44868 11.0102 5.40005C11.0505 4.86229 11.1177 4.32453 11.3597 3.84055Z" fill="#3C8BD9"/>
<path d="M11.3597 3.84055C11.2387 4.32453 11.1313 4.80852 11.1044 5.31939C11.0641 6.44869 11.3464 7.49732 11.9111 8.47873L16.3341 16.1283C16.4686 16.3569 16.5761 16.5854 16.7106 16.8005L14.2772 20.9816L10.8759 26.8432C10.8221 26.8432 10.8087 26.8163 10.7952 26.776C10.7818 26.6684 10.8221 26.5743 10.849 26.4668C11.4002 24.4502 10.9431 22.6621 9.55838 21.1295C8.71141 20.2019 7.63589 19.6776 6.39904 19.5028C4.78576 19.2742 3.3607 19.691 2.08352 20.6993C1.85497 20.8741 1.70709 21.1295 1.43821 21.2639C1.38444 21.2639 1.35755 21.2371 1.3441 21.1967L3.26659 17.8492L11.2658 3.98844C11.2927 3.93466 11.3328 3.89432 11.3597 3.84055Z" fill="#FABC04"/>
<path d="M1.39788 21.2373L2.16418 20.5516C5.43107 17.9704 10.3381 19.8391 11.0507 23.926C11.2254 24.9075 11.1313 25.8485 10.8356 26.7896C10.8221 26.8703 10.8087 26.9375 10.7818 27.0182C10.6608 27.2333 10.5532 27.4618 10.4188 27.6769C9.22228 29.6532 7.46112 30.6346 5.14875 30.4867C2.50028 30.2985 0.416466 28.3088 0.0534783 25.6738C-0.121294 24.3966 0.134142 23.2001 0.792898 22.0977C0.927338 21.8557 1.08867 21.6406 1.23655 21.3986C1.30377 21.3448 1.27688 21.2373 1.39788 21.2373Z" fill="#34A852"/>
<path d="M1.39788 21.2373C1.3441 21.291 1.34412 21.3852 1.25001 21.3987C1.23656 21.3046 1.29034 21.2508 1.34412 21.1836L1.39788 21.2373Z" fill="#FABC04"/>
<path d="M10.7818 27.0182C10.728 26.9241 10.7818 26.8568 10.8356 26.7896L10.8895 26.8433L10.7818 27.0182Z" fill="#E1C025"/>
<path d="M38.7334 2.72877C35.2818 2.72877 32.4105 5.50843 32.4105 8.92953C32.4105 12.3506 35.2818 15.0997 38.7334 15.0997C40.5967 15.0997 41.9713 14.4888 43.0709 13.3586C44.2011 12.2284 44.5371 10.6706 44.5371 9.41825C44.5371 9.02116 44.5066 8.65461 44.4455 8.34916H38.7334V10.0292H42.796C42.6738 10.9761 42.3684 11.6786 41.8796 12.1673C41.2993 12.7477 40.3524 13.4197 38.7334 13.4197C36.2287 13.4197 34.2738 11.4037 34.2738 8.92953C34.2738 6.45534 36.2287 4.43933 38.7334 4.43933C40.0775 4.43933 41.0855 4.9586 41.788 5.66115L42.9793 4.46987C41.9713 3.49242 40.6273 2.72877 38.7334 2.72877ZM49.0884 7.15788C46.9197 7.15788 45.1175 8.83789 45.1175 11.1899C45.1175 13.5114 46.8891 15.2219 49.0884 15.2219C51.2877 15.2219 53.0593 13.5114 53.0593 11.1899C53.0593 8.86844 51.2571 7.15788 49.0884 7.15788ZM49.0884 13.6335C47.8971 13.6335 46.8586 12.6255 46.8586 11.1899C46.8586 9.75426 47.8971 8.74625 49.0884 8.74625C50.2797 8.74625 51.3182 9.72371 51.3182 11.1899C51.3182 12.6255 50.2797 13.6335 49.0884 13.6335ZM57.7023 7.15788C55.503 7.15788 53.7313 8.83789 53.7313 11.1899C53.7313 13.5114 55.503 15.2219 57.7023 15.2219C59.871 15.2219 61.6732 13.5114 61.6732 11.1899C61.6732 8.86844 59.9015 7.15788 57.7023 7.15788ZM57.7023 13.6335C56.511 13.6335 55.4724 12.6255 55.4724 11.1899C55.4724 9.75426 56.511 8.74625 57.7023 8.74625C58.8935 8.74625 59.9321 9.72371 59.9321 11.1899C59.9321 12.6255 58.9241 13.6335 57.7023 13.6335ZM66.2856 7.15788C64.3001 7.15788 62.4979 8.89898 62.4979 11.1593C62.4979 13.3892 64.3001 15.1303 66.2856 15.1303C67.2325 15.1303 67.9656 14.7026 68.3627 14.2139H68.4238V14.7943C68.4238 16.3215 67.6296 17.1463 66.3161 17.1463C65.247 17.1463 64.6056 16.3826 64.3307 15.7412L62.8034 16.3826C63.231 17.4517 64.3917 18.7346 66.3161 18.7346C68.3627 18.7346 70.0732 17.5128 70.0732 14.5805V7.43279H68.4238V8.07425H68.3627C67.9656 7.58552 67.2325 7.15788 66.2856 7.15788ZM66.4383 13.5724C65.247 13.5724 64.239 12.5644 64.239 11.1593C64.239 9.75425 65.247 8.7157 66.4383 8.7157C67.6296 8.7157 68.5459 9.75425 68.5459 11.1593C68.5459 12.5644 67.6296 13.5724 66.4383 13.5724ZM71.3561 3.21751H73.0972V15.0081H71.3561V3.21751ZM77.7707 7.15788C75.6936 7.15788 73.9525 8.7768 73.9525 11.1899C73.9525 13.4503 75.6631 15.2219 77.954 15.2219C79.8173 15.2219 80.8864 14.0917 81.314 13.4503L79.9395 12.5339C79.4813 13.2059 78.8398 13.6335 77.954 13.6335C77.0376 13.6335 76.3962 13.2364 75.9991 12.4117L81.4056 10.1819L81.2224 9.7237C80.8864 8.83788 79.8478 7.15788 77.7707 7.15788ZM75.6936 11.0677C75.6325 9.50989 76.9154 8.7157 77.8013 8.7157C78.5038 8.7157 79.1147 9.0517 79.298 9.57098L75.6936 11.0677Z" fill="white"/>
<path d="M43.8996 29.173L47.9316 18.4515H49.4895L53.5215 29.173H51.9942L50.9556 26.2712H46.4654L45.4269 29.173H43.8996ZM46.9236 24.9883H50.4975L48.7564 20.1621H48.6953L46.9236 24.9883ZM54.9266 28.2872C54.2546 27.5236 53.9186 26.6072 53.9186 25.5076C53.9186 24.4385 54.2546 23.5221 54.9266 22.7279C55.6291 21.9643 56.4233 21.5977 57.4008 21.5977C57.9506 21.5977 58.4393 21.7199 58.867 21.9337C59.3251 22.1781 59.6611 22.453 59.9055 22.8501H59.9666L59.9055 21.8421V18.4515H61.2801V29.173H59.9666V28.165H59.9055C59.6611 28.5316 59.3251 28.837 58.867 29.0814C58.4088 29.3258 57.92 29.4174 57.4008 29.4174C56.4233 29.4174 55.5986 29.0508 54.9266 28.2872ZM59.264 27.4319C59.7222 26.9432 59.936 26.3017 59.936 25.5076C59.936 24.7439 59.7222 24.1025 59.264 23.6137C58.8364 23.125 58.2866 22.8806 57.6146 22.8806C56.9426 22.8806 56.3928 23.125 55.9651 23.6137C55.5069 24.1025 55.2931 24.7439 55.2931 25.5076C55.2931 26.2712 55.5069 26.9127 55.9651 27.4014C56.4233 27.8901 56.9731 28.1345 57.6146 28.1345C58.2866 28.165 58.8364 27.9207 59.264 27.4319ZM67.6335 28.7454C67.0837 29.173 66.3812 29.4174 65.5259 29.4174C64.7928 29.4174 64.1513 29.2341 63.571 28.837C63.0212 28.4399 62.6241 27.9512 62.3797 27.3097L63.6015 26.7905C63.7848 27.2181 64.0292 27.5847 64.3957 27.829C64.7317 28.0734 65.1288 28.1956 65.5259 28.1956C65.9535 28.1956 66.3201 28.1039 66.6255 27.9207C66.931 27.7374 67.0532 27.493 67.0532 27.2487C67.0532 26.7905 66.6866 26.4239 65.9841 26.2101L64.7317 25.9046C63.2961 25.5381 62.5935 24.8661 62.5935 23.8276C62.5935 23.1556 62.8684 22.6363 63.4182 22.2086C63.9681 21.8116 64.6706 21.5977 65.4953 21.5977C66.1157 21.5936 66.7264 21.7515 67.267 22.0559C67.7863 22.3614 68.1528 22.789 68.3666 23.3083L67.1448 23.8276C66.9921 23.5221 66.7783 23.2777 66.4728 23.0945C66.1674 22.9112 65.8008 22.8196 65.4037 22.8196C65.0372 22.8196 64.7317 22.9112 64.4262 23.0945C64.1513 23.2777 63.9986 23.4915 63.9986 23.7665C63.9986 24.1941 64.3957 24.4996 65.1899 24.6523L66.2895 24.9272C67.7557 25.2937 68.4583 26.0268 68.4583 27.1265C68.4888 27.7679 68.1834 28.3178 67.6335 28.7454Z" fill="white"/>
</svg>
